<svg width="340" height="245" viewBox="0 0 340 245" fill="none" xmlns="http://www.w3.org/2000/svg">
<circle cx="50" cy="50" r="50" fill="#FF7500" fill-opacity="0.2"/>
<path fill-rule="evenodd" clip-rule="evenodd" d="M53.6418 24.9295C54.8074 25.297 55.6 26.3779 55.6 27.6V41.6L66.8 41.6C67.8441 41.6 68.8014 42.1809 69.2835 43.1069C69.7657 44.033 69.6926 45.1504 69.0939 46.0057L49.4939 74.0057C48.793 75.0069 47.5238 75.4379 46.3582 75.0705C45.1926 74.7031 44.4 73.6221 44.4 72.4L44.4 58.4H33.2C32.156 58.4 31.1986 57.8191 30.7165 56.8931C30.2343 55.967 30.3074 54.8496 30.9062 53.9943L50.5062 25.9943C51.207 24.9931 52.4762 24.5621 53.6418 24.9295Z" fill="#FF7500"/>
<path d="M12.4219 140.809H8.20312V155H4.74609V140.809H0.597656V137.938H12.4219V140.809ZM18.8047 155.234C17.1016 155.234 15.7734 154.727 14.8203 153.711C13.8672 152.695 13.3906 151.242 13.3906 149.352V148.344C13.3906 146.344 13.8281 144.801 14.7031 143.715C15.5781 142.629 16.832 142.086 18.4648 142.086C20.0586 142.086 21.2578 142.598 22.0625 143.621C22.8672 144.637 23.2773 146.145 23.293 148.145V149.773H16.6953C16.7422 150.711 16.9492 151.398 17.3164 151.836C17.6836 152.266 18.25 152.48 19.0156 152.48C20.125 152.48 21.0508 152.102 21.793 151.344L23.0938 153.348C22.6875 153.91 22.0977 154.367 21.3242 154.719C20.5508 155.062 19.7109 155.234 18.8047 155.234ZM16.7188 147.453H20.0352V147.148C20.0195 146.391 19.8945 145.816 19.6602 145.426C19.4258 145.035 19.0195 144.84 18.4414 144.84C17.8633 144.84 17.4414 145.047 17.1758 145.461C16.918 145.875 16.7656 146.539 16.7188 147.453ZM29.3359 152.246H34.3516V155H25.3984V152.926L30.2969 145.086H25.5156V142.32H34.2812V144.324L29.3359 152.246ZM47.1406 149.48L48.8281 142.32H52.3672L48.1953 156.898C47.5703 159.047 46.3945 160.121 44.668 160.121C44.2695 160.121 43.8164 160.047 43.3086 159.898V157.309L43.6953 157.32C44.2109 157.32 44.5977 157.219 44.8555 157.016C45.1211 156.82 45.3203 156.477 45.4531 155.984L45.7109 155.129L42.0547 142.32H45.6172L47.1406 149.48ZM59.2422 155.234C57.5391 155.234 56.2109 154.727 55.2578 153.711C54.3047 152.695 53.8281 151.242 53.8281 149.352V148.344C53.8281 146.344 54.2656 144.801 55.1406 143.715C56.0156 142.629 57.2695 142.086 58.9023 142.086C60.4961 142.086 61.6953 142.598 62.5 143.621C63.3047 144.637 63.7148 146.145 63.7305 148.145V149.773H57.1328C57.1797 150.711 57.3867 151.398 57.7539 151.836C58.1211 152.266 58.6875 152.48 59.4531 152.48C60.5625 152.48 61.4883 152.102 62.2305 151.344L63.5312 153.348C63.125 153.91 62.5352 154.367 61.7617 154.719C60.9883 155.062 60.1484 155.234 59.2422 155.234ZM57.1562 147.453H60.4727V147.148C60.457 146.391 60.332 145.816 60.0977 145.426C59.8633 145.035 59.457 144.84 58.8789 144.84C58.3008 144.84 57.8789 145.047 57.6133 145.461C57.3555 145.875 57.2031 146.539 57.1562 147.453ZM69.9609 139.203V142.32H71.6602V144.816H69.9609V151.109C69.9609 151.609 70.0273 151.953 70.1602 152.141C70.3008 152.328 70.5664 152.422 70.957 152.422C71.2773 152.422 71.5391 152.395 71.7422 152.34L71.7188 154.918C71.1562 155.129 70.5469 155.234 69.8906 155.234C67.75 155.234 66.668 154.008 66.6445 151.555V144.816H65.1797V142.32H66.6445V139.203H69.9609ZM78.1953 150.113L77.3047 151.109V155H73.9883V137H77.3047V146.727L77.7148 146.117L80.0117 142.32H83.9609L80.2812 147.547L84.3125 155H80.5156L78.1953 150.113ZM91.9961 155C91.9023 154.805 91.8086 154.477 91.7148 154.016C91.1211 154.828 90.3164 155.234 89.3008 155.234C88.2383 155.234 87.3555 154.883 86.6523 154.18C85.957 153.477 85.6094 152.566 85.6094 151.449C85.6094 150.121 86.0312 149.094 86.875 148.367C87.7266 147.641 88.9492 147.27 90.543 147.254H91.5508V146.234C91.5508 145.664 91.4531 145.262 91.2578 145.027C91.0625 144.793 90.7773 144.676 90.4023 144.676C89.5742 144.676 89.1602 145.16 89.1602 146.129H85.8438C85.8438 144.957 86.2812 143.992 87.1562 143.234C88.0391 142.469 89.1523 142.086 90.4961 142.086C91.8867 142.086 92.9609 142.449 93.7188 143.176C94.4844 143.895 94.8672 144.926 94.8672 146.27V152.234C94.8828 153.328 95.0391 154.184 95.3359 154.801V155H91.9961ZM90.0391 152.633C90.4062 152.633 90.7188 152.559 90.9766 152.41C91.2344 152.262 91.4258 152.086 91.5508 151.883V149.246H90.7539C90.1914 149.246 89.7461 149.426 89.418 149.785C89.0977 150.145 88.9375 150.625 88.9375 151.227C88.9375 152.164 89.3047 152.633 90.0391 152.633ZM101.438 152.246H106.453V155H97.5V152.926L102.398 145.086H97.6172V142.32H106.383V144.324L101.438 152.246ZM112.625 155H109.297V142.32H112.625V155ZM109.145 139.039C109.145 138.523 109.309 138.102 109.637 137.773C109.965 137.445 110.402 137.281 110.949 137.281C111.496 137.281 111.934 137.445 112.262 137.773C112.59 138.102 112.754 138.523 112.754 139.039C112.754 139.547 112.59 139.969 112.262 140.305C111.941 140.641 111.504 140.809 110.949 140.809C110.395 140.809 109.953 140.641 109.625 140.305C109.305 139.969 109.145 139.547 109.145 139.039ZM125.582 149.07C125.582 151.125 125.254 152.668 124.598 153.699C123.941 154.723 122.91 155.234 121.504 155.234C120.402 155.234 119.52 154.738 118.855 153.746L118.75 155H115.691V137H119.008V143.352C119.633 142.508 120.457 142.086 121.48 142.086C122.887 142.086 123.918 142.598 124.574 143.621C125.23 144.637 125.566 146.129 125.582 148.098V149.07ZM122.266 148.238C122.266 146.902 122.137 146.008 121.879 145.555C121.621 145.094 121.172 144.863 120.531 144.863C119.836 144.863 119.328 145.18 119.008 145.812V151.59C119.305 152.184 119.82 152.48 120.555 152.48C121.188 152.48 121.625 152.273 121.867 151.859C122.117 151.445 122.25 150.641 122.266 149.445V148.238ZM143.996 149.07C143.996 151.125 143.668 152.668 143.012 153.699C142.355 154.723 141.324 155.234 139.918 155.234C138.816 155.234 137.934 154.738 137.27 153.746L137.164 155H134.105V137H137.422V143.352C138.047 142.508 138.871 142.086 139.895 142.086C141.301 142.086 142.332 142.598 142.988 143.621C143.645 144.637 143.98 146.129 143.996 148.098V149.07ZM140.68 148.238C140.68 146.902 140.551 146.008 140.293 145.555C140.035 145.094 139.586 144.863 138.945 144.863C138.25 144.863 137.742 145.18 137.422 145.812V151.59C137.719 152.184 138.234 152.48 138.969 152.48C139.602 152.48 140.039 152.273 140.281 151.859C140.531 151.445 140.664 150.641 140.68 149.445V148.238ZM151.609 155.234C149.906 155.234 148.578 154.727 147.625 153.711C146.672 152.695 146.195 151.242 146.195 149.352V148.344C146.195 146.344 146.633 144.801 147.508 143.715C148.383 142.629 149.637 142.086 151.27 142.086C152.863 142.086 154.062 142.598 154.867 143.621C155.672 144.637 156.082 146.145 156.098 148.145V149.773H149.5C149.547 150.711 149.754 151.398 150.121 151.836C150.488 152.266 151.055 152.48 151.82 152.48C152.93 152.48 153.855 152.102 154.598 151.344L155.898 153.348C155.492 153.91 154.902 154.367 154.129 154.719C153.355 155.062 152.516 155.234 151.609 155.234ZM149.523 147.453H152.84V147.148C152.824 146.391 152.699 145.816 152.465 145.426C152.23 145.035 151.824 144.84 151.246 144.84C150.668 144.84 150.246 145.047 149.98 145.461C149.723 145.875 149.57 146.539 149.523 147.453ZM164.73 145.52L163.629 145.426C162.723 145.426 162.109 145.824 161.789 146.621V155H158.461V142.32H161.59L161.684 143.691C162.207 142.621 162.93 142.086 163.852 142.086C164.227 142.086 164.531 142.137 164.766 142.238L164.73 145.52ZM170.422 155H167.094V142.32H170.422V155ZM166.941 139.039C166.941 138.523 167.105 138.102 167.434 137.773C167.762 137.445 168.199 137.281 168.746 137.281C169.293 137.281 169.73 137.445 170.059 137.773C170.387 138.102 170.551 138.523 170.551 139.039C170.551 139.547 170.387 139.969 170.059 140.305C169.738 140.641 169.301 140.809 168.746 140.809C168.191 140.809 167.75 140.641 167.422 140.305C167.102 139.969 166.941 139.547 166.941 139.039ZM179.102 151.602C179.102 151.32 178.965 151.062 178.691 150.828C178.426 150.586 177.828 150.262 176.898 149.855C175.531 149.301 174.59 148.727 174.074 148.133C173.566 147.539 173.312 146.801 173.312 145.918C173.312 144.809 173.711 143.895 174.508 143.176C175.312 142.449 176.375 142.086 177.695 142.086C179.086 142.086 180.199 142.445 181.035 143.164C181.871 143.883 182.289 144.848 182.289 146.059H178.973C178.973 145.027 178.543 144.512 177.684 144.512C177.332 144.512 177.043 144.621 176.816 144.84C176.59 145.059 176.477 145.363 176.477 145.754C176.477 146.035 176.602 146.285 176.852 146.504C177.102 146.715 177.691 147.02 178.621 147.418C179.973 147.918 180.926 148.477 181.48 149.094C182.043 149.703 182.324 150.496 182.324 151.473C182.324 152.605 181.898 153.516 181.047 154.203C180.195 154.891 179.078 155.234 177.695 155.234C176.766 155.234 175.945 155.055 175.234 154.695C174.523 154.328 173.965 153.82 173.559 153.172C173.16 152.523 172.961 151.824 172.961 151.074H176.113C176.129 151.652 176.262 152.086 176.512 152.375C176.77 152.664 177.188 152.809 177.766 152.809C178.656 152.809 179.102 152.406 179.102 151.602ZM188.121 143.434C188.84 142.535 189.723 142.086 190.77 142.086C191.926 142.086 192.805 142.492 193.406 143.305C194.008 144.117 194.312 145.328 194.32 146.938V155H190.992V146.973C190.992 146.23 190.875 145.695 190.641 145.367C190.414 145.031 190.043 144.863 189.527 144.863C188.926 144.863 188.457 145.141 188.121 145.695V155H184.805V137H188.121V143.434Z" fill="black"/>
<path d="M10.0703 184.68C10.0703 185.794 9.88281 186.768 9.50781 187.602C9.13281 188.43 8.60156 189.062 7.91406 189.5C7.22656 189.938 6.42448 190.156 5.50781 190.156C4.61198 190.156 3.81771 189.938 3.125 189.5C2.43229 189.057 1.89323 188.43 1.50781 187.617C1.1276 186.799 0.932292 185.854 0.921875 184.781V183.961C0.921875 182.867 1.11198 181.901 1.49219 181.062C1.8724 180.224 2.40885 179.583 3.10156 179.141C3.79948 178.693 4.59635 178.469 5.49219 178.469C6.40365 178.469 7.20573 178.69 7.89844 179.133C8.59635 179.57 9.13281 180.208 9.50781 181.047C9.88281 181.88 10.0703 182.852 10.0703 183.961V184.68ZM8.57812 183.945C8.57812 182.596 8.30729 181.562 7.76562 180.844C7.22396 180.12 6.46615 179.758 5.49219 179.758C4.54427 179.758 3.79688 180.12 3.25 180.844C2.70833 181.562 2.42969 182.562 2.41406 183.844V184.68C2.41406 185.987 2.6875 187.016 3.23438 187.766C3.78646 188.51 4.54427 188.883 5.50781 188.883C6.47656 188.883 7.22656 188.531 7.75781 187.828C8.28906 187.12 8.5625 186.107 8.57812 184.789V183.945ZM12.6953 181.828L11.875 181.266C12.3594 180.589 12.6094 179.875 12.625 179.125V178H14.0547V179.016C14.0495 179.536 13.9193 180.057 13.6641 180.578C13.4141 181.094 13.0911 181.51 12.6953 181.828ZM17.6562 188.82H22.6016V190H15.8906V188.938L20.5547 182.742H15.9609V181.547H22.3672V182.57L17.6562 188.82ZM31.8906 185.867C31.8906 187.159 31.5938 188.198 31 188.984C30.4062 189.766 29.6094 190.156 28.6094 190.156C27.5417 190.156 26.7161 189.779 26.1328 189.023L26.0625 190H24.7344V178H26.1797V182.477C26.763 181.753 27.5677 181.391 28.5938 181.391C29.6198 181.391 30.4245 181.779 31.0078 182.555C31.5964 183.331 31.8906 184.393 31.8906 185.742V185.867ZM30.4453 185.703C30.4453 184.719 30.2552 183.958 29.875 183.422C29.4948 182.885 28.9479 182.617 28.2344 182.617C27.2812 182.617 26.5964 183.06 26.1797 183.945V187.602C26.6224 188.487 27.3125 188.93 28.25 188.93C28.9427 188.93 29.4818 188.661 29.8672 188.125C30.2526 187.589 30.4453 186.781 30.4453 185.703ZM37.7266 190.156C36.5807 190.156 35.6484 189.781 34.9297 189.031C34.2109 188.276 33.8516 187.268 33.8516 186.008V185.742C33.8516 184.904 34.0104 184.156 34.3281 183.5C34.651 182.839 35.099 182.323 35.6719 181.953C36.25 181.578 36.875 181.391 37.5469 181.391C38.6458 181.391 39.5 181.753 40.1094 182.477C40.7188 183.201 41.0234 184.237 41.0234 185.586V186.188H35.2969C35.3177 187.021 35.5599 187.695 36.0234 188.211C36.4922 188.721 37.0859 188.977 37.8047 188.977C38.3151 188.977 38.7474 188.872 39.1016 188.664C39.4557 188.456 39.7656 188.18 40.0312 187.836L40.9141 188.523C40.2057 189.612 39.1432 190.156 37.7266 190.156ZM37.5469 182.578C36.9635 182.578 36.474 182.792 36.0781 183.219C35.6823 183.641 35.4375 184.234 35.3438 185H39.5781V184.891C39.5365 184.156 39.3385 183.589 38.9844 183.188C38.6302 182.781 38.151 182.578 37.5469 182.578ZM45.5625 186.086L44.6562 187.031V190H43.2109V178H44.6562V185.258L45.4297 184.328L48.0625 181.547H49.8203L46.5312 185.078L50.2031 190H48.5078L45.5625 186.086ZM53.3828 190H51.9375V181.547H53.3828V190ZM51.8203 179.305C51.8203 179.07 51.8906 178.872 52.0312 178.711C52.1771 178.549 52.3906 178.469 52.6719 178.469C52.9531 178.469 53.1667 178.549 53.3125 178.711C53.4583 178.872 53.5312 179.07 53.5312 179.305C53.5312 179.539 53.4583 179.734 53.3125 179.891C53.1667 180.047 52.9531 180.125 52.6719 180.125C52.3906 180.125 52.1771 180.047 52.0312 179.891C51.8906 179.734 51.8203 179.539 51.8203 179.305ZM61.125 187.758C61.125 187.367 60.9766 187.065 60.6797 186.852C60.388 186.633 59.875 186.445 59.1406 186.289C58.4115 186.133 57.8307 185.945 57.3984 185.727C56.9714 185.508 56.6536 185.247 56.4453 184.945C56.2422 184.643 56.1406 184.284 56.1406 183.867C56.1406 183.174 56.4323 182.589 57.0156 182.109C57.6042 181.63 58.3542 181.391 59.2656 181.391C60.224 181.391 61 181.638 61.5938 182.133C62.1927 182.628 62.4922 183.26 62.4922 184.031H61.0391C61.0391 183.635 60.8698 183.294 60.5312 183.008C60.1979 182.721 59.776 182.578 59.2656 182.578C58.7396 182.578 58.3281 182.693 58.0312 182.922C57.7344 183.151 57.5859 183.451 57.5859 183.82C57.5859 184.169 57.724 184.432 58 184.609C58.276 184.786 58.7734 184.956 59.4922 185.117C60.2161 185.279 60.8021 185.471 61.25 185.695C61.6979 185.919 62.0286 186.19 62.2422 186.508C62.4609 186.82 62.5703 187.203 62.5703 187.656C62.5703 188.411 62.2682 189.018 61.6641 189.477C61.0599 189.93 60.276 190.156 59.3125 190.156C58.6354 190.156 58.0365 190.036 57.5156 189.797C56.9948 189.557 56.5859 189.224 56.2891 188.797C55.9974 188.365 55.8516 187.898 55.8516 187.398H57.2969C57.3229 187.883 57.5156 188.268 57.875 188.555C58.2396 188.836 58.7188 188.977 59.3125 188.977C59.8594 188.977 60.2969 188.867 60.625 188.648C60.9583 188.424 61.125 188.128 61.125 187.758ZM66.9141 179.5V181.547H68.4922V182.664H66.9141V187.906C66.9141 188.245 66.9844 188.5 67.125 188.672C67.2656 188.839 67.5052 188.922 67.8438 188.922C68.0104 188.922 68.2396 188.891 68.5312 188.828V190C68.151 190.104 67.7812 190.156 67.4219 190.156C66.776 190.156 66.2891 189.961 65.9609 189.57C65.6328 189.18 65.4688 188.625 65.4688 187.906V182.664H63.9297V181.547H65.4688V179.5H66.9141ZM70.1484 185.695C70.1484 184.867 70.3099 184.122 70.6328 183.461C70.9609 182.799 71.4141 182.289 71.9922 181.93C72.5755 181.57 73.2396 181.391 73.9844 181.391C75.1354 181.391 76.0651 181.789 76.7734 182.586C77.487 183.383 77.8438 184.443 77.8438 185.766V185.867C77.8438 186.69 77.6849 187.43 77.3672 188.086C77.0547 188.737 76.6042 189.245 76.0156 189.609C75.4323 189.974 74.7604 190.156 74 190.156C72.8542 190.156 71.9245 189.758 71.2109 188.961C70.5026 188.164 70.1484 187.109 70.1484 185.797V185.695ZM71.6016 185.867C71.6016 186.805 71.8177 187.557 72.25 188.125C72.6875 188.693 73.2708 188.977 74 188.977C74.7344 188.977 75.3177 188.69 75.75 188.117C76.1823 187.539 76.3984 186.732 76.3984 185.695C76.3984 184.768 76.1771 184.018 75.7344 183.445C75.2969 182.867 74.7135 182.578 73.9844 182.578C73.2708 182.578 72.6953 182.862 72.2578 183.43C71.8203 183.997 71.6016 184.81 71.6016 185.867ZM81.5234 181.547L81.5703 182.609C82.2161 181.797 83.0599 181.391 84.1016 181.391C85.888 181.391 86.7891 182.398 86.8047 184.414V190H85.3594V184.406C85.3542 183.797 85.2135 183.346 84.9375 183.055C84.6667 182.763 84.2422 182.617 83.6641 182.617C83.1953 182.617 82.7839 182.742 82.4297 182.992C82.0755 183.242 81.7995 183.57 81.6016 183.977V190H80.1562V181.547H81.5234ZM90.8516 181.547L90.8984 182.609C91.5443 181.797 92.388 181.391 93.4297 181.391C95.2161 181.391 96.1172 182.398 96.1328 184.414V190H94.6875V184.406C94.6823 183.797 94.5417 183.346 94.2656 183.055C93.9948 182.763 93.5703 182.617 92.9922 182.617C92.5234 182.617 92.112 182.742 91.7578 182.992C91.4036 183.242 91.1276 183.57 90.9297 183.977V190H89.4844V181.547H90.8516ZM100.383 190H98.9375V181.547H100.383V190ZM98.8203 179.305C98.8203 179.07 98.8906 178.872 99.0312 178.711C99.1771 178.549 99.3906 178.469 99.6719 178.469C99.9531 178.469 100.167 178.549 100.312 178.711C100.458 178.872 100.531 179.07 100.531 179.305C100.531 179.539 100.458 179.734 100.312 179.891C100.167 180.047 99.9531 180.125 99.6719 180.125C99.3906 180.125 99.1771 180.047 99.0312 179.891C98.8906 179.734 98.8203 179.539 98.8203 179.305ZM104.57 181.547L104.617 182.609C105.263 181.797 106.107 181.391 107.148 181.391C108.935 181.391 109.836 182.398 109.852 184.414V190H108.406V184.406C108.401 183.797 108.26 183.346 107.984 183.055C107.714 182.763 107.289 182.617 106.711 182.617C106.242 182.617 105.831 182.742 105.477 182.992C105.122 183.242 104.846 183.57 104.648 183.977V190H103.203V181.547H104.57ZM112.188 185.703C112.188 184.385 112.492 183.339 113.102 182.562C113.711 181.781 114.518 181.391 115.523 181.391C116.555 181.391 117.359 181.755 117.938 182.484L118.008 181.547H119.328V189.797C119.328 190.891 119.003 191.753 118.352 192.383C117.706 193.013 116.836 193.328 115.742 193.328C115.133 193.328 114.536 193.198 113.953 192.938C113.37 192.677 112.924 192.32 112.617 191.867L113.367 191C113.987 191.766 114.745 192.148 115.641 192.148C116.344 192.148 116.891 191.951 117.281 191.555C117.677 191.159 117.875 190.602 117.875 189.883V189.156C117.297 189.823 116.508 190.156 115.508 190.156C114.518 190.156 113.716 189.758 113.102 188.961C112.492 188.164 112.188 187.078 112.188 185.703ZM113.641 185.867C113.641 186.82 113.836 187.57 114.227 188.117C114.617 188.659 115.164 188.93 115.867 188.93C116.779 188.93 117.448 188.516 117.875 187.688V183.828C117.432 183.021 116.768 182.617 115.883 182.617C115.18 182.617 114.63 182.891 114.234 183.438C113.839 183.984 113.641 184.794 113.641 185.867ZM128.055 190H126.609V181.547H128.055V190ZM126.492 179.305C126.492 179.07 126.562 178.872 126.703 178.711C126.849 178.549 127.062 178.469 127.344 178.469C127.625 178.469 127.839 178.549 127.984 178.711C128.13 178.872 128.203 179.07 128.203 179.305C128.203 179.539 128.13 179.734 127.984 179.891C127.839 180.047 127.625 180.125 127.344 180.125C127.062 180.125 126.849 180.047 126.703 179.891C126.562 179.734 126.492 179.539 126.492 179.305ZM133.711 184.633L135.586 181.547H137.273L134.508 185.727L137.359 190H135.688L133.734 186.836L131.781 190H130.102L132.953 185.727L130.188 181.547H131.859L133.711 184.633ZM141.273 179.5V181.547H142.852V182.664H141.273V187.906C141.273 188.245 141.344 188.5 141.484 188.672C141.625 188.839 141.865 188.922 142.203 188.922C142.37 188.922 142.599 188.891 142.891 188.828V190C142.51 190.104 142.141 190.156 141.781 190.156C141.135 190.156 140.648 189.961 140.32 189.57C139.992 189.18 139.828 188.625 139.828 187.906V182.664H138.289V181.547H139.828V179.5H141.273ZM146.617 190H145.172V181.547H146.617V190ZM145.055 179.305C145.055 179.07 145.125 178.872 145.266 178.711C145.411 178.549 145.625 178.469 145.906 178.469C146.188 178.469 146.401 178.549 146.547 178.711C146.693 178.872 146.766 179.07 146.766 179.305C146.766 179.539 146.693 179.734 146.547 179.891C146.401 180.047 146.188 180.125 145.906 180.125C145.625 180.125 145.411 180.047 145.266 179.891C145.125 179.734 145.055 179.539 145.055 179.305ZM152.203 187.883L154.172 181.547H155.719L152.32 191.305C151.794 192.711 150.958 193.414 149.812 193.414L149.539 193.391L149 193.289V192.117L149.391 192.148C149.88 192.148 150.26 192.049 150.531 191.852C150.807 191.654 151.034 191.292 151.211 190.766L151.531 189.906L148.516 181.547H150.094L152.203 187.883ZM157.008 185.695C157.008 184.867 157.169 184.122 157.492 183.461C157.82 182.799 158.273 182.289 158.852 181.93C159.435 181.57 160.099 181.391 160.844 181.391C161.995 181.391 162.924 181.789 163.633 182.586C164.346 183.383 164.703 184.443 164.703 185.766V185.867C164.703 186.69 164.544 187.43 164.227 188.086C163.914 188.737 163.464 189.245 162.875 189.609C162.292 189.974 161.62 190.156 160.859 190.156C159.714 190.156 158.784 189.758 158.07 188.961C157.362 188.164 157.008 187.109 157.008 185.797V185.695ZM158.461 185.867C158.461 186.805 158.677 187.557 159.109 188.125C159.547 188.693 160.13 188.977 160.859 188.977C161.594 188.977 162.177 188.69 162.609 188.117C163.042 187.539 163.258 186.732 163.258 185.695C163.258 184.768 163.036 184.018 162.594 183.445C162.156 182.867 161.573 182.578 160.844 182.578C160.13 182.578 159.555 182.862 159.117 183.43C158.68 183.997 158.461 184.81 158.461 185.867ZM171.102 182.844C170.883 182.807 170.646 182.789 170.391 182.789C169.443 182.789 168.799 183.193 168.461 184V190H167.016V181.547H168.422L168.445 182.523C168.919 181.768 169.591 181.391 170.461 181.391C170.742 181.391 170.956 181.427 171.102 181.5V182.844ZM174.508 190H173.062V181.547H174.508V190ZM172.945 179.305C172.945 179.07 173.016 178.872 173.156 178.711C173.302 178.549 173.516 178.469 173.797 178.469C174.078 178.469 174.292 178.549 174.438 178.711C174.583 178.872 174.656 179.07 174.656 179.305C174.656 179.539 174.583 179.734 174.438 179.891C174.292 180.047 174.078 180.125 173.797 180.125C173.516 180.125 173.302 180.047 173.156 179.891C173.016 179.734 172.945 179.539 172.945 179.305ZM180.094 187.883L182.062 181.547H183.609L180.211 191.305C179.685 192.711 178.849 193.414 177.703 193.414L177.43 193.391L176.891 193.289V192.117L177.281 192.148C177.771 192.148 178.151 192.049 178.422 191.852C178.698 191.654 178.924 191.292 179.102 190.766L179.422 189.906L176.406 181.547H177.984L180.094 187.883ZM191.32 182.57C191.961 181.784 192.794 181.391 193.82 181.391C195.607 181.391 196.508 182.398 196.523 184.414V190H195.078V184.406C195.073 183.797 194.932 183.346 194.656 183.055C194.385 182.763 193.961 182.617 193.383 182.617C192.914 182.617 192.503 182.742 192.148 182.992C191.794 183.242 191.518 183.57 191.32 183.977V190H189.875V178H191.32V182.57ZM204.406 189.164C203.844 189.826 203.018 190.156 201.93 190.156C201.029 190.156 200.341 189.896 199.867 189.375C199.398 188.849 199.161 188.073 199.156 187.047V181.547H200.602V187.008C200.602 188.289 201.122 188.93 202.164 188.93C203.268 188.93 204.003 188.518 204.367 187.695V181.547H205.812V190H204.438L204.406 189.164ZM208.164 185.703C208.164 184.406 208.471 183.365 209.086 182.578C209.701 181.786 210.505 181.391 211.5 181.391C212.49 181.391 213.273 181.729 213.852 182.406V178H215.297V190H213.969L213.898 189.094C213.32 189.802 212.516 190.156 211.484 190.156C210.505 190.156 209.706 189.755 209.086 188.953C208.471 188.151 208.164 187.104 208.164 185.812V185.703ZM209.609 185.867C209.609 186.826 209.807 187.576 210.203 188.117C210.599 188.659 211.146 188.93 211.844 188.93C212.76 188.93 213.43 188.518 213.852 187.695V183.812C213.419 183.016 212.755 182.617 211.859 182.617C211.151 182.617 210.599 182.891 210.203 183.438C209.807 183.984 209.609 184.794 209.609 185.867ZM223.266 189.164C222.703 189.826 221.878 190.156 220.789 190.156C219.888 190.156 219.201 189.896 218.727 189.375C218.258 188.849 218.021 188.073 218.016 187.047V181.547H219.461V187.008C219.461 188.289 219.982 188.93 221.023 188.93C222.128 188.93 222.862 188.518 223.227 187.695V181.547H224.672V190H223.297L223.266 189.164ZM227.023 185.703C227.023 184.406 227.331 183.365 227.945 182.578C228.56 181.786 229.365 181.391 230.359 181.391C231.349 181.391 232.133 181.729 232.711 182.406V178H234.156V190H232.828L232.758 189.094C232.18 189.802 231.375 190.156 230.344 190.156C229.365 190.156 228.565 189.755 227.945 188.953C227.331 188.151 227.023 187.104 227.023 185.812V185.703ZM228.469 185.867C228.469 186.826 228.667 187.576 229.062 188.117C229.458 188.659 230.005 188.93 230.703 188.93C231.62 188.93 232.289 188.518 232.711 187.695V183.812C232.279 183.016 231.615 182.617 230.719 182.617C230.01 182.617 229.458 182.891 229.062 183.438C228.667 183.984 228.469 184.794 228.469 185.867ZM238.477 190H237.031V181.547H238.477V190ZM236.914 179.305C236.914 179.07 236.984 178.872 237.125 178.711C237.271 178.549 237.484 178.469 237.766 178.469C238.047 178.469 238.26 178.549 238.406 178.711C238.552 178.872 238.625 179.07 238.625 179.305C238.625 179.539 238.552 179.734 238.406 179.891C238.26 180.047 238.047 180.125 237.766 180.125C237.484 180.125 237.271 180.047 237.125 179.891C236.984 179.734 236.914 179.539 236.914 179.305ZM240.953 185.703C240.953 184.385 241.258 183.339 241.867 182.562C242.477 181.781 243.284 181.391 244.289 181.391C245.32 181.391 246.125 181.755 246.703 182.484L246.773 181.547H248.094V189.797C248.094 190.891 247.768 191.753 247.117 192.383C246.471 193.013 245.602 193.328 244.508 193.328C243.898 193.328 243.302 193.198 242.719 192.938C242.135 192.677 241.69 192.32 241.383 191.867L242.133 191C242.753 191.766 243.51 192.148 244.406 192.148C245.109 192.148 245.656 191.951 246.047 191.555C246.443 191.159 246.641 190.602 246.641 189.883V189.156C246.062 189.823 245.273 190.156 244.273 190.156C243.284 190.156 242.482 189.758 241.867 188.961C241.258 188.164 240.953 187.078 240.953 185.703ZM242.406 185.867C242.406 186.82 242.602 187.57 242.992 188.117C243.383 188.659 243.93 188.93 244.633 188.93C245.544 188.93 246.214 188.516 246.641 187.688V183.828C246.198 183.021 245.534 182.617 244.648 182.617C243.945 182.617 243.396 182.891 243 183.438C242.604 183.984 242.406 184.794 242.406 185.867ZM256 190C255.917 189.833 255.849 189.536 255.797 189.109C255.125 189.807 254.323 190.156 253.391 190.156C252.557 190.156 251.872 189.922 251.336 189.453C250.805 188.979 250.539 188.38 250.539 187.656C250.539 186.776 250.872 186.094 251.539 185.609C252.211 185.12 253.154 184.875 254.367 184.875H255.773V184.211C255.773 183.706 255.622 183.305 255.32 183.008C255.018 182.706 254.573 182.555 253.984 182.555C253.469 182.555 253.036 182.685 252.688 182.945C252.339 183.206 252.164 183.521 252.164 183.891H250.711C250.711 183.469 250.859 183.062 251.156 182.672C251.458 182.276 251.865 181.964 252.375 181.734C252.891 181.505 253.456 181.391 254.07 181.391C255.044 181.391 255.807 181.635 256.359 182.125C256.911 182.609 257.198 183.279 257.219 184.133V188.023C257.219 188.799 257.318 189.417 257.516 189.875V190H256ZM253.602 188.898C254.055 188.898 254.484 188.781 254.891 188.547C255.297 188.312 255.591 188.008 255.773 187.633V185.898H254.641C252.87 185.898 251.984 186.417 251.984 187.453C251.984 187.906 252.135 188.26 252.438 188.516C252.74 188.771 253.128 188.898 253.602 188.898ZM266.406 183.609H267.492C268.174 183.599 268.711 183.419 269.102 183.07C269.492 182.721 269.688 182.25 269.688 181.656C269.688 180.323 269.023 179.656 267.695 179.656C267.07 179.656 266.57 179.836 266.195 180.195C265.826 180.549 265.641 181.021 265.641 181.609H264.195C264.195 180.708 264.523 179.961 265.18 179.367C265.841 178.768 266.68 178.469 267.695 178.469C268.768 178.469 269.609 178.753 270.219 179.32C270.828 179.888 271.133 180.677 271.133 181.688C271.133 182.182 270.971 182.661 270.648 183.125C270.331 183.589 269.896 183.935 269.344 184.164C269.969 184.362 270.451 184.69 270.789 185.148C271.133 185.607 271.305 186.167 271.305 186.828C271.305 187.849 270.971 188.659 270.305 189.258C269.638 189.857 268.771 190.156 267.703 190.156C266.635 190.156 265.766 189.867 265.094 189.289C264.427 188.711 264.094 187.948 264.094 187H265.547C265.547 187.599 265.742 188.078 266.133 188.438C266.523 188.797 267.047 188.977 267.703 188.977C268.401 188.977 268.935 188.794 269.305 188.43C269.674 188.065 269.859 187.542 269.859 186.859C269.859 186.198 269.656 185.69 269.25 185.336C268.844 184.982 268.258 184.799 267.492 184.789H266.406V183.609ZM279.977 190H278.531V181.547H279.977V190ZM278.414 179.305C278.414 179.07 278.484 178.872 278.625 178.711C278.771 178.549 278.984 178.469 279.266 178.469C279.547 178.469 279.76 178.549 279.906 178.711C280.052 178.872 280.125 179.07 280.125 179.305C280.125 179.539 280.052 179.734 279.906 179.891C279.76 180.047 279.547 180.125 279.266 180.125C278.984 180.125 278.771 180.047 278.625 179.891C278.484 179.734 278.414 179.539 278.414 179.305ZM287.719 187.758C287.719 187.367 287.57 187.065 287.273 186.852C286.982 186.633 286.469 186.445 285.734 186.289C285.005 186.133 284.424 185.945 283.992 185.727C283.565 185.508 283.247 185.247 283.039 184.945C282.836 184.643 282.734 184.284 282.734 183.867C282.734 183.174 283.026 182.589 283.609 182.109C284.198 181.63 284.948 181.391 285.859 181.391C286.818 181.391 287.594 181.638 288.188 182.133C288.786 182.628 289.086 183.26 289.086 184.031H287.633C287.633 183.635 287.464 183.294 287.125 183.008C286.792 182.721 286.37 182.578 285.859 182.578C285.333 182.578 284.922 182.693 284.625 182.922C284.328 183.151 284.18 183.451 284.18 183.82C284.18 184.169 284.318 184.432 284.594 184.609C284.87 184.786 285.367 184.956 286.086 185.117C286.81 185.279 287.396 185.471 287.844 185.695C288.292 185.919 288.622 186.19 288.836 186.508C289.055 186.82 289.164 187.203 289.164 187.656C289.164 188.411 288.862 189.018 288.258 189.477C287.654 189.93 286.87 190.156 285.906 190.156C285.229 190.156 284.63 190.036 284.109 189.797C283.589 189.557 283.18 189.224 282.883 188.797C282.591 188.365 282.445 187.898 282.445 187.398H283.891C283.917 187.883 284.109 188.268 284.469 188.555C284.833 188.836 285.312 188.977 285.906 188.977C286.453 188.977 286.891 188.867 287.219 188.648C287.552 188.424 287.719 188.128 287.719 187.758ZM292.992 182.57C293.633 181.784 294.466 181.391 295.492 181.391C297.279 181.391 298.18 182.398 298.195 184.414V190H296.75V184.406C296.745 183.797 296.604 183.346 296.328 183.055C296.057 182.763 295.633 182.617 295.055 182.617C294.586 182.617 294.174 182.742 293.82 182.992C293.466 183.242 293.19 183.57 292.992 183.977V190H291.547V178H292.992V182.57ZM3.45312 210.086L2.54688 211.031V214H1.10156V202H2.54688V209.258L3.32031 208.328L5.95312 205.547H7.71094L4.42188 209.078L8.09375 214H6.39844L3.45312 210.086ZM14.9219 213.164C14.3594 213.826 13.5339 214.156 12.4453 214.156C11.5443 214.156 10.8568 213.896 10.3828 213.375C9.91406 212.849 9.67708 212.073 9.67188 211.047V205.547H11.1172V211.008C11.1172 212.289 11.638 212.93 12.6797 212.93C13.7839 212.93 14.5182 212.518 14.8828 211.695V205.547H16.3281V214H14.9531L14.9219 213.164ZM20.3984 205.547L20.4453 206.609C21.0911 205.797 21.9349 205.391 22.9766 205.391C24.763 205.391 25.6641 206.398 25.6797 208.414V214H24.2344V208.406C24.2292 207.797 24.0885 207.346 23.8125 207.055C23.5417 206.763 23.1172 206.617 22.5391 206.617C22.0703 206.617 21.6589 206.742 21.3047 206.992C20.9505 207.242 20.6745 207.57 20.4766 207.977V214H19.0312V205.547H20.3984ZM29.9297 214H28.4844V205.547H29.9297V214ZM28.3672 203.305C28.3672 203.07 28.4375 202.872 28.5781 202.711C28.724 202.549 28.9375 202.469 29.2188 202.469C29.5 202.469 29.7135 202.549 29.8594 202.711C30.0052 202.872 30.0781 203.07 30.0781 203.305C30.0781 203.539 30.0052 203.734 29.8594 203.891C29.7135 204.047 29.5 204.125 29.2188 204.125C28.9375 204.125 28.724 204.047 28.5781 203.891C28.4375 203.734 28.3672 203.539 28.3672 203.305ZM38.7891 214H37.3438V205.547H38.7891V214ZM37.2266 203.305C37.2266 203.07 37.2969 202.872 37.4375 202.711C37.5833 202.549 37.7969 202.469 38.0781 202.469C38.3594 202.469 38.5729 202.549 38.7188 202.711C38.8646 202.872 38.9375 203.07 38.9375 203.305C38.9375 203.539 38.8646 203.734 38.7188 203.891C38.5729 204.047 38.3594 204.125 38.0781 204.125C37.7969 204.125 37.5833 204.047 37.4375 203.891C37.2969 203.734 37.2266 203.539 37.2266 203.305ZM45 212.977C45.5156 212.977 45.9661 212.82 46.3516 212.508C46.737 212.195 46.9505 211.805 46.9922 211.336H48.3594C48.3333 211.82 48.1667 212.281 47.8594 212.719C47.5521 213.156 47.1406 213.505 46.625 213.766C46.1146 214.026 45.5729 214.156 45 214.156C43.849 214.156 42.9323 213.773 42.25 213.008C41.5729 212.237 41.2344 211.185 41.2344 209.852V209.609C41.2344 208.786 41.3854 208.055 41.6875 207.414C41.9896 206.773 42.4219 206.276 42.9844 205.922C43.5521 205.568 44.2214 205.391 44.9922 205.391C45.9401 205.391 46.7266 205.674 47.3516 206.242C47.9818 206.81 48.3177 207.547 48.3594 208.453H46.9922C46.9505 207.906 46.7422 207.458 46.3672 207.109C45.9974 206.755 45.5391 206.578 44.9922 206.578C44.2578 206.578 43.6875 206.844 43.2812 207.375C42.8802 207.901 42.6797 208.664 42.6797 209.664V209.938C42.6797 210.911 42.8802 211.661 43.2812 212.188C43.6823 212.714 44.2552 212.977 45 212.977ZM51.9297 206.57C52.5703 205.784 53.4036 205.391 54.4297 205.391C56.2161 205.391 57.1172 206.398 57.1328 208.414V214H55.6875V208.406C55.6823 207.797 55.5417 207.346 55.2656 207.055C54.9948 206.763 54.5703 206.617 53.9922 206.617C53.5234 206.617 53.112 206.742 52.7578 206.992C52.4036 207.242 52.1276 207.57 51.9297 207.977V214H50.4844V202H51.9297V206.57ZM61.3672 214H59.9219V205.547H61.3672V214ZM59.8047 203.305C59.8047 203.07 59.875 202.872 60.0156 202.711C60.1615 202.549 60.375 202.469 60.6562 202.469C60.9375 202.469 61.151 202.549 61.2969 202.711C61.4427 202.872 61.5156 203.07 61.5156 203.305C61.5156 203.539 61.4427 203.734 61.2969 203.891C61.151 204.047 60.9375 204.125 60.6562 204.125C60.375 204.125 60.1615 204.047 60.0156 203.891C59.875 203.734 59.8047 203.539 59.8047 203.305ZM63.8359 209.703C63.8359 208.406 64.1432 207.365 64.7578 206.578C65.3724 205.786 66.1771 205.391 67.1719 205.391C68.1615 205.391 68.9453 205.729 69.5234 206.406V202H70.9688V214H69.6406L69.5703 213.094C68.9922 213.802 68.1875 214.156 67.1562 214.156C66.1771 214.156 65.3776 213.755 64.7578 212.953C64.1432 212.151 63.8359 211.104 63.8359 209.812V209.703ZM65.2812 209.867C65.2812 210.826 65.4792 211.576 65.875 212.117C66.2708 212.659 66.8177 212.93 67.5156 212.93C68.4323 212.93 69.1016 212.518 69.5234 211.695V207.812C69.0911 207.016 68.4271 206.617 67.5312 206.617C66.8229 206.617 66.2708 206.891 65.875 207.438C65.4792 207.984 65.2812 208.794 65.2812 209.867ZM78.9375 214C78.8542 213.833 78.7865 213.536 78.7344 213.109C78.0625 213.807 77.2604 214.156 76.3281 214.156C75.4948 214.156 74.8099 213.922 74.2734 213.453C73.7422 212.979 73.4766 212.38 73.4766 211.656C73.4766 210.776 73.8099 210.094 74.4766 209.609C75.1484 209.12 76.0911 208.875 77.3047 208.875H78.7109V208.211C78.7109 207.706 78.5599 207.305 78.2578 207.008C77.9557 206.706 77.5104 206.555 76.9219 206.555C76.4062 206.555 75.974 206.685 75.625 206.945C75.276 207.206 75.1016 207.521 75.1016 207.891H73.6484C73.6484 207.469 73.7969 207.062 74.0938 206.672C74.3958 206.276 74.8021 205.964 75.3125 205.734C75.8281 205.505 76.3932 205.391 77.0078 205.391C77.9818 205.391 78.7448 205.635 79.2969 206.125C79.849 206.609 80.1354 207.279 80.1562 208.133V212.023C80.1562 212.799 80.2552 213.417 80.4531 213.875V214H78.9375ZM76.5391 212.898C76.9922 212.898 77.4219 212.781 77.8281 212.547C78.2344 212.312 78.5286 212.008 78.7109 211.633V209.898H77.5781C75.8073 209.898 74.9219 210.417 74.9219 211.453C74.9219 211.906 75.0729 212.26 75.375 212.516C75.6771 212.771 76.0651 212.898 76.5391 212.898ZM82.875 216.266L82.0547 215.703C82.5443 215.021 82.7995 214.318 82.8203 213.594V212.289H84.2344V213.422C84.2344 213.948 84.1042 214.474 83.8438 215C83.5885 215.526 83.2656 215.948 82.875 216.266ZM93.8672 208.633L95.7422 205.547H97.4297L94.6641 209.727L97.5156 214H95.8438L93.8906 210.836L91.9375 214H90.2578L93.1094 209.727L90.3438 205.547H92.0156L93.8672 208.633ZM104.688 214C104.604 213.833 104.536 213.536 104.484 213.109C103.812 213.807 103.01 214.156 102.078 214.156C101.245 214.156 100.56 213.922 100.023 213.453C99.4922 212.979 99.2266 212.38 99.2266 211.656C99.2266 210.776 99.5599 210.094 100.227 209.609C100.898 209.12 101.841 208.875 103.055 208.875H104.461V208.211C104.461 207.706 104.31 207.305 104.008 207.008C103.706 206.706 103.26 206.555 102.672 206.555C102.156 206.555 101.724 206.685 101.375 206.945C101.026 207.206 100.852 207.521 100.852 207.891H99.3984C99.3984 207.469 99.5469 207.062 99.8438 206.672C100.146 206.276 100.552 205.964 101.062 205.734C101.578 205.505 102.143 205.391 102.758 205.391C103.732 205.391 104.495 205.635 105.047 206.125C105.599 206.609 105.885 207.279 105.906 208.133V212.023C105.906 212.799 106.005 213.417 106.203 213.875V214H104.688ZM102.289 212.898C102.742 212.898 103.172 212.781 103.578 212.547C103.984 212.312 104.279 212.008 104.461 211.633V209.898H103.328C101.557 209.898 100.672 210.417 100.672 211.453C100.672 211.906 100.823 212.26 101.125 212.516C101.427 212.771 101.815 212.898 102.289 212.898ZM110.242 214H108.797V202H110.242V214ZM112.711 209.703C112.711 208.375 113.016 207.326 113.625 206.555C114.234 205.779 115.052 205.391 116.078 205.391C117.078 205.391 117.867 205.727 118.445 206.398L118.508 205.547H119.836V217.25H118.391V213.219C117.807 213.844 117.031 214.156 116.062 214.156C115.042 214.156 114.227 213.76 113.617 212.969C113.013 212.172 112.711 211.117 112.711 209.805V209.703ZM114.156 209.867C114.156 210.836 114.359 211.596 114.766 212.148C115.177 212.701 115.729 212.977 116.422 212.977C117.281 212.977 117.938 212.596 118.391 211.836V207.695C117.932 206.951 117.281 206.578 116.438 206.578C115.74 206.578 115.185 206.857 114.773 207.414C114.362 207.966 114.156 208.784 114.156 209.867ZM127.875 214C127.792 213.833 127.724 213.536 127.672 213.109C127 213.807 126.198 214.156 125.266 214.156C124.432 214.156 123.747 213.922 123.211 213.453C122.68 212.979 122.414 212.38 122.414 211.656C122.414 210.776 122.747 210.094 123.414 209.609C124.086 209.12 125.029 208.875 126.242 208.875H127.648V208.211C127.648 207.706 127.497 207.305 127.195 207.008C126.893 206.706 126.448 206.555 125.859 206.555C125.344 206.555 124.911 206.685 124.562 206.945C124.214 207.206 124.039 207.521 124.039 207.891H122.586C122.586 207.469 122.734 207.062 123.031 206.672C123.333 206.276 123.74 205.964 124.25 205.734C124.766 205.505 125.331 205.391 125.945 205.391C126.919 205.391 127.682 205.635 128.234 206.125C128.786 206.609 129.073 207.279 129.094 208.133V212.023C129.094 212.799 129.193 213.417 129.391 213.875V214H127.875ZM125.477 212.898C125.93 212.898 126.359 212.781 126.766 212.547C127.172 212.312 127.466 212.008 127.648 211.633V209.898H126.516C124.745 209.898 123.859 210.417 123.859 211.453C123.859 211.906 124.01 212.26 124.312 212.516C124.615 212.771 125.003 212.898 125.477 212.898ZM135.945 206.844C135.727 206.807 135.49 206.789 135.234 206.789C134.286 206.789 133.643 207.193 133.305 208V214H131.859V205.547H133.266L133.289 206.523C133.763 205.768 134.435 205.391 135.305 205.391C135.586 205.391 135.799 205.427 135.945 205.5V206.844ZM137.242 209.695C137.242 208.867 137.404 208.122 137.727 207.461C138.055 206.799 138.508 206.289 139.086 205.93C139.669 205.57 140.333 205.391 141.078 205.391C142.229 205.391 143.159 205.789 143.867 206.586C144.581 207.383 144.938 208.443 144.938 209.766V209.867C144.938 210.69 144.779 211.43 144.461 212.086C144.148 212.737 143.698 213.245 143.109 213.609C142.526 213.974 141.854 214.156 141.094 214.156C139.948 214.156 139.018 213.758 138.305 212.961C137.596 212.164 137.242 211.109 137.242 209.797V209.695ZM138.695 209.867C138.695 210.805 138.911 211.557 139.344 212.125C139.781 212.693 140.365 212.977 141.094 212.977C141.828 212.977 142.411 212.69 142.844 212.117C143.276 211.539 143.492 210.732 143.492 209.695C143.492 208.768 143.271 208.018 142.828 207.445C142.391 206.867 141.807 206.578 141.078 206.578C140.365 206.578 139.789 206.862 139.352 207.43C138.914 207.997 138.695 208.81 138.695 209.867ZM158.875 209.867C158.875 211.159 158.578 212.198 157.984 212.984C157.391 213.766 156.594 214.156 155.594 214.156C154.526 214.156 153.701 213.779 153.117 213.023L153.047 214H151.719V202H153.164V206.477C153.747 205.753 154.552 205.391 155.578 205.391C156.604 205.391 157.409 205.779 157.992 206.555C158.581 207.331 158.875 208.393 158.875 209.742V209.867ZM157.43 209.703C157.43 208.719 157.24 207.958 156.859 207.422C156.479 206.885 155.932 206.617 155.219 206.617C154.266 206.617 153.581 207.06 153.164 207.945V211.602C153.607 212.487 154.297 212.93 155.234 212.93C155.927 212.93 156.466 212.661 156.852 212.125C157.237 211.589 157.43 210.781 157.43 209.703ZM166.422 213.164C165.859 213.826 165.034 214.156 163.945 214.156C163.044 214.156 162.357 213.896 161.883 213.375C161.414 212.849 161.177 212.073 161.172 211.047V205.547H162.617V211.008C162.617 212.289 163.138 212.93 164.18 212.93C165.284 212.93 166.018 212.518 166.383 211.695V205.547H167.828V214H166.453L166.422 213.164ZM173.297 211.883L175.266 205.547H176.812L173.414 215.305C172.888 216.711 172.052 217.414 170.906 217.414L170.633 217.391L170.094 217.289V216.117L170.484 216.148C170.974 216.148 171.354 216.049 171.625 215.852C171.901 215.654 172.128 215.292 172.305 214.766L172.625 213.906L169.609 205.547H171.188L173.297 211.883ZM183.828 213.164C183.266 213.826 182.44 214.156 181.352 214.156C180.451 214.156 179.763 213.896 179.289 213.375C178.82 212.849 178.583 212.073 178.578 211.047V205.547H180.023V211.008C180.023 212.289 180.544 212.93 181.586 212.93C182.69 212.93 183.424 212.518 183.789 211.695V205.547H185.234V214H183.859L183.828 213.164ZM192.023 206.844C191.805 206.807 191.568 206.789 191.312 206.789C190.365 206.789 189.721 207.193 189.383 208V214H187.938V205.547H189.344L189.367 206.523C189.841 205.768 190.513 205.391 191.383 205.391C191.664 205.391 191.878 205.427 192.023 205.5V206.844ZM196.211 203.5V205.547H197.789V206.664H196.211V211.906C196.211 212.245 196.281 212.5 196.422 212.672C196.562 212.839 196.802 212.922 197.141 212.922C197.307 212.922 197.536 212.891 197.828 212.828V214C197.448 214.104 197.078 214.156 196.719 214.156C196.073 214.156 195.586 213.961 195.258 213.57C194.93 213.18 194.766 212.625 194.766 211.906V206.664H193.227V205.547H194.766V203.5H196.211ZM201.344 205.547L201.383 206.484C202.003 205.755 202.839 205.391 203.891 205.391C205.073 205.391 205.878 205.844 206.305 206.75C206.586 206.344 206.951 206.016 207.398 205.766C207.852 205.516 208.385 205.391 209 205.391C210.854 205.391 211.797 206.372 211.828 208.336V214H210.383V208.422C210.383 207.818 210.245 207.367 209.969 207.07C209.693 206.768 209.229 206.617 208.578 206.617C208.042 206.617 207.596 206.779 207.242 207.102C206.888 207.419 206.682 207.849 206.625 208.391V214H205.172V208.461C205.172 207.232 204.57 206.617 203.367 206.617C202.419 206.617 201.771 207.021 201.422 207.828V214H199.977V205.547H201.344ZM219.734 214C219.651 213.833 219.583 213.536 219.531 213.109C218.859 213.807 218.057 214.156 217.125 214.156C216.292 214.156 215.607 213.922 215.07 213.453C214.539 212.979 214.273 212.38 214.273 211.656C214.273 210.776 214.607 210.094 215.273 209.609C215.945 209.12 216.888 208.875 218.102 208.875H219.508V208.211C219.508 207.706 219.357 207.305 219.055 207.008C218.753 206.706 218.307 206.555 217.719 206.555C217.203 206.555 216.771 206.685 216.422 206.945C216.073 207.206 215.898 207.521 215.898 207.891H214.445C214.445 207.469 214.594 207.062 214.891 206.672C215.193 206.276 215.599 205.964 216.109 205.734C216.625 205.505 217.19 205.391 217.805 205.391C218.779 205.391 219.542 205.635 220.094 206.125C220.646 206.609 220.932 207.279 220.953 208.133V212.023C220.953 212.799 221.052 213.417 221.25 213.875V214H219.734ZM217.336 212.898C217.789 212.898 218.219 212.781 218.625 212.547C219.031 212.312 219.326 212.008 219.508 211.633V209.898H218.375C216.604 209.898 215.719 210.417 215.719 211.453C215.719 211.906 215.87 212.26 216.172 212.516C216.474 212.771 216.862 212.898 217.336 212.898ZM225.289 214H223.844V202H225.289V214ZM233.328 214C233.245 213.833 233.177 213.536 233.125 213.109C232.453 213.807 231.651 214.156 230.719 214.156C229.885 214.156 229.201 213.922 228.664 213.453C228.133 212.979 227.867 212.38 227.867 211.656C227.867 210.776 228.201 210.094 228.867 209.609C229.539 209.12 230.482 208.875 231.695 208.875H233.102V208.211C233.102 207.706 232.951 207.305 232.648 207.008C232.346 206.706 231.901 206.555 231.312 206.555C230.797 206.555 230.365 206.685 230.016 206.945C229.667 207.206 229.492 207.521 229.492 207.891H228.039C228.039 207.469 228.188 207.062 228.484 206.672C228.786 206.276 229.193 205.964 229.703 205.734C230.219 205.505 230.784 205.391 231.398 205.391C232.372 205.391 233.135 205.635 233.688 206.125C234.24 206.609 234.526 207.279 234.547 208.133V212.023C234.547 212.799 234.646 213.417 234.844 213.875V214H233.328ZM230.93 212.898C231.383 212.898 231.812 212.781 232.219 212.547C232.625 212.312 232.919 212.008 233.102 211.633V209.898H231.969C230.198 209.898 229.312 210.417 229.312 211.453C229.312 211.906 229.464 212.26 229.766 212.516C230.068 212.771 230.456 212.898 230.93 212.898ZM241.398 206.844C241.18 206.807 240.943 206.789 240.688 206.789C239.74 206.789 239.096 207.193 238.758 208V214H237.312V205.547H238.719L238.742 206.523C239.216 205.768 239.888 205.391 240.758 205.391C241.039 205.391 241.253 205.427 241.398 205.5V206.844ZM244.602 205.547L244.648 206.609C245.294 205.797 246.138 205.391 247.18 205.391C248.966 205.391 249.867 206.398 249.883 208.414V214H248.438V208.406C248.432 207.797 248.292 207.346 248.016 207.055C247.745 206.763 247.32 206.617 246.742 206.617C246.273 206.617 245.862 206.742 245.508 206.992C245.154 207.242 244.878 207.57 244.68 207.977V214H243.234V205.547H244.602ZM254.133 214H252.688V205.547H254.133V214ZM252.57 203.305C252.57 203.07 252.641 202.872 252.781 202.711C252.927 202.549 253.141 202.469 253.422 202.469C253.703 202.469 253.917 202.549 254.062 202.711C254.208 202.872 254.281 203.07 254.281 203.305C254.281 203.539 254.208 203.734 254.062 203.891C253.917 204.047 253.703 204.125 253.422 204.125C253.141 204.125 252.927 204.047 252.781 203.891C252.641 203.734 252.57 203.539 252.57 203.305ZM266.023 214H264.57V204.367L261.656 205.438V204.125L265.797 202.57H266.023V214ZM277.891 209.148C277.891 210.841 277.602 212.099 277.023 212.922C276.445 213.745 275.542 214.156 274.312 214.156C273.099 214.156 272.201 213.755 271.617 212.953C271.034 212.146 270.732 210.943 270.711 209.344V207.414C270.711 205.742 271 204.5 271.578 203.688C272.156 202.875 273.062 202.469 274.297 202.469C275.521 202.469 276.422 202.862 277 203.648C277.578 204.43 277.875 205.638 277.891 207.273V209.148ZM276.445 207.172C276.445 205.948 276.273 205.057 275.93 204.5C275.586 203.938 275.042 203.656 274.297 203.656C273.557 203.656 273.018 203.935 272.68 204.492C272.341 205.049 272.167 205.906 272.156 207.062V209.375C272.156 210.604 272.333 211.513 272.688 212.102C273.047 212.685 273.589 212.977 274.312 212.977C275.026 212.977 275.555 212.701 275.898 212.148C276.247 211.596 276.43 210.727 276.445 209.539V207.172ZM286.43 214H284.984V205.547H286.43V214ZM284.867 203.305C284.867 203.07 284.938 202.872 285.078 202.711C285.224 202.549 285.438 202.469 285.719 202.469C286 202.469 286.214 202.549 286.359 202.711C286.505 202.872 286.578 203.07 286.578 203.305C286.578 203.539 286.505 203.734 286.359 203.891C286.214 204.047 286 204.125 285.719 204.125C285.438 204.125 285.224 204.047 285.078 203.891C284.938 203.734 284.867 203.539 284.867 203.305ZM294.172 211.758C294.172 211.367 294.023 211.065 293.727 210.852C293.435 210.633 292.922 210.445 292.188 210.289C291.458 210.133 290.878 209.945 290.445 209.727C290.018 209.508 289.701 209.247 289.492 208.945C289.289 208.643 289.188 208.284 289.188 207.867C289.188 207.174 289.479 206.589 290.062 206.109C290.651 205.63 291.401 205.391 292.312 205.391C293.271 205.391 294.047 205.638 294.641 206.133C295.24 206.628 295.539 207.26 295.539 208.031H294.086C294.086 207.635 293.917 207.294 293.578 207.008C293.245 206.721 292.823 206.578 292.312 206.578C291.786 206.578 291.375 206.693 291.078 206.922C290.781 207.151 290.633 207.451 290.633 207.82C290.633 208.169 290.771 208.432 291.047 208.609C291.323 208.786 291.82 208.956 292.539 209.117C293.263 209.279 293.849 209.471 294.297 209.695C294.745 209.919 295.076 210.19 295.289 210.508C295.508 210.82 295.617 211.203 295.617 211.656C295.617 212.411 295.315 213.018 294.711 213.477C294.107 213.93 293.323 214.156 292.359 214.156C291.682 214.156 291.083 214.036 290.562 213.797C290.042 213.557 289.633 213.224 289.336 212.797C289.044 212.365 288.898 211.898 288.898 211.398H290.344C290.37 211.883 290.562 212.268 290.922 212.555C291.286 212.836 291.766 212.977 292.359 212.977C292.906 212.977 293.344 212.867 293.672 212.648C294.005 212.424 294.172 212.128 294.172 211.758ZM299.445 206.57C300.086 205.784 300.919 205.391 301.945 205.391C303.732 205.391 304.633 206.398 304.648 208.414V214H303.203V208.406C303.198 207.797 303.057 207.346 302.781 207.055C302.51 206.763 302.086 206.617 301.508 206.617C301.039 206.617 300.628 206.742 300.273 206.992C299.919 207.242 299.643 207.57 299.445 207.977V214H298V202H299.445V206.57ZM3.45312 234.086L2.54688 235.031V238H1.10156V226H2.54688V233.258L3.32031 232.328L5.95312 229.547H7.71094L4.42188 233.078L8.09375 238H6.39844L3.45312 234.086ZM14.9219 237.164C14.3594 237.826 13.5339 238.156 12.4453 238.156C11.5443 238.156 10.8568 237.896 10.3828 237.375C9.91406 236.849 9.67708 236.073 9.67188 235.047V229.547H11.1172V235.008C11.1172 236.289 11.638 236.93 12.6797 236.93C13.7839 236.93 14.5182 236.518 14.8828 235.695V229.547H16.3281V238H14.9531L14.9219 237.164ZM20.3984 229.547L20.4453 230.609C21.0911 229.797 21.9349 229.391 22.9766 229.391C24.763 229.391 25.6641 230.398 25.6797 232.414V238H24.2344V232.406C24.2292 231.797 24.0885 231.346 23.8125 231.055C23.5417 230.763 23.1172 230.617 22.5391 230.617C22.0703 230.617 21.6589 230.742 21.3047 230.992C20.9505 231.242 20.6745 231.57 20.4766 231.977V238H19.0312V229.547H20.3984ZM29.9297 238H28.4844V229.547H29.9297V238ZM28.3672 227.305C28.3672 227.07 28.4375 226.872 28.5781 226.711C28.724 226.549 28.9375 226.469 29.2188 226.469C29.5 226.469 29.7135 226.549 29.8594 226.711C30.0052 226.872 30.0781 227.07 30.0781 227.305C30.0781 227.539 30.0052 227.734 29.8594 227.891C29.7135 228.047 29.5 228.125 29.2188 228.125C28.9375 228.125 28.724 228.047 28.5781 227.891C28.4375 227.734 28.3672 227.539 28.3672 227.305ZM38.7891 238H37.3438V229.547H38.7891V238ZM37.2266 227.305C37.2266 227.07 37.2969 226.872 37.4375 226.711C37.5833 226.549 37.7969 226.469 38.0781 226.469C38.3594 226.469 38.5729 226.549 38.7188 226.711C38.8646 226.872 38.9375 227.07 38.9375 227.305C38.9375 227.539 38.8646 227.734 38.7188 227.891C38.5729 228.047 38.3594 228.125 38.0781 228.125C37.7969 228.125 37.5833 228.047 37.4375 227.891C37.2969 227.734 37.2266 227.539 37.2266 227.305ZM45 236.977C45.5156 236.977 45.9661 236.82 46.3516 236.508C46.737 236.195 46.9505 235.805 46.9922 235.336H48.3594C48.3333 235.82 48.1667 236.281 47.8594 236.719C47.5521 237.156 47.1406 237.505 46.625 237.766C46.1146 238.026 45.5729 238.156 45 238.156C43.849 238.156 42.9323 237.773 42.25 237.008C41.5729 236.237 41.2344 235.185 41.2344 233.852V233.609C41.2344 232.786 41.3854 232.055 41.6875 231.414C41.9896 230.773 42.4219 230.276 42.9844 229.922C43.5521 229.568 44.2214 229.391 44.9922 229.391C45.9401 229.391 46.7266 229.674 47.3516 230.242C47.9818 230.81 48.3177 231.547 48.3594 232.453H46.9922C46.9505 231.906 46.7422 231.458 46.3672 231.109C45.9974 230.755 45.5391 230.578 44.9922 230.578C44.2578 230.578 43.6875 230.844 43.2812 231.375C42.8802 231.901 42.6797 232.664 42.6797 233.664V233.938C42.6797 234.911 42.8802 235.661 43.2812 236.188C43.6823 236.714 44.2552 236.977 45 236.977ZM51.9297 230.57C52.5703 229.784 53.4036 229.391 54.4297 229.391C56.2161 229.391 57.1172 230.398 57.1328 232.414V238H55.6875V232.406C55.6823 231.797 55.5417 231.346 55.2656 231.055C54.9948 230.763 54.5703 230.617 53.9922 230.617C53.5234 230.617 53.112 230.742 52.7578 230.992C52.4036 231.242 52.1276 231.57 51.9297 231.977V238H50.4844V226H51.9297V230.57ZM61.3672 238H59.9219V229.547H61.3672V238ZM59.8047 227.305C59.8047 227.07 59.875 226.872 60.0156 226.711C60.1615 226.549 60.375 226.469 60.6562 226.469C60.9375 226.469 61.151 226.549 61.2969 226.711C61.4427 226.872 61.5156 227.07 61.5156 227.305C61.5156 227.539 61.4427 227.734 61.2969 227.891C61.151 228.047 60.9375 228.125 60.6562 228.125C60.375 228.125 60.1615 228.047 60.0156 227.891C59.875 227.734 59.8047 227.539 59.8047 227.305ZM63.8359 233.703C63.8359 232.406 64.1432 231.365 64.7578 230.578C65.3724 229.786 66.1771 229.391 67.1719 229.391C68.1615 229.391 68.9453 229.729 69.5234 230.406V226H70.9688V238H69.6406L69.5703 237.094C68.9922 237.802 68.1875 238.156 67.1562 238.156C66.1771 238.156 65.3776 237.755 64.7578 236.953C64.1432 236.151 63.8359 235.104 63.8359 233.812V233.703ZM65.2812 233.867C65.2812 234.826 65.4792 235.576 65.875 236.117C66.2708 236.659 66.8177 236.93 67.5156 236.93C68.4323 236.93 69.1016 236.518 69.5234 235.695V231.812C69.0911 231.016 68.4271 230.617 67.5312 230.617C66.8229 230.617 66.2708 230.891 65.875 231.438C65.4792 231.984 65.2812 232.794 65.2812 233.867ZM78.9375 238C78.8542 237.833 78.7865 237.536 78.7344 237.109C78.0625 237.807 77.2604 238.156 76.3281 238.156C75.4948 238.156 74.8099 237.922 74.2734 237.453C73.7422 236.979 73.4766 236.38 73.4766 235.656C73.4766 234.776 73.8099 234.094 74.4766 233.609C75.1484 233.12 76.0911 232.875 77.3047 232.875H78.7109V232.211C78.7109 231.706 78.5599 231.305 78.2578 231.008C77.9557 230.706 77.5104 230.555 76.9219 230.555C76.4062 230.555 75.974 230.685 75.625 230.945C75.276 231.206 75.1016 231.521 75.1016 231.891H73.6484C73.6484 231.469 73.7969 231.062 74.0938 230.672C74.3958 230.276 74.8021 229.964 75.3125 229.734C75.8281 229.505 76.3932 229.391 77.0078 229.391C77.9818 229.391 78.7448 229.635 79.2969 230.125C79.849 230.609 80.1354 231.279 80.1562 232.133V236.023C80.1562 236.799 80.2552 237.417 80.4531 237.875V238H78.9375ZM76.5391 236.898C76.9922 236.898 77.4219 236.781 77.8281 236.547C78.2344 236.312 78.5286 236.008 78.7109 235.633V233.898H77.5781C75.8073 233.898 74.9219 234.417 74.9219 235.453C74.9219 235.906 75.0729 236.26 75.375 236.516C75.6771 236.771 76.0651 236.898 76.5391 236.898ZM90.1562 235.883L92.125 229.547H93.6719L90.2734 239.305C89.7474 240.711 88.9115 241.414 87.7656 241.414L87.4922 241.391L86.9531 241.289V240.117L87.3438 240.148C87.8333 240.148 88.2135 240.049 88.4844 239.852C88.7604 239.654 88.987 239.292 89.1641 238.766L89.4844 237.906L86.4688 229.547H88.0469L90.1562 235.883ZM98.8672 238.156C97.7214 238.156 96.7891 237.781 96.0703 237.031C95.3516 236.276 94.9922 235.268 94.9922 234.008V233.742C94.9922 232.904 95.151 232.156 95.4688 231.5C95.7917 230.839 96.2396 230.323 96.8125 229.953C97.3906 229.578 98.0156 229.391 98.6875 229.391C99.7865 229.391 100.641 229.753 101.25 230.477C101.859 231.201 102.164 232.237 102.164 233.586V234.188H96.4375C96.4583 235.021 96.7005 235.695 97.1641 236.211C97.6328 236.721 98.2266 236.977 98.9453 236.977C99.4557 236.977 99.888 236.872 100.242 236.664C100.596 236.456 100.906 236.18 101.172 235.836L102.055 236.523C101.346 237.612 100.284 238.156 98.8672 238.156ZM98.6875 230.578C98.1042 230.578 97.6146 230.792 97.2188 231.219C96.8229 231.641 96.5781 232.234 96.4844 233H100.719V232.891C100.677 232.156 100.479 231.589 100.125 231.188C99.7708 230.781 99.2917 230.578 98.6875 230.578ZM106.305 227.5V229.547H107.883V230.664H106.305V235.906C106.305 236.245 106.375 236.5 106.516 236.672C106.656 236.839 106.896 236.922 107.234 236.922C107.401 236.922 107.63 236.891 107.922 236.828V238C107.542 238.104 107.172 238.156 106.812 238.156C106.167 238.156 105.68 237.961 105.352 237.57C105.023 237.18 104.859 236.625 104.859 235.906V230.664H103.32V229.547H104.859V227.5H106.305ZM112.438 234.086L111.531 235.031V238H110.086V226H111.531V233.258L112.305 232.328L114.938 229.547H116.695L113.406 233.078L117.078 238H115.383L112.438 234.086ZM123.906 238C123.823 237.833 123.755 237.536 123.703 237.109C123.031 237.807 122.229 238.156 121.297 238.156C120.464 238.156 119.779 237.922 119.242 237.453C118.711 236.979 118.445 236.38 118.445 235.656C118.445 234.776 118.779 234.094 119.445 233.609C120.117 233.12 121.06 232.875 122.273 232.875H123.68V232.211C123.68 231.706 123.529 231.305 123.227 231.008C122.924 230.706 122.479 230.555 121.891 230.555C121.375 230.555 120.943 230.685 120.594 230.945C120.245 231.206 120.07 231.521 120.07 231.891H118.617C118.617 231.469 118.766 231.062 119.062 230.672C119.365 230.276 119.771 229.964 120.281 229.734C120.797 229.505 121.362 229.391 121.977 229.391C122.951 229.391 123.714 229.635 124.266 230.125C124.818 230.609 125.104 231.279 125.125 232.133V236.023C125.125 236.799 125.224 237.417 125.422 237.875V238H123.906ZM121.508 236.898C121.961 236.898 122.391 236.781 122.797 236.547C123.203 236.312 123.497 236.008 123.68 235.633V233.898H122.547C120.776 233.898 119.891 234.417 119.891 235.453C119.891 235.906 120.042 236.26 120.344 236.516C120.646 236.771 121.034 236.898 121.508 236.898ZM129.25 236.82H134.195V238H127.484V236.938L132.148 230.742H127.555V229.547H133.961V230.57L129.25 236.82ZM137.898 238H136.453V229.547H137.898V238ZM136.336 227.305C136.336 227.07 136.406 226.872 136.547 226.711C136.693 226.549 136.906 226.469 137.188 226.469C137.469 226.469 137.682 226.549 137.828 226.711C137.974 226.872 138.047 227.07 138.047 227.305C138.047 227.539 137.974 227.734 137.828 227.891C137.682 228.047 137.469 228.125 137.188 228.125C136.906 228.125 136.693 228.047 136.547 227.891C136.406 227.734 136.336 227.539 136.336 227.305ZM147.875 233.867C147.875 235.159 147.578 236.198 146.984 236.984C146.391 237.766 145.594 238.156 144.594 238.156C143.526 238.156 142.701 237.779 142.117 237.023L142.047 238H140.719V226H142.164V230.477C142.747 229.753 143.552 229.391 144.578 229.391C145.604 229.391 146.409 229.779 146.992 230.555C147.581 231.331 147.875 232.393 147.875 233.742V233.867ZM146.43 233.703C146.43 232.719 146.24 231.958 145.859 231.422C145.479 230.885 144.932 230.617 144.219 230.617C143.266 230.617 142.581 231.06 142.164 231.945V235.602C142.607 236.487 143.297 236.93 144.234 236.93C144.927 236.93 145.466 236.661 145.852 236.125C146.237 235.589 146.43 234.781 146.43 233.703ZM161.828 233.867C161.828 235.159 161.531 236.198 160.938 236.984C160.344 237.766 159.547 238.156 158.547 238.156C157.479 238.156 156.654 237.779 156.07 237.023L156 238H154.672V226H156.117V230.477C156.701 229.753 157.505 229.391 158.531 229.391C159.557 229.391 160.362 229.779 160.945 230.555C161.534 231.331 161.828 232.393 161.828 233.742V233.867ZM160.383 233.703C160.383 232.719 160.193 231.958 159.812 231.422C159.432 230.885 158.885 230.617 158.172 230.617C157.219 230.617 156.534 231.06 156.117 231.945V235.602C156.56 236.487 157.25 236.93 158.188 236.93C158.88 236.93 159.419 236.661 159.805 236.125C160.19 235.589 160.383 234.781 160.383 233.703ZM167.664 238.156C166.518 238.156 165.586 237.781 164.867 237.031C164.148 236.276 163.789 235.268 163.789 234.008V233.742C163.789 232.904 163.948 232.156 164.266 231.5C164.589 230.839 165.036 230.323 165.609 229.953C166.188 229.578 166.812 229.391 167.484 229.391C168.583 229.391 169.438 229.753 170.047 230.477C170.656 231.201 170.961 232.237 170.961 233.586V234.188H165.234C165.255 235.021 165.497 235.695 165.961 236.211C166.43 236.721 167.023 236.977 167.742 236.977C168.253 236.977 168.685 236.872 169.039 236.664C169.393 236.456 169.703 236.18 169.969 235.836L170.852 236.523C170.143 237.612 169.081 238.156 167.664 238.156ZM167.484 230.578C166.901 230.578 166.411 230.792 166.016 231.219C165.62 231.641 165.375 232.234 165.281 233H169.516V232.891C169.474 232.156 169.276 231.589 168.922 231.188C168.568 230.781 168.089 230.578 167.484 230.578ZM177.227 230.844C177.008 230.807 176.771 230.789 176.516 230.789C175.568 230.789 174.924 231.193 174.586 232V238H173.141V229.547H174.547L174.57 230.523C175.044 229.768 175.716 229.391 176.586 229.391C176.867 229.391 177.081 229.427 177.227 229.5V230.844ZM180.633 238H179.188V229.547H180.633V238ZM179.07 227.305C179.07 227.07 179.141 226.872 179.281 226.711C179.427 226.549 179.641 226.469 179.922 226.469C180.203 226.469 180.417 226.549 180.562 226.711C180.708 226.872 180.781 227.07 180.781 227.305C180.781 227.539 180.708 227.734 180.562 227.891C180.417 228.047 180.203 228.125 179.922 228.125C179.641 228.125 179.427 228.047 179.281 227.891C179.141 227.734 179.07 227.539 179.07 227.305ZM185.023 238H183.578V226H185.023V238ZM193.062 238C192.979 237.833 192.911 237.536 192.859 237.109C192.188 237.807 191.385 238.156 190.453 238.156C189.62 238.156 188.935 237.922 188.398 237.453C187.867 236.979 187.602 236.38 187.602 235.656C187.602 234.776 187.935 234.094 188.602 233.609C189.273 233.12 190.216 232.875 191.43 232.875H192.836V232.211C192.836 231.706 192.685 231.305 192.383 231.008C192.081 230.706 191.635 230.555 191.047 230.555C190.531 230.555 190.099 230.685 189.75 230.945C189.401 231.206 189.227 231.521 189.227 231.891H187.773C187.773 231.469 187.922 231.062 188.219 230.672C188.521 230.276 188.927 229.964 189.438 229.734C189.953 229.505 190.518 229.391 191.133 229.391C192.107 229.391 192.87 229.635 193.422 230.125C193.974 230.609 194.26 231.279 194.281 232.133V236.023C194.281 236.799 194.38 237.417 194.578 237.875V238H193.062ZM190.664 236.898C191.117 236.898 191.547 236.781 191.953 236.547C192.359 236.312 192.654 236.008 192.836 235.633V233.898H191.703C189.932 233.898 189.047 234.417 189.047 235.453C189.047 235.906 189.198 236.26 189.5 236.516C189.802 236.771 190.19 236.898 190.664 236.898ZM196.695 233.703C196.695 232.406 197.003 231.365 197.617 230.578C198.232 229.786 199.036 229.391 200.031 229.391C201.021 229.391 201.805 229.729 202.383 230.406V226H203.828V238H202.5L202.43 237.094C201.852 237.802 201.047 238.156 200.016 238.156C199.036 238.156 198.237 237.755 197.617 236.953C197.003 236.151 196.695 235.104 196.695 233.812V233.703ZM198.141 233.867C198.141 234.826 198.339 235.576 198.734 236.117C199.13 236.659 199.677 236.93 200.375 236.93C201.292 236.93 201.961 236.518 202.383 235.695V231.812C201.951 231.016 201.286 230.617 200.391 230.617C199.682 230.617 199.13 230.891 198.734 231.438C198.339 231.984 198.141 232.794 198.141 233.867ZM208.148 238H206.703V229.547H208.148V238ZM206.586 227.305C206.586 227.07 206.656 226.872 206.797 226.711C206.943 226.549 207.156 226.469 207.438 226.469C207.719 226.469 207.932 226.549 208.078 226.711C208.224 226.872 208.297 227.07 208.297 227.305C208.297 227.539 208.224 227.734 208.078 227.891C207.932 228.047 207.719 228.125 207.438 228.125C207.156 228.125 206.943 228.047 206.797 227.891C206.656 227.734 206.586 227.539 206.586 227.305ZM211 237.242C211 236.992 211.073 236.784 211.219 236.617C211.37 236.451 211.594 236.367 211.891 236.367C212.188 236.367 212.411 236.451 212.562 236.617C212.719 236.784 212.797 236.992 212.797 237.242C212.797 237.482 212.719 237.682 212.562 237.844C212.411 238.005 212.188 238.086 211.891 238.086C211.594 238.086 211.37 238.005 211.219 237.844C211.073 237.682 211 237.482 211 237.242Z" fill="black"/>
</svg>
