<svg width="341" height="245" viewBox="0 0 341 245" fill="none" xmlns="http://www.w3.org/2000/svg">
<circle cx="51" cy="50" r="50" fill="#FF7500" fill-opacity="0.2"/>
<path fill-rule="evenodd" clip-rule="evenodd" d="M37 27.6C38.5464 27.6 39.8 28.8536 39.8 30.4V33.2H42.6C44.1464 33.2 45.4 34.4536 45.4 36C45.4 37.5464 44.1464 38.8 42.6 38.8H39.8V41.6C39.8 43.1464 38.5464 44.4 37 44.4C35.4536 44.4 34.2 43.1464 34.2 41.6V38.8H31.4C29.8536 38.8 28.6 37.5464 28.6 36C28.6 34.4536 29.8536 33.2 31.4 33.2H34.2V30.4C34.2 28.8536 35.4536 27.6 37 27.6ZM37 55.6C38.5464 55.6 39.8 56.8536 39.8 58.4V61.2H42.6C44.1464 61.2 45.4 62.4536 45.4 64C45.4 65.5464 44.1464 66.8 42.6 66.8H39.8V69.6C39.8 71.1464 38.5464 72.4 37 72.4C35.4536 72.4 34.2 71.1464 34.2 69.6V66.8H31.4C29.8536 66.8 28.6 65.5464 28.6 64C28.6 62.4536 29.8536 61.2 31.4 61.2H34.2V58.4C34.2 56.8536 35.4536 55.6 37 55.6Z" fill="#FF7500"/>
<path fill-rule="evenodd" clip-rule="evenodd" d="M56.5999 27.6C57.8703 27.6 58.9815 28.4553 59.3066 29.6835L62.6084 42.157L71.9991 47.5747C72.8658 48.0747 73.3999 48.9993 73.3999 50C73.3999 51.0006 72.8658 51.9252 71.9991 52.4253L62.6084 57.843L59.3066 70.3165C58.9815 71.5446 57.8703 72.4 56.5999 72.4C55.3294 72.4 54.2182 71.5446 53.8931 70.3165L50.5913 57.843L41.2008 52.4253C40.334 51.9252 39.8 51.0006 39.8 50C39.8 48.9993 40.334 48.0747 41.2008 47.5747L50.5913 42.157L53.8931 29.6835C54.2182 28.4553 55.3294 27.6 56.5999 27.6Z" fill="#FF7500"/>
<path d="M11.1836 147.617H5.81641V152.141H12.168V155H2.37109V137.938H12.1445V140.809H5.81641V144.84H11.1836V147.617ZM17.5312 142.32L17.625 143.574C18.375 142.582 19.3555 142.086 20.5664 142.086C22.7461 142.086 23.8672 143.613 23.9297 146.668V155H20.6016V146.914C20.6016 146.195 20.4922 145.676 20.2734 145.355C20.0625 145.027 19.6875 144.863 19.1484 144.863C18.5469 144.863 18.0781 145.172 17.7422 145.789V155H14.4141V142.32H17.5312ZM26.4102 148.273C26.4102 146.195 26.7852 144.645 27.5352 143.621C28.2852 142.598 29.3359 142.086 30.6875 142.086C31.8359 142.086 32.7227 142.539 33.3477 143.445L33.4766 142.32H36.4648V155C36.4648 156.617 36.0117 157.852 35.1055 158.703C34.1992 159.562 32.8984 159.992 31.2031 159.992C30.5078 159.992 29.7773 159.852 29.0117 159.57C28.2461 159.297 27.6758 158.945 27.3008 158.516L28.4141 156.219C28.7266 156.547 29.1328 156.812 29.6328 157.016C30.1328 157.227 30.6055 157.332 31.0508 157.332C31.793 157.332 32.3242 157.152 32.6445 156.793C32.9727 156.441 33.1406 155.871 33.1484 155.082V153.992C32.5156 154.82 31.6914 155.234 30.6758 155.234C29.3242 155.234 28.2773 154.711 27.5352 153.664C26.8008 152.609 26.4258 151.125 26.4102 149.211V148.273ZM29.7266 149.105C29.7266 150.277 29.8789 151.133 30.1836 151.672C30.4883 152.203 30.9727 152.469 31.6367 152.469C32.3164 152.469 32.8203 152.223 33.1484 151.73V145.672C32.8047 145.133 32.3086 144.863 31.6602 144.863C31.0039 144.863 30.5156 145.133 30.1953 145.672C29.8828 146.211 29.7266 147.078 29.7266 148.273V149.105ZM51.0234 151.602C51.0234 151.32 50.8867 151.062 50.6133 150.828C50.3477 150.586 49.75 150.262 48.8203 149.855C47.4531 149.301 46.5117 148.727 45.9961 148.133C45.4883 147.539 45.2344 146.801 45.2344 145.918C45.2344 144.809 45.6328 143.895 46.4297 143.176C47.2344 142.449 48.2969 142.086 49.6172 142.086C51.0078 142.086 52.1211 142.445 52.957 143.164C53.793 143.883 54.2109 144.848 54.2109 146.059H50.8945C50.8945 145.027 50.4648 144.512 49.6055 144.512C49.2539 144.512 48.9648 144.621 48.7383 144.84C48.5117 145.059 48.3984 145.363 48.3984 145.754C48.3984 146.035 48.5234 146.285 48.7734 146.504C49.0234 146.715 49.6133 147.02 50.543 147.418C51.8945 147.918 52.8477 148.477 53.4023 149.094C53.9648 149.703 54.2461 150.496 54.2461 151.473C54.2461 152.605 53.8203 153.516 52.9688 154.203C52.1172 154.891 51 155.234 49.6172 155.234C48.6875 155.234 47.8672 155.055 47.1562 154.695C46.4453 154.328 45.8867 153.82 45.4805 153.172C45.082 152.523 44.8828 151.824 44.8828 151.074H48.0352C48.0508 151.652 48.1836 152.086 48.4336 152.375C48.6914 152.664 49.1094 152.809 49.6875 152.809C50.5781 152.809 51.0234 152.406 51.0234 151.602ZM62.832 155C62.7383 154.805 62.6445 154.477 62.5508 154.016C61.957 154.828 61.1523 155.234 60.1367 155.234C59.0742 155.234 58.1914 154.883 57.4883 154.18C56.793 153.477 56.4453 152.566 56.4453 151.449C56.4453 150.121 56.8672 149.094 57.7109 148.367C58.5625 147.641 59.7852 147.27 61.3789 147.254H62.3867V146.234C62.3867 145.664 62.2891 145.262 62.0938 145.027C61.8984 144.793 61.6133 144.676 61.2383 144.676C60.4102 144.676 59.9961 145.16 59.9961 146.129H56.6797C56.6797 144.957 57.1172 143.992 57.9922 143.234C58.875 142.469 59.9883 142.086 61.332 142.086C62.7227 142.086 63.7969 142.449 64.5547 143.176C65.3203 143.895 65.7031 144.926 65.7031 146.27V152.234C65.7188 153.328 65.875 154.184 66.1719 154.801V155H62.832ZM60.875 152.633C61.2422 152.633 61.5547 152.559 61.8125 152.41C62.0703 152.262 62.2617 152.086 62.3867 151.883V149.246H61.5898C61.0273 149.246 60.582 149.426 60.2539 149.785C59.9336 150.145 59.7734 150.625 59.7734 151.227C59.7734 152.164 60.1406 152.633 60.875 152.633ZM74.8633 145.52L73.7617 145.426C72.8555 145.426 72.2422 145.824 71.9219 146.621V155H68.5938V142.32H71.7227L71.8164 143.691C72.3398 142.621 73.0625 142.086 73.9844 142.086C74.3594 142.086 74.6641 142.137 74.8984 142.238L74.8633 145.52ZM82.7461 155C82.6523 154.805 82.5586 154.477 82.4648 154.016C81.8711 154.828 81.0664 155.234 80.0508 155.234C78.9883 155.234 78.1055 154.883 77.4023 154.18C76.707 153.477 76.3594 152.566 76.3594 151.449C76.3594 150.121 76.7812 149.094 77.625 148.367C78.4766 147.641 79.6992 147.27 81.293 147.254H82.3008V146.234C82.3008 145.664 82.2031 145.262 82.0078 145.027C81.8125 144.793 81.5273 144.676 81.1523 144.676C80.3242 144.676 79.9102 145.16 79.9102 146.129H76.5938C76.5938 144.957 77.0312 143.992 77.9062 143.234C78.7891 142.469 79.9023 142.086 81.2461 142.086C82.6367 142.086 83.7109 142.449 84.4688 143.176C85.2344 143.895 85.6172 144.926 85.6172 146.27V152.234C85.6328 153.328 85.7891 154.184 86.0859 154.801V155H82.7461ZM80.7891 152.633C81.1562 152.633 81.4688 152.559 81.7266 152.41C81.9844 152.262 82.1758 152.086 82.3008 151.883V149.246H81.5039C80.9414 149.246 80.4961 149.426 80.168 149.785C79.8477 150.145 79.6875 150.625 79.6875 151.227C79.6875 152.164 80.0547 152.633 80.7891 152.633ZM98.7578 150.113L97.8672 151.109V155H94.5508V137H97.8672V146.727L98.2773 146.117L100.574 142.32H104.523L100.844 147.547L104.875 155H101.078L98.7578 150.113ZM110.016 155H106.688V142.32H110.016V155ZM106.535 139.039C106.535 138.523 106.699 138.102 107.027 137.773C107.355 137.445 107.793 137.281 108.34 137.281C108.887 137.281 109.324 137.445 109.652 137.773C109.98 138.102 110.145 138.523 110.145 139.039C110.145 139.547 109.98 139.969 109.652 140.305C109.332 140.641 108.895 140.809 108.34 140.809C107.785 140.809 107.344 140.641 107.016 140.305C106.695 139.969 106.535 139.547 106.535 139.039ZM116.938 139.203V142.32H118.637V144.816H116.938V151.109C116.938 151.609 117.004 151.953 117.137 152.141C117.277 152.328 117.543 152.422 117.934 152.422C118.254 152.422 118.516 152.395 118.719 152.34L118.695 154.918C118.133 155.129 117.523 155.234 116.867 155.234C114.727 155.234 113.645 154.008 113.621 151.555V144.816H112.156V142.32H113.621V139.203H116.938ZM120.227 148.25C120.227 146.328 120.68 144.82 121.586 143.727C122.492 142.633 123.746 142.086 125.348 142.086C126.965 142.086 128.227 142.633 129.133 143.727C130.039 144.82 130.492 146.336 130.492 148.273V149.082C130.492 151.012 130.043 152.52 129.145 153.605C128.246 154.691 126.988 155.234 125.371 155.234C123.746 155.234 122.48 154.691 121.574 153.605C120.676 152.512 120.227 150.996 120.227 149.059V148.25ZM123.555 149.082C123.555 151.348 124.16 152.48 125.371 152.48C126.488 152.48 127.09 151.535 127.176 149.645L127.188 148.25C127.188 147.094 127.027 146.238 126.707 145.684C126.387 145.121 125.934 144.84 125.348 144.84C124.785 144.84 124.344 145.121 124.023 145.684C123.711 146.238 123.555 147.094 123.555 148.25V149.082ZM142.957 149.07C142.957 151.125 142.629 152.668 141.973 153.699C141.316 154.723 140.285 155.234 138.879 155.234C137.777 155.234 136.895 154.738 136.23 153.746L136.125 155H133.066V137H136.383V143.352C137.008 142.508 137.832 142.086 138.855 142.086C140.262 142.086 141.293 142.598 141.949 143.621C142.605 144.637 142.941 146.129 142.957 148.098V149.07ZM139.641 148.238C139.641 146.902 139.512 146.008 139.254 145.555C138.996 145.094 138.547 144.863 137.906 144.863C137.211 144.863 136.703 145.18 136.383 145.812V151.59C136.68 152.184 137.195 152.48 137.93 152.48C138.562 152.48 139 152.273 139.242 151.859C139.492 151.445 139.625 150.641 139.641 149.445V148.238ZM148.93 155H145.602V137H148.93V155ZM158.02 155C157.926 154.805 157.832 154.477 157.738 154.016C157.145 154.828 156.34 155.234 155.324 155.234C154.262 155.234 153.379 154.883 152.676 154.18C151.98 153.477 151.633 152.566 151.633 151.449C151.633 150.121 152.055 149.094 152.898 148.367C153.75 147.641 154.973 147.27 156.566 147.254H157.574V146.234C157.574 145.664 157.477 145.262 157.281 145.027C157.086 144.793 156.801 144.676 156.426 144.676C155.598 144.676 155.184 145.16 155.184 146.129H151.867C151.867 144.957 152.305 143.992 153.18 143.234C154.062 142.469 155.176 142.086 156.52 142.086C157.91 142.086 158.984 142.449 159.742 143.176C160.508 143.895 160.891 144.926 160.891 146.27V152.234C160.906 153.328 161.062 154.184 161.359 154.801V155H158.02ZM156.062 152.633C156.43 152.633 156.742 152.559 157 152.41C157.258 152.262 157.449 152.086 157.574 151.883V149.246H156.777C156.215 149.246 155.77 149.426 155.441 149.785C155.121 150.145 154.961 150.625 154.961 151.227C154.961 152.164 155.328 152.633 156.062 152.633ZM170.051 145.52L168.949 145.426C168.043 145.426 167.43 145.824 167.109 146.621V155H163.781V142.32H166.91L167.004 143.691C167.527 142.621 168.25 142.086 169.172 142.086C169.547 142.086 169.852 142.137 170.086 142.238L170.051 145.52Z" fill="black"/>
<path d="M10.1797 179.859H6.52344V190H5.03125V179.859H1.38281V178.625H10.1797V179.859ZM15.6328 182.844C15.4141 182.807 15.1771 182.789 14.9219 182.789C13.974 182.789 13.3307 183.193 12.9922 184V190H11.5469V181.547H12.9531L12.9766 182.523C13.4505 181.768 14.1224 181.391 14.9922 181.391C15.2734 181.391 15.487 181.427 15.6328 181.5V182.844ZM20.8203 190.156C19.6745 190.156 18.7422 189.781 18.0234 189.031C17.3047 188.276 16.9453 187.268 16.9453 186.008V185.742C16.9453 184.904 17.1042 184.156 17.4219 183.5C17.7448 182.839 18.1927 182.323 18.7656 181.953C19.3438 181.578 19.9688 181.391 20.6406 181.391C21.7396 181.391 22.5938 181.753 23.2031 182.477C23.8125 183.201 24.1172 184.237 24.1172 185.586V186.188H18.3906C18.4115 187.021 18.6536 187.695 19.1172 188.211C19.5859 188.721 20.1797 188.977 20.8984 188.977C21.4089 188.977 21.8411 188.872 22.1953 188.664C22.5495 188.456 22.8594 188.18 23.125 187.836L24.0078 188.523C23.2995 189.612 22.237 190.156 20.8203 190.156ZM20.6406 182.578C20.0573 182.578 19.5677 182.792 19.1719 183.219C18.776 183.641 18.5312 184.234 18.4375 185H22.6719V184.891C22.6302 184.156 22.4323 183.589 22.0781 183.188C21.724 182.781 21.2448 182.578 20.6406 182.578ZM27.6641 181.547L27.7109 182.609C28.3568 181.797 29.2005 181.391 30.2422 181.391C32.0286 181.391 32.9297 182.398 32.9453 184.414V190H31.5V184.406C31.4948 183.797 31.3542 183.346 31.0781 183.055C30.8073 182.763 30.3828 182.617 29.8047 182.617C29.3359 182.617 28.9245 182.742 28.5703 182.992C28.2161 183.242 27.9401 183.57 27.7422 183.977V190H26.2969V181.547H27.6641ZM35.2734 185.703C35.2734 184.406 35.5807 183.365 36.1953 182.578C36.8099 181.786 37.6146 181.391 38.6094 181.391C39.599 181.391 40.3828 181.729 40.9609 182.406V178H42.4062V190H41.0781L41.0078 189.094C40.4297 189.802 39.625 190.156 38.5938 190.156C37.6146 190.156 36.8151 189.755 36.1953 188.953C35.5807 188.151 35.2734 187.104 35.2734 185.812V185.703ZM36.7188 185.867C36.7188 186.826 36.9167 187.576 37.3125 188.117C37.7083 188.659 38.2552 188.93 38.9531 188.93C39.8698 188.93 40.5391 188.518 40.9609 187.695V183.812C40.5286 183.016 39.8646 182.617 38.9688 182.617C38.2604 182.617 37.7083 182.891 37.3125 183.438C36.9167 183.984 36.7188 184.794 36.7188 185.867ZM44.8047 185.703C44.8047 184.406 45.112 183.365 45.7266 182.578C46.3411 181.786 47.1458 181.391 48.1406 181.391C49.1302 181.391 49.9141 181.729 50.4922 182.406V178H51.9375V190H50.6094L50.5391 189.094C49.9609 189.802 49.1562 190.156 48.125 190.156C47.1458 190.156 46.3464 189.755 45.7266 188.953C45.112 188.151 44.8047 187.104 44.8047 185.812V185.703ZM46.25 185.867C46.25 186.826 46.4479 187.576 46.8438 188.117C47.2396 188.659 47.7865 188.93 48.4844 188.93C49.401 188.93 50.0703 188.518 50.4922 187.695V183.812C50.0599 183.016 49.3958 182.617 48.5 182.617C47.7917 182.617 47.2396 182.891 46.8438 183.438C46.4479 183.984 46.25 184.794 46.25 185.867ZM59.9062 190C59.8229 189.833 59.7552 189.536 59.7031 189.109C59.0312 189.807 58.2292 190.156 57.2969 190.156C56.4635 190.156 55.7786 189.922 55.2422 189.453C54.7109 188.979 54.4453 188.38 54.4453 187.656C54.4453 186.776 54.7786 186.094 55.4453 185.609C56.1172 185.12 57.0599 184.875 58.2734 184.875H59.6797V184.211C59.6797 183.706 59.5286 183.305 59.2266 183.008C58.9245 182.706 58.4792 182.555 57.8906 182.555C57.375 182.555 56.9427 182.685 56.5938 182.945C56.2448 183.206 56.0703 183.521 56.0703 183.891H54.6172C54.6172 183.469 54.7656 183.062 55.0625 182.672C55.3646 182.276 55.7708 181.964 56.2812 181.734C56.7969 181.505 57.362 181.391 57.9766 181.391C58.9505 181.391 59.7135 181.635 60.2656 182.125C60.8177 182.609 61.1042 183.279 61.125 184.133V188.023C61.125 188.799 61.224 189.417 61.4219 189.875V190H59.9062ZM57.5078 188.898C57.9609 188.898 58.3906 188.781 58.7969 188.547C59.2031 188.312 59.4974 188.008 59.6797 187.633V185.898H58.5469C56.776 185.898 55.8906 186.417 55.8906 187.453C55.8906 187.906 56.0417 188.26 56.3438 188.516C56.6458 188.771 57.0339 188.898 57.5078 188.898ZM63.5469 185.703C63.5469 184.385 63.8516 183.339 64.4609 182.562C65.0703 181.781 65.8776 181.391 66.8828 181.391C67.9141 181.391 68.7188 181.755 69.2969 182.484L69.3672 181.547H70.6875V189.797C70.6875 190.891 70.362 191.753 69.7109 192.383C69.0651 193.013 68.1953 193.328 67.1016 193.328C66.4922 193.328 65.8958 193.198 65.3125 192.938C64.7292 192.677 64.2839 192.32 63.9766 191.867L64.7266 191C65.3464 191.766 66.1042 192.148 67 192.148C67.7031 192.148 68.25 191.951 68.6406 191.555C69.0365 191.159 69.2344 190.602 69.2344 189.883V189.156C68.6562 189.823 67.8672 190.156 66.8672 190.156C65.8776 190.156 65.0755 189.758 64.4609 188.961C63.8516 188.164 63.5469 187.078 63.5469 185.703ZM65 185.867C65 186.82 65.1953 187.57 65.5859 188.117C65.9766 188.659 66.5234 188.93 67.2266 188.93C68.138 188.93 68.8073 188.516 69.2344 187.688V183.828C68.7917 183.021 68.1276 182.617 67.2422 182.617C66.5391 182.617 65.9896 182.891 65.5938 183.438C65.1979 183.984 65 184.794 65 185.867ZM74.9453 190H73.5V181.547H74.9453V190ZM73.3828 179.305C73.3828 179.07 73.4531 178.872 73.5938 178.711C73.7396 178.549 73.9531 178.469 74.2344 178.469C74.5156 178.469 74.7292 178.549 74.875 178.711C75.0208 178.872 75.0938 179.07 75.0938 179.305C75.0938 179.539 75.0208 179.734 74.875 179.891C74.7292 180.047 74.5156 180.125 74.2344 180.125C73.9531 180.125 73.7396 180.047 73.5938 179.891C73.4531 179.734 73.3828 179.539 73.3828 179.305ZM85.7422 190.156C84.5964 190.156 83.6641 189.781 82.9453 189.031C82.2266 188.276 81.8672 187.268 81.8672 186.008V185.742C81.8672 184.904 82.026 184.156 82.3438 183.5C82.6667 182.839 83.1146 182.323 83.6875 181.953C84.2656 181.578 84.8906 181.391 85.5625 181.391C86.6615 181.391 87.5156 181.753 88.125 182.477C88.7344 183.201 89.0391 184.237 89.0391 185.586V186.188H83.3125C83.3333 187.021 83.5755 187.695 84.0391 188.211C84.5078 188.721 85.1016 188.977 85.8203 188.977C86.3307 188.977 86.763 188.872 87.1172 188.664C87.4714 188.456 87.7812 188.18 88.0469 187.836L88.9297 188.523C88.2214 189.612 87.1589 190.156 85.7422 190.156ZM85.5625 182.578C84.9792 182.578 84.4896 182.792 84.0938 183.219C83.6979 183.641 83.4531 184.234 83.3594 185H87.5938V184.891C87.5521 184.156 87.3542 183.589 87 183.188C86.6458 182.781 86.1667 182.578 85.5625 182.578ZM92.5859 181.547L92.6328 182.609C93.2786 181.797 94.1224 181.391 95.1641 181.391C96.9505 181.391 97.8516 182.398 97.8672 184.414V190H96.4219V184.406C96.4167 183.797 96.276 183.346 96 183.055C95.7292 182.763 95.3047 182.617 94.7266 182.617C94.2578 182.617 93.8464 182.742 93.4922 182.992C93.138 183.242 92.862 183.57 92.6641 183.977V190H91.2188V181.547H92.5859ZM100.203 185.703C100.203 184.385 100.508 183.339 101.117 182.562C101.727 181.781 102.534 181.391 103.539 181.391C104.57 181.391 105.375 181.755 105.953 182.484L106.023 181.547H107.344V189.797C107.344 190.891 107.018 191.753 106.367 192.383C105.721 193.013 104.852 193.328 103.758 193.328C103.148 193.328 102.552 193.198 101.969 192.938C101.385 192.677 100.94 192.32 100.633 191.867L101.383 191C102.003 191.766 102.76 192.148 103.656 192.148C104.359 192.148 104.906 191.951 105.297 191.555C105.693 191.159 105.891 190.602 105.891 189.883V189.156C105.312 189.823 104.523 190.156 103.523 190.156C102.534 190.156 101.732 189.758 101.117 188.961C100.508 188.164 100.203 187.078 100.203 185.703ZM101.656 185.867C101.656 186.82 101.852 187.57 102.242 188.117C102.633 188.659 103.18 188.93 103.883 188.93C104.794 188.93 105.464 188.516 105.891 187.688V183.828C105.448 183.021 104.784 182.617 103.898 182.617C103.195 182.617 102.646 182.891 102.25 183.438C101.854 183.984 101.656 184.794 101.656 185.867ZM114.117 185.695C114.117 184.867 114.279 184.122 114.602 183.461C114.93 182.799 115.383 182.289 115.961 181.93C116.544 181.57 117.208 181.391 117.953 181.391C119.104 181.391 120.034 181.789 120.742 182.586C121.456 183.383 121.812 184.443 121.812 185.766V185.867C121.812 186.69 121.654 187.43 121.336 188.086C121.023 188.737 120.573 189.245 119.984 189.609C119.401 189.974 118.729 190.156 117.969 190.156C116.823 190.156 115.893 189.758 115.18 188.961C114.471 188.164 114.117 187.109 114.117 185.797V185.695ZM115.57 185.867C115.57 186.805 115.786 187.557 116.219 188.125C116.656 188.693 117.24 188.977 117.969 188.977C118.703 188.977 119.286 188.69 119.719 188.117C120.151 187.539 120.367 186.732 120.367 185.695C120.367 184.768 120.146 184.018 119.703 183.445C119.266 182.867 118.682 182.578 117.953 182.578C117.24 182.578 116.664 182.862 116.227 183.43C115.789 183.997 115.57 184.81 115.57 185.867ZM125.484 181.547L125.523 182.484C126.143 181.755 126.979 181.391 128.031 181.391C129.214 181.391 130.018 181.844 130.445 182.75C130.727 182.344 131.091 182.016 131.539 181.766C131.992 181.516 132.526 181.391 133.141 181.391C134.995 181.391 135.938 182.372 135.969 184.336V190H134.523V184.422C134.523 183.818 134.385 183.367 134.109 183.07C133.833 182.768 133.37 182.617 132.719 182.617C132.182 182.617 131.737 182.779 131.383 183.102C131.029 183.419 130.823 183.849 130.766 184.391V190H129.312V184.461C129.312 183.232 128.711 182.617 127.508 182.617C126.56 182.617 125.911 183.021 125.562 183.828V190H124.117V181.547H125.484ZM140.016 181.547L140.055 182.484C140.674 181.755 141.51 181.391 142.562 181.391C143.745 181.391 144.549 181.844 144.977 182.75C145.258 182.344 145.622 182.016 146.07 181.766C146.523 181.516 147.057 181.391 147.672 181.391C149.526 181.391 150.469 182.372 150.5 184.336V190H149.055V184.422C149.055 183.818 148.917 183.367 148.641 183.07C148.365 182.768 147.901 182.617 147.25 182.617C146.714 182.617 146.268 182.779 145.914 183.102C145.56 183.419 145.354 183.849 145.297 184.391V190H143.844V184.461C143.844 183.232 143.242 182.617 142.039 182.617C141.091 182.617 140.443 183.021 140.094 183.828V190H138.648V181.547H140.016ZM158.406 190C158.323 189.833 158.255 189.536 158.203 189.109C157.531 189.807 156.729 190.156 155.797 190.156C154.964 190.156 154.279 189.922 153.742 189.453C153.211 188.979 152.945 188.38 152.945 187.656C152.945 186.776 153.279 186.094 153.945 185.609C154.617 185.12 155.56 184.875 156.773 184.875H158.18V184.211C158.18 183.706 158.029 183.305 157.727 183.008C157.424 182.706 156.979 182.555 156.391 182.555C155.875 182.555 155.443 182.685 155.094 182.945C154.745 183.206 154.57 183.521 154.57 183.891H153.117C153.117 183.469 153.266 183.062 153.562 182.672C153.865 182.276 154.271 181.964 154.781 181.734C155.297 181.505 155.862 181.391 156.477 181.391C157.451 181.391 158.214 181.635 158.766 182.125C159.318 182.609 159.604 183.279 159.625 184.133V188.023C159.625 188.799 159.724 189.417 159.922 189.875V190H158.406ZM156.008 188.898C156.461 188.898 156.891 188.781 157.297 188.547C157.703 188.312 157.997 188.008 158.18 187.633V185.898H157.047C155.276 185.898 154.391 186.417 154.391 187.453C154.391 187.906 154.542 188.26 154.844 188.516C155.146 188.771 155.534 188.898 156.008 188.898ZM169.547 185.867C169.547 187.159 169.25 188.198 168.656 188.984C168.062 189.766 167.266 190.156 166.266 190.156C165.198 190.156 164.372 189.779 163.789 189.023L163.719 190H162.391V178H163.836V182.477C164.419 181.753 165.224 181.391 166.25 181.391C167.276 181.391 168.081 181.779 168.664 182.555C169.253 183.331 169.547 184.393 169.547 185.742V185.867ZM168.102 185.703C168.102 184.719 167.911 183.958 167.531 183.422C167.151 182.885 166.604 182.617 165.891 182.617C164.938 182.617 164.253 183.06 163.836 183.945V187.602C164.279 188.487 164.969 188.93 165.906 188.93C166.599 188.93 167.138 188.661 167.523 188.125C167.909 187.589 168.102 186.781 168.102 185.703ZM171.492 185.695C171.492 184.867 171.654 184.122 171.977 183.461C172.305 182.799 172.758 182.289 173.336 181.93C173.919 181.57 174.583 181.391 175.328 181.391C176.479 181.391 177.409 181.789 178.117 182.586C178.831 183.383 179.188 184.443 179.188 185.766V185.867C179.188 186.69 179.029 187.43 178.711 188.086C178.398 188.737 177.948 189.245 177.359 189.609C176.776 189.974 176.104 190.156 175.344 190.156C174.198 190.156 173.268 189.758 172.555 188.961C171.846 188.164 171.492 187.109 171.492 185.797V185.695ZM172.945 185.867C172.945 186.805 173.161 187.557 173.594 188.125C174.031 188.693 174.615 188.977 175.344 188.977C176.078 188.977 176.661 188.69 177.094 188.117C177.526 187.539 177.742 186.732 177.742 185.695C177.742 184.768 177.521 184.018 177.078 183.445C176.641 182.867 176.057 182.578 175.328 182.578C174.615 182.578 174.039 182.862 173.602 183.43C173.164 183.997 172.945 184.81 172.945 185.867ZM188.641 185.867C188.641 187.154 188.346 188.19 187.758 188.977C187.169 189.763 186.372 190.156 185.367 190.156C184.341 190.156 183.534 189.831 182.945 189.18V193.25H181.5V181.547H182.82L182.891 182.484C183.479 181.755 184.297 181.391 185.344 181.391C186.359 181.391 187.161 181.773 187.75 182.539C188.344 183.305 188.641 184.37 188.641 185.734V185.867ZM187.195 185.703C187.195 184.75 186.992 183.997 186.586 183.445C186.18 182.893 185.622 182.617 184.914 182.617C184.039 182.617 183.383 183.005 182.945 183.781V187.82C183.378 188.591 184.039 188.977 184.93 188.977C185.622 188.977 186.172 188.703 186.578 188.156C186.99 187.604 187.195 186.786 187.195 185.703ZM190.938 192.266L190.117 191.703C190.607 191.021 190.862 190.318 190.883 189.594V188.289H192.297V189.422C192.297 189.948 192.167 190.474 191.906 191C191.651 191.526 191.328 191.948 190.938 192.266ZM201.055 179.5V181.547H202.633V182.664H201.055V187.906C201.055 188.245 201.125 188.5 201.266 188.672C201.406 188.839 201.646 188.922 201.984 188.922C202.151 188.922 202.38 188.891 202.672 188.828V190C202.292 190.104 201.922 190.156 201.562 190.156C200.917 190.156 200.43 189.961 200.102 189.57C199.773 189.18 199.609 188.625 199.609 187.906V182.664H198.07V181.547H199.609V179.5H201.055ZM210.047 189.164C209.484 189.826 208.659 190.156 207.57 190.156C206.669 190.156 205.982 189.896 205.508 189.375C205.039 188.849 204.802 188.073 204.797 187.047V181.547H206.242V187.008C206.242 188.289 206.763 188.93 207.805 188.93C208.909 188.93 209.643 188.518 210.008 187.695V181.547H211.453V190H210.078L210.047 189.164ZM218.242 182.844C218.023 182.807 217.786 182.789 217.531 182.789C216.583 182.789 215.94 183.193 215.602 184V190H214.156V181.547H215.562L215.586 182.523C216.06 181.768 216.732 181.391 217.602 181.391C217.883 181.391 218.096 181.427 218.242 181.5V182.844ZM221.648 190H220.203V178H221.648V190ZM226.039 190H224.594V181.547H226.039V190ZM224.477 179.305C224.477 179.07 224.547 178.872 224.688 178.711C224.833 178.549 225.047 178.469 225.328 178.469C225.609 178.469 225.823 178.549 225.969 178.711C226.115 178.872 226.188 179.07 226.188 179.305C226.188 179.539 226.115 179.734 225.969 179.891C225.823 180.047 225.609 180.125 225.328 180.125C225.047 180.125 224.833 180.047 224.688 179.891C224.547 179.734 224.477 179.539 224.477 179.305ZM7.3125 214C7.22917 213.833 7.16146 213.536 7.10938 213.109C6.4375 213.807 5.63542 214.156 4.70312 214.156C3.86979 214.156 3.1849 213.922 2.64844 213.453C2.11719 212.979 1.85156 212.38 1.85156 211.656C1.85156 210.776 2.1849 210.094 2.85156 209.609C3.52344 209.12 4.46615 208.875 5.67969 208.875H7.08594V208.211C7.08594 207.706 6.9349 207.305 6.63281 207.008C6.33073 206.706 5.88542 206.555 5.29688 206.555C4.78125 206.555 4.34896 206.685 4 206.945C3.65104 207.206 3.47656 207.521 3.47656 207.891H2.02344C2.02344 207.469 2.17188 207.062 2.46875 206.672C2.77083 206.276 3.17708 205.964 3.6875 205.734C4.20312 205.505 4.76823 205.391 5.38281 205.391C6.35677 205.391 7.11979 205.635 7.67188 206.125C8.22396 206.609 8.51042 207.279 8.53125 208.133V212.023C8.53125 212.799 8.63021 213.417 8.82812 213.875V214H7.3125ZM4.91406 212.898C5.36719 212.898 5.79688 212.781 6.20312 212.547C6.60938 212.312 6.90365 212.008 7.08594 211.633V209.898H5.95312C4.18229 209.898 3.29688 210.417 3.29688 211.453C3.29688 211.906 3.44792 212.26 3.75 212.516C4.05208 212.771 4.4401 212.898 4.91406 212.898ZM16.5156 213.164C15.9531 213.826 15.1276 214.156 14.0391 214.156C13.138 214.156 12.4505 213.896 11.9766 213.375C11.5078 212.849 11.2708 212.073 11.2656 211.047V205.547H12.7109V211.008C12.7109 212.289 13.2318 212.93 14.2734 212.93C15.3776 212.93 16.112 212.518 16.4766 211.695V205.547H17.9219V214H16.5469L16.5156 213.164ZM20.2734 209.703C20.2734 208.406 20.5807 207.365 21.1953 206.578C21.8099 205.786 22.6146 205.391 23.6094 205.391C24.599 205.391 25.3828 205.729 25.9609 206.406V202H27.4062V214H26.0781L26.0078 213.094C25.4297 213.802 24.625 214.156 23.5938 214.156C22.6146 214.156 21.8151 213.755 21.1953 212.953C20.5807 212.151 20.2734 211.104 20.2734 209.812V209.703ZM21.7188 209.867C21.7188 210.826 21.9167 211.576 22.3125 212.117C22.7083 212.659 23.2552 212.93 23.9531 212.93C24.8698 212.93 25.5391 212.518 25.9609 211.695V207.812C25.5286 207.016 24.8646 206.617 23.9688 206.617C23.2604 206.617 22.7083 206.891 22.3125 207.438C21.9167 207.984 21.7188 208.794 21.7188 209.867ZM31.7266 214H30.2812V205.547H31.7266V214ZM30.1641 203.305C30.1641 203.07 30.2344 202.872 30.375 202.711C30.5208 202.549 30.7344 202.469 31.0156 202.469C31.2969 202.469 31.5104 202.549 31.6562 202.711C31.8021 202.872 31.875 203.07 31.875 203.305C31.875 203.539 31.8021 203.734 31.6562 203.891C31.5104 204.047 31.2969 204.125 31.0156 204.125C30.7344 204.125 30.5208 204.047 30.375 203.891C30.2344 203.734 30.1641 203.539 30.1641 203.305ZM36.5078 203.5V205.547H38.0859V206.664H36.5078V211.906C36.5078 212.245 36.5781 212.5 36.7188 212.672C36.8594 212.839 37.099 212.922 37.4375 212.922C37.6042 212.922 37.8333 212.891 38.125 212.828V214C37.7448 214.104 37.375 214.156 37.0156 214.156C36.3698 214.156 35.8828 213.961 35.5547 213.57C35.2266 213.18 35.0625 212.625 35.0625 211.906V206.664H33.5234V205.547H35.0625V203.5H36.5078ZM39.7422 209.695C39.7422 208.867 39.9036 208.122 40.2266 207.461C40.5547 206.799 41.0078 206.289 41.5859 205.93C42.1693 205.57 42.8333 205.391 43.5781 205.391C44.7292 205.391 45.6589 205.789 46.3672 206.586C47.0807 207.383 47.4375 208.443 47.4375 209.766V209.867C47.4375 210.69 47.2786 211.43 46.9609 212.086C46.6484 212.737 46.1979 213.245 45.6094 213.609C45.026 213.974 44.3542 214.156 43.5938 214.156C42.4479 214.156 41.5182 213.758 40.8047 212.961C40.0964 212.164 39.7422 211.109 39.7422 209.797V209.695ZM41.1953 209.867C41.1953 210.805 41.4115 211.557 41.8438 212.125C42.2812 212.693 42.8646 212.977 43.5938 212.977C44.3281 212.977 44.9115 212.69 45.3438 212.117C45.776 211.539 45.9922 210.732 45.9922 209.695C45.9922 208.768 45.7708 208.018 45.3281 207.445C44.8906 206.867 44.3073 206.578 43.5781 206.578C42.8646 206.578 42.2891 206.862 41.8516 207.43C41.4141 207.997 41.1953 208.81 41.1953 209.867ZM53.8359 206.844C53.6172 206.807 53.3802 206.789 53.125 206.789C52.1771 206.789 51.5339 207.193 51.1953 208V214H49.75V205.547H51.1562L51.1797 206.523C51.6536 205.768 52.3255 205.391 53.1953 205.391C53.4766 205.391 53.6901 205.427 53.8359 205.5V206.844ZM57.2422 214H55.7969V205.547H57.2422V214ZM55.6797 203.305C55.6797 203.07 55.75 202.872 55.8906 202.711C56.0365 202.549 56.25 202.469 56.5312 202.469C56.8125 202.469 57.026 202.549 57.1719 202.711C57.3177 202.872 57.3906 203.07 57.3906 203.305C57.3906 203.539 57.3177 203.734 57.1719 203.891C57.026 204.047 56.8125 204.125 56.5312 204.125C56.25 204.125 56.0365 204.047 55.8906 203.891C55.75 203.734 55.6797 203.539 55.6797 203.305ZM62.8281 211.883L64.7969 205.547H66.3438L62.9453 215.305C62.4193 216.711 61.5833 217.414 60.4375 217.414L60.1641 217.391L59.625 217.289V216.117L60.0156 216.148C60.5052 216.148 60.8854 216.049 61.1562 215.852C61.4323 215.654 61.6589 215.292 61.8359 214.766L62.1562 213.906L59.1406 205.547H60.7188L62.8281 211.883ZM73.2344 214C73.151 213.833 73.0833 213.536 73.0312 213.109C72.3594 213.807 71.5573 214.156 70.625 214.156C69.7917 214.156 69.1068 213.922 68.5703 213.453C68.0391 212.979 67.7734 212.38 67.7734 211.656C67.7734 210.776 68.1068 210.094 68.7734 209.609C69.4453 209.12 70.388 208.875 71.6016 208.875H73.0078V208.211C73.0078 207.706 72.8568 207.305 72.5547 207.008C72.2526 206.706 71.8073 206.555 71.2188 206.555C70.7031 206.555 70.2708 206.685 69.9219 206.945C69.5729 207.206 69.3984 207.521 69.3984 207.891H67.9453C67.9453 207.469 68.0938 207.062 68.3906 206.672C68.6927 206.276 69.099 205.964 69.6094 205.734C70.125 205.505 70.6901 205.391 71.3047 205.391C72.2786 205.391 73.0417 205.635 73.5938 206.125C74.1458 206.609 74.4323 207.279 74.4531 208.133V212.023C74.4531 212.799 74.5521 213.417 74.75 213.875V214H73.2344ZM70.8359 212.898C71.2891 212.898 71.7188 212.781 72.125 212.547C72.5312 212.312 72.8255 212.008 73.0078 211.633V209.898H71.875C70.1042 209.898 69.2188 210.417 69.2188 211.453C69.2188 211.906 69.3698 212.26 69.6719 212.516C69.974 212.771 70.362 212.898 70.8359 212.898ZM78.7891 214H77.3438V202H78.7891V214ZM86.8281 214C86.7448 213.833 86.6771 213.536 86.625 213.109C85.9531 213.807 85.151 214.156 84.2188 214.156C83.3854 214.156 82.7005 213.922 82.1641 213.453C81.6328 212.979 81.3672 212.38 81.3672 211.656C81.3672 210.776 81.7005 210.094 82.3672 209.609C83.0391 209.12 83.9818 208.875 85.1953 208.875H86.6016V208.211C86.6016 207.706 86.4505 207.305 86.1484 207.008C85.8464 206.706 85.401 206.555 84.8125 206.555C84.2969 206.555 83.8646 206.685 83.5156 206.945C83.1667 207.206 82.9922 207.521 82.9922 207.891H81.5391C81.5391 207.469 81.6875 207.062 81.9844 206.672C82.2865 206.276 82.6927 205.964 83.2031 205.734C83.7188 205.505 84.2839 205.391 84.8984 205.391C85.8724 205.391 86.6354 205.635 87.1875 206.125C87.7396 206.609 88.026 207.279 88.0469 208.133V212.023C88.0469 212.799 88.1458 213.417 88.3438 213.875V214H86.8281ZM84.4297 212.898C84.8828 212.898 85.3125 212.781 85.7188 212.547C86.125 212.312 86.4193 212.008 86.6016 211.633V209.898H85.4688C83.6979 209.898 82.8125 210.417 82.8125 211.453C82.8125 211.906 82.9635 212.26 83.2656 212.516C83.5677 212.771 83.9557 212.898 84.4297 212.898ZM94.8984 206.844C94.6797 206.807 94.4427 206.789 94.1875 206.789C93.2396 206.789 92.5964 207.193 92.2578 208V214H90.8125V205.547H92.2188L92.2422 206.523C92.7161 205.768 93.388 205.391 94.2578 205.391C94.5391 205.391 94.7526 205.427 94.8984 205.5V206.844ZM96.2344 209.703C96.2344 208.385 96.5391 207.339 97.1484 206.562C97.7578 205.781 98.5651 205.391 99.5703 205.391C100.602 205.391 101.406 205.755 101.984 206.484L102.055 205.547H103.375V213.797C103.375 214.891 103.049 215.753 102.398 216.383C101.753 217.013 100.883 217.328 99.7891 217.328C99.1797 217.328 98.5833 217.198 98 216.938C97.4167 216.677 96.9714 216.32 96.6641 215.867L97.4141 215C98.0339 215.766 98.7917 216.148 99.6875 216.148C100.391 216.148 100.938 215.951 101.328 215.555C101.724 215.159 101.922 214.602 101.922 213.883V213.156C101.344 213.823 100.555 214.156 99.5547 214.156C98.5651 214.156 97.763 213.758 97.1484 212.961C96.5391 212.164 96.2344 211.078 96.2344 209.703ZM97.6875 209.867C97.6875 210.82 97.8828 211.57 98.2734 212.117C98.6641 212.659 99.2109 212.93 99.9141 212.93C100.826 212.93 101.495 212.516 101.922 211.688V207.828C101.479 207.021 100.815 206.617 99.9297 206.617C99.2266 206.617 98.6771 206.891 98.2812 207.438C97.8854 207.984 97.6875 208.794 97.6875 209.867ZM111.281 214C111.198 213.833 111.13 213.536 111.078 213.109C110.406 213.807 109.604 214.156 108.672 214.156C107.839 214.156 107.154 213.922 106.617 213.453C106.086 212.979 105.82 212.38 105.82 211.656C105.82 210.776 106.154 210.094 106.82 209.609C107.492 209.12 108.435 208.875 109.648 208.875H111.055V208.211C111.055 207.706 110.904 207.305 110.602 207.008C110.299 206.706 109.854 206.555 109.266 206.555C108.75 206.555 108.318 206.685 107.969 206.945C107.62 207.206 107.445 207.521 107.445 207.891H105.992C105.992 207.469 106.141 207.062 106.438 206.672C106.74 206.276 107.146 205.964 107.656 205.734C108.172 205.505 108.737 205.391 109.352 205.391C110.326 205.391 111.089 205.635 111.641 206.125C112.193 206.609 112.479 207.279 112.5 208.133V212.023C112.5 212.799 112.599 213.417 112.797 213.875V214H111.281ZM108.883 212.898C109.336 212.898 109.766 212.781 110.172 212.547C110.578 212.312 110.872 212.008 111.055 211.633V209.898H109.922C108.151 209.898 107.266 210.417 107.266 211.453C107.266 211.906 107.417 212.26 107.719 212.516C108.021 212.771 108.409 212.898 108.883 212.898ZM121.094 205.547L121.133 206.484C121.753 205.755 122.589 205.391 123.641 205.391C124.823 205.391 125.628 205.844 126.055 206.75C126.336 206.344 126.701 206.016 127.148 205.766C127.602 205.516 128.135 205.391 128.75 205.391C130.604 205.391 131.547 206.372 131.578 208.336V214H130.133V208.422C130.133 207.818 129.995 207.367 129.719 207.07C129.443 206.768 128.979 206.617 128.328 206.617C127.792 206.617 127.346 206.779 126.992 207.102C126.638 207.419 126.432 207.849 126.375 208.391V214H124.922V208.461C124.922 207.232 124.32 206.617 123.117 206.617C122.169 206.617 121.521 207.021 121.172 207.828V214H119.727V205.547H121.094ZM133.883 209.695C133.883 208.867 134.044 208.122 134.367 207.461C134.695 206.799 135.148 206.289 135.727 205.93C136.31 205.57 136.974 205.391 137.719 205.391C138.87 205.391 139.799 205.789 140.508 206.586C141.221 207.383 141.578 208.443 141.578 209.766V209.867C141.578 210.69 141.419 211.43 141.102 212.086C140.789 212.737 140.339 213.245 139.75 213.609C139.167 213.974 138.495 214.156 137.734 214.156C136.589 214.156 135.659 213.758 134.945 212.961C134.237 212.164 133.883 211.109 133.883 209.797V209.695ZM135.336 209.867C135.336 210.805 135.552 211.557 135.984 212.125C136.422 212.693 137.005 212.977 137.734 212.977C138.469 212.977 139.052 212.69 139.484 212.117C139.917 211.539 140.133 210.732 140.133 209.695C140.133 208.768 139.911 208.018 139.469 207.445C139.031 206.867 138.448 206.578 137.719 206.578C137.005 206.578 136.43 206.862 135.992 207.43C135.555 207.997 135.336 208.81 135.336 209.867ZM143.367 205.828L142.547 205.266C143.031 204.589 143.281 203.875 143.297 203.125V202H144.727V203.016C144.721 203.536 144.591 204.057 144.336 204.578C144.086 205.094 143.763 205.51 143.367 205.828ZM148.789 214H147.344V202H148.789V214ZM153.102 205.547V214.977C153.102 216.602 152.365 217.414 150.891 217.414C150.573 217.414 150.279 217.367 150.008 217.273V216.117C150.174 216.159 150.393 216.18 150.664 216.18C150.987 216.18 151.232 216.091 151.398 215.914C151.57 215.742 151.656 215.44 151.656 215.008V205.547H153.102ZM151.508 203.305C151.508 203.076 151.578 202.88 151.719 202.719C151.865 202.552 152.076 202.469 152.352 202.469C152.633 202.469 152.846 202.549 152.992 202.711C153.138 202.872 153.211 203.07 153.211 203.305C153.211 203.539 153.138 203.734 152.992 203.891C152.846 204.047 152.633 204.125 152.352 204.125C152.07 204.125 151.859 204.047 151.719 203.891C151.578 203.734 151.508 203.539 151.508 203.305ZM161.156 214C161.073 213.833 161.005 213.536 160.953 213.109C160.281 213.807 159.479 214.156 158.547 214.156C157.714 214.156 157.029 213.922 156.492 213.453C155.961 212.979 155.695 212.38 155.695 211.656C155.695 210.776 156.029 210.094 156.695 209.609C157.367 209.12 158.31 208.875 159.523 208.875H160.93V208.211C160.93 207.706 160.779 207.305 160.477 207.008C160.174 206.706 159.729 206.555 159.141 206.555C158.625 206.555 158.193 206.685 157.844 206.945C157.495 207.206 157.32 207.521 157.32 207.891H155.867C155.867 207.469 156.016 207.062 156.312 206.672C156.615 206.276 157.021 205.964 157.531 205.734C158.047 205.505 158.612 205.391 159.227 205.391C160.201 205.391 160.964 205.635 161.516 206.125C162.068 206.609 162.354 207.279 162.375 208.133V212.023C162.375 212.799 162.474 213.417 162.672 213.875V214H161.156ZM158.758 212.898C159.211 212.898 159.641 212.781 160.047 212.547C160.453 212.312 160.747 212.008 160.93 211.633V209.898H159.797C158.026 209.898 157.141 210.417 157.141 211.453C157.141 211.906 157.292 212.26 157.594 212.516C157.896 212.771 158.284 212.898 158.758 212.898ZM166.711 214H165.266V202H166.711V214ZM171.102 214H169.656V202H171.102V214ZM179.141 214C179.057 213.833 178.99 213.536 178.938 213.109C178.266 213.807 177.464 214.156 176.531 214.156C175.698 214.156 175.013 213.922 174.477 213.453C173.945 212.979 173.68 212.38 173.68 211.656C173.68 210.776 174.013 210.094 174.68 209.609C175.352 209.12 176.294 208.875 177.508 208.875H178.914V208.211C178.914 207.706 178.763 207.305 178.461 207.008C178.159 206.706 177.714 206.555 177.125 206.555C176.609 206.555 176.177 206.685 175.828 206.945C175.479 207.206 175.305 207.521 175.305 207.891H173.852C173.852 207.469 174 207.062 174.297 206.672C174.599 206.276 175.005 205.964 175.516 205.734C176.031 205.505 176.596 205.391 177.211 205.391C178.185 205.391 178.948 205.635 179.5 206.125C180.052 206.609 180.339 207.279 180.359 208.133V212.023C180.359 212.799 180.458 213.417 180.656 213.875V214H179.141ZM176.742 212.898C177.195 212.898 177.625 212.781 178.031 212.547C178.438 212.312 178.732 212.008 178.914 211.633V209.898H177.781C176.01 209.898 175.125 210.417 175.125 211.453C175.125 211.906 175.276 212.26 175.578 212.516C175.88 212.771 176.268 212.898 176.742 212.898ZM184.492 205.547L184.539 206.609C185.185 205.797 186.029 205.391 187.07 205.391C188.857 205.391 189.758 206.398 189.773 208.414V214H188.328V208.406C188.323 207.797 188.182 207.346 187.906 207.055C187.635 206.763 187.211 206.617 186.633 206.617C186.164 206.617 185.753 206.742 185.398 206.992C185.044 207.242 184.768 207.57 184.57 207.977V214H183.125V205.547H184.492ZM192.109 209.703C192.109 208.385 192.414 207.339 193.023 206.562C193.633 205.781 194.44 205.391 195.445 205.391C196.477 205.391 197.281 205.755 197.859 206.484L197.93 205.547H199.25V213.797C199.25 214.891 198.924 215.753 198.273 216.383C197.628 217.013 196.758 217.328 195.664 217.328C195.055 217.328 194.458 217.198 193.875 216.938C193.292 216.677 192.846 216.32 192.539 215.867L193.289 215C193.909 215.766 194.667 216.148 195.562 216.148C196.266 216.148 196.812 215.951 197.203 215.555C197.599 215.159 197.797 214.602 197.797 213.883V213.156C197.219 213.823 196.43 214.156 195.43 214.156C194.44 214.156 193.638 213.758 193.023 212.961C192.414 212.164 192.109 211.078 192.109 209.703ZM193.562 209.867C193.562 210.82 193.758 211.57 194.148 212.117C194.539 212.659 195.086 212.93 195.789 212.93C196.701 212.93 197.37 212.516 197.797 211.688V207.828C197.354 207.021 196.69 206.617 195.805 206.617C195.102 206.617 194.552 206.891 194.156 207.438C193.76 207.984 193.562 208.794 193.562 209.867ZM207.156 214C207.073 213.833 207.005 213.536 206.953 213.109C206.281 213.807 205.479 214.156 204.547 214.156C203.714 214.156 203.029 213.922 202.492 213.453C201.961 212.979 201.695 212.38 201.695 211.656C201.695 210.776 202.029 210.094 202.695 209.609C203.367 209.12 204.31 208.875 205.523 208.875H206.93V208.211C206.93 207.706 206.779 207.305 206.477 207.008C206.174 206.706 205.729 206.555 205.141 206.555C204.625 206.555 204.193 206.685 203.844 206.945C203.495 207.206 203.32 207.521 203.32 207.891H201.867C201.867 207.469 202.016 207.062 202.312 206.672C202.615 206.276 203.021 205.964 203.531 205.734C204.047 205.505 204.612 205.391 205.227 205.391C206.201 205.391 206.964 205.635 207.516 206.125C208.068 206.609 208.354 207.279 208.375 208.133V212.023C208.375 212.799 208.474 213.417 208.672 213.875V214H207.156ZM204.758 212.898C205.211 212.898 205.641 212.781 206.047 212.547C206.453 212.312 206.747 212.008 206.93 211.633V209.898H205.797C204.026 209.898 203.141 210.417 203.141 211.453C203.141 211.906 203.292 212.26 203.594 212.516C203.896 212.771 204.284 212.898 204.758 212.898ZM212.508 205.547L212.555 206.609C213.201 205.797 214.044 205.391 215.086 205.391C216.872 205.391 217.773 206.398 217.789 208.414V214H216.344V208.406C216.339 207.797 216.198 207.346 215.922 207.055C215.651 206.763 215.227 206.617 214.648 206.617C214.18 206.617 213.768 206.742 213.414 206.992C213.06 207.242 212.784 207.57 212.586 207.977V214H211.141V205.547H212.508ZM226.383 206.57C227.023 205.784 227.857 205.391 228.883 205.391C230.669 205.391 231.57 206.398 231.586 208.414V214H230.141V208.406C230.135 207.797 229.995 207.346 229.719 207.055C229.448 206.763 229.023 206.617 228.445 206.617C227.977 206.617 227.565 206.742 227.211 206.992C226.857 207.242 226.581 207.57 226.383 207.977V214H224.938V202H226.383V206.57ZM239.469 214C239.385 213.833 239.318 213.536 239.266 213.109C238.594 213.807 237.792 214.156 236.859 214.156C236.026 214.156 235.341 213.922 234.805 213.453C234.273 212.979 234.008 212.38 234.008 211.656C234.008 210.776 234.341 210.094 235.008 209.609C235.68 209.12 236.622 208.875 237.836 208.875H239.242V208.211C239.242 207.706 239.091 207.305 238.789 207.008C238.487 206.706 238.042 206.555 237.453 206.555C236.938 206.555 236.505 206.685 236.156 206.945C235.807 207.206 235.633 207.521 235.633 207.891H234.18C234.18 207.469 234.328 207.062 234.625 206.672C234.927 206.276 235.333 205.964 235.844 205.734C236.359 205.505 236.924 205.391 237.539 205.391C238.513 205.391 239.276 205.635 239.828 206.125C240.38 206.609 240.667 207.279 240.688 208.133V212.023C240.688 212.799 240.786 213.417 240.984 213.875V214H239.469ZM237.07 212.898C237.523 212.898 237.953 212.781 238.359 212.547C238.766 212.312 239.06 212.008 239.242 211.633V209.898H238.109C236.339 209.898 235.453 210.417 235.453 211.453C235.453 211.906 235.604 212.26 235.906 212.516C236.208 212.771 236.596 212.898 237.07 212.898ZM247.539 206.844C247.32 206.807 247.083 206.789 246.828 206.789C245.88 206.789 245.237 207.193 244.898 208V214H243.453V205.547H244.859L244.883 206.523C245.357 205.768 246.029 205.391 246.898 205.391C247.18 205.391 247.393 205.427 247.539 205.5V206.844ZM256.68 208.633L258.555 205.547H260.242L257.477 209.727L260.328 214H258.656L256.703 210.836L254.75 214H253.07L255.922 209.727L253.156 205.547H254.828L256.68 208.633ZM263.852 214H262.406V205.547H263.852V214ZM262.289 203.305C262.289 203.07 262.359 202.872 262.5 202.711C262.646 202.549 262.859 202.469 263.141 202.469C263.422 202.469 263.635 202.549 263.781 202.711C263.927 202.872 264 203.07 264 203.305C264 203.539 263.927 203.734 263.781 203.891C263.635 204.047 263.422 204.125 263.141 204.125C262.859 204.125 262.646 204.047 262.5 203.891C262.359 203.734 262.289 203.539 262.289 203.305ZM268.242 214H266.797V202H268.242V214ZM3.58594 229.547V238.977C3.58594 240.602 2.84896 241.414 1.375 241.414C1.05729 241.414 0.763021 241.367 0.492188 241.273V240.117C0.658854 240.159 0.877604 240.18 1.14844 240.18C1.47135 240.18 1.71615 240.091 1.88281 239.914C2.05469 239.742 2.14062 239.44 2.14062 239.008V229.547H3.58594ZM1.99219 227.305C1.99219 227.076 2.0625 226.88 2.20312 226.719C2.34896 226.552 2.5599 226.469 2.83594 226.469C3.11719 226.469 3.33073 226.549 3.47656 226.711C3.6224 226.872 3.69531 227.07 3.69531 227.305C3.69531 227.539 3.6224 227.734 3.47656 227.891C3.33073 228.047 3.11719 228.125 2.83594 228.125C2.55469 228.125 2.34375 228.047 2.20312 227.891C2.0625 227.734 1.99219 227.539 1.99219 227.305ZM11.6406 238C11.5573 237.833 11.4896 237.536 11.4375 237.109C10.7656 237.807 9.96354 238.156 9.03125 238.156C8.19792 238.156 7.51302 237.922 6.97656 237.453C6.44531 236.979 6.17969 236.38 6.17969 235.656C6.17969 234.776 6.51302 234.094 7.17969 233.609C7.85156 233.12 8.79427 232.875 10.0078 232.875H11.4141V232.211C11.4141 231.706 11.263 231.305 10.9609 231.008C10.6589 230.706 10.2135 230.555 9.625 230.555C9.10938 230.555 8.67708 230.685 8.32812 230.945C7.97917 231.206 7.80469 231.521 7.80469 231.891H6.35156C6.35156 231.469 6.5 231.062 6.79688 230.672C7.09896 230.276 7.50521 229.964 8.01562 229.734C8.53125 229.505 9.09635 229.391 9.71094 229.391C10.6849 229.391 11.4479 229.635 12 230.125C12.5521 230.609 12.8385 231.279 12.8594 232.133V236.023C12.8594 236.799 12.9583 237.417 13.1562 237.875V238H11.6406ZM9.24219 236.898C9.69531 236.898 10.125 236.781 10.5312 236.547C10.9375 236.312 11.2318 236.008 11.4141 235.633V233.898H10.2812C8.51042 233.898 7.625 234.417 7.625 235.453C7.625 235.906 7.77604 236.26 8.07812 236.516C8.38021 236.771 8.76823 236.898 9.24219 236.898ZM16.9922 229.547L17.0391 230.609C17.6849 229.797 18.5286 229.391 19.5703 229.391C21.3568 229.391 22.2578 230.398 22.2734 232.414V238H20.8281V232.406C20.8229 231.797 20.6823 231.346 20.4062 231.055C20.1354 230.763 19.7109 230.617 19.1328 230.617C18.6641 230.617 18.2526 230.742 17.8984 230.992C17.5443 231.242 17.2682 231.57 17.0703 231.977V238H15.625V229.547H16.9922ZM29.0391 230.844C28.8203 230.807 28.5833 230.789 28.3281 230.789C27.3802 230.789 26.737 231.193 26.3984 232V238H24.9531V229.547H26.3594L26.3828 230.523C26.8568 229.768 27.5286 229.391 28.3984 229.391C28.6797 229.391 28.8932 229.427 29.0391 229.5V230.844ZM30.3672 233.703C30.3672 232.406 30.6745 231.365 31.2891 230.578C31.9036 229.786 32.7083 229.391 33.7031 229.391C34.6927 229.391 35.4766 229.729 36.0547 230.406V226H37.5V238H36.1719L36.1016 237.094C35.5234 237.802 34.7188 238.156 33.6875 238.156C32.7083 238.156 31.9089 237.755 31.2891 236.953C30.6745 236.151 30.3672 235.104 30.3672 233.812V233.703ZM31.8125 233.867C31.8125 234.826 32.0104 235.576 32.4062 236.117C32.8021 236.659 33.349 236.93 34.0469 236.93C34.9635 236.93 35.6328 236.518 36.0547 235.695V231.812C35.6224 231.016 34.9583 230.617 34.0625 230.617C33.3542 230.617 32.8021 230.891 32.4062 231.438C32.0104 231.984 31.8125 232.794 31.8125 233.867ZM45.4688 238C45.3854 237.833 45.3177 237.536 45.2656 237.109C44.5938 237.807 43.7917 238.156 42.8594 238.156C42.026 238.156 41.3411 237.922 40.8047 237.453C40.2734 236.979 40.0078 236.38 40.0078 235.656C40.0078 234.776 40.3411 234.094 41.0078 233.609C41.6797 233.12 42.6224 232.875 43.8359 232.875H45.2422V232.211C45.2422 231.706 45.0911 231.305 44.7891 231.008C44.487 230.706 44.0417 230.555 43.4531 230.555C42.9375 230.555 42.5052 230.685 42.1562 230.945C41.8073 231.206 41.6328 231.521 41.6328 231.891H40.1797C40.1797 231.469 40.3281 231.062 40.625 230.672C40.9271 230.276 41.3333 229.964 41.8438 229.734C42.3594 229.505 42.9245 229.391 43.5391 229.391C44.513 229.391 45.276 229.635 45.8281 230.125C46.3802 230.609 46.6667 231.279 46.6875 232.133V236.023C46.6875 236.799 46.7865 237.417 46.9844 237.875V238H45.4688ZM43.0703 236.898C43.5234 236.898 43.9531 236.781 44.3594 236.547C44.7656 236.312 45.0599 236.008 45.2422 235.633V233.898H44.1094C42.3385 233.898 41.4531 234.417 41.4531 235.453C41.4531 235.906 41.6042 236.26 41.9062 236.516C42.2083 236.771 42.5964 236.898 43.0703 236.898ZM49.1094 233.703C49.1094 232.385 49.4141 231.339 50.0234 230.562C50.6328 229.781 51.4401 229.391 52.4453 229.391C53.4766 229.391 54.2812 229.755 54.8594 230.484L54.9297 229.547H56.25V237.797C56.25 238.891 55.9245 239.753 55.2734 240.383C54.6276 241.013 53.7578 241.328 52.6641 241.328C52.0547 241.328 51.4583 241.198 50.875 240.938C50.2917 240.677 49.8464 240.32 49.5391 239.867L50.2891 239C50.9089 239.766 51.6667 240.148 52.5625 240.148C53.2656 240.148 53.8125 239.951 54.2031 239.555C54.599 239.159 54.7969 238.602 54.7969 237.883V237.156C54.2188 237.823 53.4297 238.156 52.4297 238.156C51.4401 238.156 50.638 237.758 50.0234 236.961C49.4141 236.164 49.1094 235.078 49.1094 233.703ZM50.5625 233.867C50.5625 234.82 50.7578 235.57 51.1484 236.117C51.5391 236.659 52.0859 236.93 52.7891 236.93C53.7005 236.93 54.3698 236.516 54.7969 235.688V231.828C54.3542 231.021 53.6901 230.617 52.8047 230.617C52.1016 230.617 51.5521 230.891 51.1562 231.438C50.7604 231.984 50.5625 232.794 50.5625 233.867ZM60.5078 238H59.0625V229.547H60.5078V238ZM58.9453 227.305C58.9453 227.07 59.0156 226.872 59.1562 226.711C59.3021 226.549 59.5156 226.469 59.7969 226.469C60.0781 226.469 60.2917 226.549 60.4375 226.711C60.5833 226.872 60.6562 227.07 60.6562 227.305C60.6562 227.539 60.5833 227.734 60.4375 227.891C60.2917 228.047 60.0781 228.125 59.7969 228.125C59.5156 228.125 59.3021 228.047 59.1562 227.891C59.0156 227.734 58.9453 227.539 58.9453 227.305ZM70.1562 234.086L69.25 235.031V238H67.8047V226H69.25V233.258L70.0234 232.328L72.6562 229.547H74.4141L71.125 233.078L74.7969 238H73.1016L70.1562 234.086ZM77.9766 238H76.5312V229.547H77.9766V238ZM76.4141 227.305C76.4141 227.07 76.4844 226.872 76.625 226.711C76.7708 226.549 76.9844 226.469 77.2656 226.469C77.5469 226.469 77.7604 226.549 77.9062 226.711C78.0521 226.872 78.125 227.07 78.125 227.305C78.125 227.539 78.0521 227.734 77.9062 227.891C77.7604 228.047 77.5469 228.125 77.2656 228.125C76.9844 228.125 76.7708 228.047 76.625 227.891C76.4844 227.734 76.4141 227.539 76.4141 227.305ZM82.7578 227.5V229.547H84.3359V230.664H82.7578V235.906C82.7578 236.245 82.8281 236.5 82.9688 236.672C83.1094 236.839 83.349 236.922 83.6875 236.922C83.8542 236.922 84.0833 236.891 84.375 236.828V238C83.9948 238.104 83.625 238.156 83.2656 238.156C82.6198 238.156 82.1328 237.961 81.8047 237.57C81.4766 237.18 81.3125 236.625 81.3125 235.906V230.664H79.7734V229.547H81.3125V227.5H82.7578ZM85.9922 233.695C85.9922 232.867 86.1536 232.122 86.4766 231.461C86.8047 230.799 87.2578 230.289 87.8359 229.93C88.4193 229.57 89.0833 229.391 89.8281 229.391C90.9792 229.391 91.9089 229.789 92.6172 230.586C93.3307 231.383 93.6875 232.443 93.6875 233.766V233.867C93.6875 234.69 93.5286 235.43 93.2109 236.086C92.8984 236.737 92.4479 237.245 91.8594 237.609C91.276 237.974 90.6042 238.156 89.8438 238.156C88.6979 238.156 87.7682 237.758 87.0547 236.961C86.3464 236.164 85.9922 235.109 85.9922 233.797V233.695ZM87.4453 233.867C87.4453 234.805 87.6615 235.557 88.0938 236.125C88.5312 236.693 89.1146 236.977 89.8438 236.977C90.5781 236.977 91.1615 236.69 91.5938 236.117C92.026 235.539 92.2422 234.732 92.2422 233.695C92.2422 232.768 92.0208 232.018 91.5781 231.445C91.1406 230.867 90.5573 230.578 89.8281 230.578C89.1146 230.578 88.5391 230.862 88.1016 231.43C87.6641 231.997 87.4453 232.81 87.4453 233.867ZM103.156 233.867C103.156 235.159 102.859 236.198 102.266 236.984C101.672 237.766 100.875 238.156 99.875 238.156C98.8073 238.156 97.9818 237.779 97.3984 237.023L97.3281 238H96V226H97.4453V230.477C98.0286 229.753 98.8333 229.391 99.8594 229.391C100.885 229.391 101.69 229.779 102.273 230.555C102.862 231.331 103.156 232.393 103.156 233.742V233.867ZM101.711 233.703C101.711 232.719 101.521 231.958 101.141 231.422C100.76 230.885 100.214 230.617 99.5 230.617C98.5469 230.617 97.862 231.06 97.4453 231.945V235.602C97.888 236.487 98.5781 236.93 99.5156 236.93C100.208 236.93 100.747 236.661 101.133 236.125C101.518 235.589 101.711 234.781 101.711 233.703ZM107.055 238H105.609V226H107.055V238ZM115.094 238C115.01 237.833 114.943 237.536 114.891 237.109C114.219 237.807 113.417 238.156 112.484 238.156C111.651 238.156 110.966 237.922 110.43 237.453C109.898 236.979 109.633 236.38 109.633 235.656C109.633 234.776 109.966 234.094 110.633 233.609C111.305 233.12 112.247 232.875 113.461 232.875H114.867V232.211C114.867 231.706 114.716 231.305 114.414 231.008C114.112 230.706 113.667 230.555 113.078 230.555C112.562 230.555 112.13 230.685 111.781 230.945C111.432 231.206 111.258 231.521 111.258 231.891H109.805C109.805 231.469 109.953 231.062 110.25 230.672C110.552 230.276 110.958 229.964 111.469 229.734C111.984 229.505 112.549 229.391 113.164 229.391C114.138 229.391 114.901 229.635 115.453 230.125C116.005 230.609 116.292 231.279 116.312 232.133V236.023C116.312 236.799 116.411 237.417 116.609 237.875V238H115.094ZM112.695 236.898C113.148 236.898 113.578 236.781 113.984 236.547C114.391 236.312 114.685 236.008 114.867 235.633V233.898H113.734C111.964 233.898 111.078 234.417 111.078 235.453C111.078 235.906 111.229 236.26 111.531 236.516C111.833 236.771 112.221 236.898 112.695 236.898ZM123.164 230.844C122.945 230.807 122.708 230.789 122.453 230.789C121.505 230.789 120.862 231.193 120.523 232V238H119.078V229.547H120.484L120.508 230.523C120.982 229.768 121.654 229.391 122.523 229.391C122.805 229.391 123.018 229.427 123.164 229.5V230.844ZM126.367 229.547L126.414 230.609C127.06 229.797 127.904 229.391 128.945 229.391C130.732 229.391 131.633 230.398 131.648 232.414V238H130.203V232.406C130.198 231.797 130.057 231.346 129.781 231.055C129.51 230.763 129.086 230.617 128.508 230.617C128.039 230.617 127.628 230.742 127.273 230.992C126.919 231.242 126.643 231.57 126.445 231.977V238H125V229.547H126.367ZM135.898 238H134.453V229.547H135.898V238ZM134.336 227.305C134.336 227.07 134.406 226.872 134.547 226.711C134.693 226.549 134.906 226.469 135.188 226.469C135.469 226.469 135.682 226.549 135.828 226.711C135.974 226.872 136.047 227.07 136.047 227.305C136.047 227.539 135.974 227.734 135.828 227.891C135.682 228.047 135.469 228.125 135.188 228.125C134.906 228.125 134.693 228.047 134.547 227.891C134.406 227.734 134.336 227.539 134.336 227.305ZM145.148 227.5V229.547H146.727V230.664H145.148V235.906C145.148 236.245 145.219 236.5 145.359 236.672C145.5 236.839 145.74 236.922 146.078 236.922C146.245 236.922 146.474 236.891 146.766 236.828V238C146.385 238.104 146.016 238.156 145.656 238.156C145.01 238.156 144.523 237.961 144.195 237.57C143.867 237.18 143.703 236.625 143.703 235.906V230.664H142.164V229.547H143.703V227.5H145.148ZM148.383 233.695C148.383 232.867 148.544 232.122 148.867 231.461C149.195 230.799 149.648 230.289 150.227 229.93C150.81 229.57 151.474 229.391 152.219 229.391C153.37 229.391 154.299 229.789 155.008 230.586C155.721 231.383 156.078 232.443 156.078 233.766V233.867C156.078 234.69 155.919 235.43 155.602 236.086C155.289 236.737 154.839 237.245 154.25 237.609C153.667 237.974 152.995 238.156 152.234 238.156C151.089 238.156 150.159 237.758 149.445 236.961C148.737 236.164 148.383 235.109 148.383 233.797V233.695ZM149.836 233.867C149.836 234.805 150.052 235.557 150.484 236.125C150.922 236.693 151.505 236.977 152.234 236.977C152.969 236.977 153.552 236.69 153.984 236.117C154.417 235.539 154.633 234.732 154.633 233.695C154.633 232.768 154.411 232.018 153.969 231.445C153.531 230.867 152.948 230.578 152.219 230.578C151.505 230.578 150.93 230.862 150.492 231.43C150.055 231.997 149.836 232.81 149.836 233.867ZM165.531 233.867C165.531 235.154 165.237 236.19 164.648 236.977C164.06 237.763 163.263 238.156 162.258 238.156C161.232 238.156 160.424 237.831 159.836 237.18V241.25H158.391V229.547H159.711L159.781 230.484C160.37 229.755 161.188 229.391 162.234 229.391C163.25 229.391 164.052 229.773 164.641 230.539C165.234 231.305 165.531 232.37 165.531 233.734V233.867ZM164.086 233.703C164.086 232.75 163.883 231.997 163.477 231.445C163.07 230.893 162.513 230.617 161.805 230.617C160.93 230.617 160.273 231.005 159.836 231.781V235.82C160.268 236.591 160.93 236.977 161.82 236.977C162.513 236.977 163.062 236.703 163.469 236.156C163.88 235.604 164.086 234.786 164.086 233.703ZM173.094 238C173.01 237.833 172.943 237.536 172.891 237.109C172.219 237.807 171.417 238.156 170.484 238.156C169.651 238.156 168.966 237.922 168.43 237.453C167.898 236.979 167.633 236.38 167.633 235.656C167.633 234.776 167.966 234.094 168.633 233.609C169.305 233.12 170.247 232.875 171.461 232.875H172.867V232.211C172.867 231.706 172.716 231.305 172.414 231.008C172.112 230.706 171.667 230.555 171.078 230.555C170.562 230.555 170.13 230.685 169.781 230.945C169.432 231.206 169.258 231.521 169.258 231.891H167.805C167.805 231.469 167.953 231.062 168.25 230.672C168.552 230.276 168.958 229.964 169.469 229.734C169.984 229.505 170.549 229.391 171.164 229.391C172.138 229.391 172.901 229.635 173.453 230.125C174.005 230.609 174.292 231.279 174.312 232.133V236.023C174.312 236.799 174.411 237.417 174.609 237.875V238H173.094ZM170.695 236.898C171.148 236.898 171.578 236.781 171.984 236.547C172.391 236.312 172.685 236.008 172.867 235.633V233.898H171.734C169.964 233.898 169.078 234.417 169.078 235.453C169.078 235.906 169.229 236.26 169.531 236.516C169.833 236.771 170.221 236.898 170.695 236.898ZM181.164 233.695C181.164 232.867 181.326 232.122 181.648 231.461C181.977 230.799 182.43 230.289 183.008 229.93C183.591 229.57 184.255 229.391 185 229.391C186.151 229.391 187.081 229.789 187.789 230.586C188.503 231.383 188.859 232.443 188.859 233.766V233.867C188.859 234.69 188.701 235.43 188.383 236.086C188.07 236.737 187.62 237.245 187.031 237.609C186.448 237.974 185.776 238.156 185.016 238.156C183.87 238.156 182.94 237.758 182.227 236.961C181.518 236.164 181.164 235.109 181.164 233.797V233.695ZM182.617 233.867C182.617 234.805 182.833 235.557 183.266 236.125C183.703 236.693 184.286 236.977 185.016 236.977C185.75 236.977 186.333 236.69 186.766 236.117C187.198 235.539 187.414 234.732 187.414 233.695C187.414 232.768 187.193 232.018 186.75 231.445C186.312 230.867 185.729 230.578 185 230.578C184.286 230.578 183.711 230.862 183.273 231.43C182.836 231.997 182.617 232.81 182.617 233.867ZM192.742 238H191.297V226H192.742V238ZM200.781 238C200.698 237.833 200.63 237.536 200.578 237.109C199.906 237.807 199.104 238.156 198.172 238.156C197.339 238.156 196.654 237.922 196.117 237.453C195.586 236.979 195.32 236.38 195.32 235.656C195.32 234.776 195.654 234.094 196.32 233.609C196.992 233.12 197.935 232.875 199.148 232.875H200.555V232.211C200.555 231.706 200.404 231.305 200.102 231.008C199.799 230.706 199.354 230.555 198.766 230.555C198.25 230.555 197.818 230.685 197.469 230.945C197.12 231.206 196.945 231.521 196.945 231.891H195.492C195.492 231.469 195.641 231.062 195.938 230.672C196.24 230.276 196.646 229.964 197.156 229.734C197.672 229.505 198.237 229.391 198.852 229.391C199.826 229.391 200.589 229.635 201.141 230.125C201.693 230.609 201.979 231.279 202 232.133V236.023C202 236.799 202.099 237.417 202.297 237.875V238H200.781ZM198.383 236.898C198.836 236.898 199.266 236.781 199.672 236.547C200.078 236.312 200.372 236.008 200.555 235.633V233.898H199.422C197.651 233.898 196.766 234.417 196.766 235.453C196.766 235.906 196.917 236.26 197.219 236.516C197.521 236.771 197.909 236.898 198.383 236.898ZM209.688 235.758C209.688 235.367 209.539 235.065 209.242 234.852C208.951 234.633 208.438 234.445 207.703 234.289C206.974 234.133 206.393 233.945 205.961 233.727C205.534 233.508 205.216 233.247 205.008 232.945C204.805 232.643 204.703 232.284 204.703 231.867C204.703 231.174 204.995 230.589 205.578 230.109C206.167 229.63 206.917 229.391 207.828 229.391C208.786 229.391 209.562 229.638 210.156 230.133C210.755 230.628 211.055 231.26 211.055 232.031H209.602C209.602 231.635 209.432 231.294 209.094 231.008C208.76 230.721 208.339 230.578 207.828 230.578C207.302 230.578 206.891 230.693 206.594 230.922C206.297 231.151 206.148 231.451 206.148 231.82C206.148 232.169 206.286 232.432 206.562 232.609C206.839 232.786 207.336 232.956 208.055 233.117C208.779 233.279 209.365 233.471 209.812 233.695C210.26 233.919 210.591 234.19 210.805 234.508C211.023 234.82 211.133 235.203 211.133 235.656C211.133 236.411 210.831 237.018 210.227 237.477C209.622 237.93 208.839 238.156 207.875 238.156C207.198 238.156 206.599 238.036 206.078 237.797C205.557 237.557 205.148 237.224 204.852 236.797C204.56 236.365 204.414 235.898 204.414 235.398H205.859C205.885 235.883 206.078 236.268 206.438 236.555C206.802 236.836 207.281 236.977 207.875 236.977C208.422 236.977 208.859 236.867 209.188 236.648C209.521 236.424 209.688 236.128 209.688 235.758ZM215.086 238H213.641V229.547H215.086V238ZM213.523 227.305C213.523 227.07 213.594 226.872 213.734 226.711C213.88 226.549 214.094 226.469 214.375 226.469C214.656 226.469 214.87 226.549 215.016 226.711C215.161 226.872 215.234 227.07 215.234 227.305C215.234 227.539 215.161 227.734 215.016 227.891C214.87 228.047 214.656 228.125 214.375 228.125C214.094 228.125 213.88 228.047 213.734 227.891C213.594 227.734 213.523 227.539 213.523 227.305ZM219.266 236.82H224.211V238H217.5V236.938L222.164 230.742H217.57V229.547H223.977V230.57L219.266 236.82ZM226.375 237.242C226.375 236.992 226.448 236.784 226.594 236.617C226.745 236.451 226.969 236.367 227.266 236.367C227.562 236.367 227.786 236.451 227.938 236.617C228.094 236.784 228.172 236.992 228.172 237.242C228.172 237.482 228.094 237.682 227.938 237.844C227.786 238.005 227.562 238.086 227.266 238.086C226.969 238.086 226.745 238.005 226.594 237.844C226.448 237.682 226.375 237.482 226.375 237.242Z" fill="black"/>
</svg>
