<svg width="340" height="245" viewBox="0 0 340 245" fill="none" xmlns="http://www.w3.org/2000/svg">
<circle cx="50" cy="50" r="50" fill="#FF7500" fill-opacity="0.2"/>
<path d="M40.6809 27.3522C40.2807 25.8585 38.7453 24.9721 37.2516 25.3723C35.7579 25.7726 34.8715 27.3079 35.2717 28.8016L35.9964 31.5062C36.3967 32.9999 37.932 33.8864 39.4257 33.4861C40.9194 33.0859 41.8058 31.5505 41.4056 30.0568L40.6809 27.3522Z" fill="#FF7500"/>
<path d="M28.8015 35.2718C27.3078 34.8716 25.7725 35.758 25.3722 37.2517C24.972 38.7454 25.8584 40.2808 27.3521 40.681L30.0567 41.4057C31.5504 41.806 33.0858 40.9195 33.486 39.4258C33.8862 37.9321 32.9998 36.3968 31.5061 35.9965L28.8015 35.2718Z" fill="#FF7500"/>
<path d="M53.4792 33.6803C54.5726 32.5868 54.5726 30.814 53.4792 29.7205C52.3857 28.627 50.6128 28.627 49.5194 29.7205L47.5395 31.7004C46.446 32.7939 46.446 34.5667 47.5395 35.6602C48.6329 36.7537 50.4058 36.7537 51.4993 35.6602L53.4792 33.6803Z" fill="#FF7500"/>
<path d="M33.6802 53.4793L35.6601 51.4994C36.7536 50.4059 36.7536 48.6331 35.6601 47.5396C34.5666 46.4461 32.7938 46.4461 31.7003 47.5396L29.7204 49.5195C28.6269 50.613 28.6269 52.3858 29.7204 53.4793C30.8139 54.5728 32.5867 54.5728 33.6802 53.4793Z" fill="#FF7500"/>
<path d="M42.64 39.0004C41.6 38.5844 40.4122 38.8282 39.6202 39.6202C38.8282 40.4122 38.5844 41.6 39.0003 42.64L50.2003 70.64C50.6098 71.6638 51.582 72.3519 52.6837 72.3977C53.7854 72.4435 54.8114 71.8385 55.3045 70.8523L59.1671 63.127L67.6202 71.58C68.7136 72.6735 70.4865 72.6735 71.58 71.58C72.6735 70.4865 72.6735 68.7137 71.58 67.6202L63.1269 59.1672L70.8523 55.3045C71.8385 54.8114 72.4435 53.7854 72.3977 52.6837C72.3518 51.5821 71.6637 50.6099 70.64 50.2004L42.64 39.0004Z" fill="#FF7500"/>
<path d="M13.3828 148.004C13.3828 150.293 12.8398 152.07 11.7539 153.336C10.6758 154.602 9.17578 155.234 7.25391 155.234C5.33984 155.234 3.83594 154.609 2.74219 153.359C1.64844 152.102 1.09375 150.344 1.07812 148.086V145.168C1.07812 142.824 1.62109 140.996 2.70703 139.684C3.79297 138.363 5.30078 137.703 7.23047 137.703C9.12891 137.703 10.625 138.352 11.7188 139.648C12.8125 140.938 13.3672 142.75 13.3828 145.086V148.004ZM9.92578 145.145C9.92578 143.605 9.70703 142.461 9.26953 141.711C8.83203 140.961 8.15234 140.586 7.23047 140.586C6.31641 140.586 5.64062 140.949 5.20312 141.676C4.76562 142.395 4.53906 143.492 4.52344 144.969V148.004C4.52344 149.496 4.74609 150.598 5.19141 151.309C5.63672 152.012 6.32422 152.363 7.25391 152.363C8.15234 152.363 8.82031 152.02 9.25781 151.332C9.69531 150.637 9.91797 149.562 9.92578 148.109V145.145ZM21.8047 151.602C21.8047 151.32 21.668 151.062 21.3945 150.828C21.1289 150.586 20.5312 150.262 19.6016 149.855C18.2344 149.301 17.293 148.727 16.7773 148.133C16.2695 147.539 16.0156 146.801 16.0156 145.918C16.0156 144.809 16.4141 143.895 17.2109 143.176C18.0156 142.449 19.0781 142.086 20.3984 142.086C21.7891 142.086 22.9023 142.445 23.7383 143.164C24.5742 143.883 24.9922 144.848 24.9922 146.059H21.6758C21.6758 145.027 21.2461 144.512 20.3867 144.512C20.0352 144.512 19.7461 144.621 19.5195 144.84C19.293 145.059 19.1797 145.363 19.1797 145.754C19.1797 146.035 19.3047 146.285 19.5547 146.504C19.8047 146.715 20.3945 147.02 21.3242 147.418C22.6758 147.918 23.6289 148.477 24.1836 149.094C24.7461 149.703 25.0273 150.496 25.0273 151.473C25.0273 152.605 24.6016 153.516 23.75 154.203C22.8984 154.891 21.7812 155.234 20.3984 155.234C19.4688 155.234 18.6484 155.055 17.9375 154.695C17.2266 154.328 16.668 153.82 16.2617 153.172C15.8633 152.523 15.6641 151.824 15.6641 151.074H18.8164C18.832 151.652 18.9648 152.086 19.2148 152.375C19.4727 152.664 19.8906 152.809 20.4688 152.809C21.3594 152.809 21.8047 152.406 21.8047 151.602ZM27.2031 148.25C27.2031 146.328 27.6562 144.82 28.5625 143.727C29.4688 142.633 30.7227 142.086 32.3242 142.086C33.9414 142.086 35.2031 142.633 36.1094 143.727C37.0156 144.82 37.4688 146.336 37.4688 148.273V149.082C37.4688 151.012 37.0195 152.52 36.1211 153.605C35.2227 154.691 33.9648 155.234 32.3477 155.234C30.7227 155.234 29.457 154.691 28.5508 153.605C27.6523 152.512 27.2031 150.996 27.2031 149.059V148.25ZM30.5312 149.082C30.5312 151.348 31.1367 152.48 32.3477 152.48C33.4648 152.48 34.0664 151.535 34.1523 149.645L34.1641 148.25C34.1641 147.094 34.0039 146.238 33.6836 145.684C33.3633 145.121 32.9102 144.84 32.3242 144.84C31.7617 144.84 31.3203 145.121 31 145.684C30.6875 146.238 30.5312 147.094 30.5312 148.25V149.082ZM43.0781 142.32L43.1719 143.574C43.9219 142.582 44.9023 142.086 46.1133 142.086C48.293 142.086 49.4141 143.613 49.4766 146.668V155H46.1484V146.914C46.1484 146.195 46.0391 145.676 45.8203 145.355C45.6094 145.027 45.2344 144.863 44.6953 144.863C44.0938 144.863 43.625 145.172 43.2891 145.789V155H39.9609V142.32H43.0781ZM68.2773 149.07C68.2773 151.125 67.9492 152.668 67.293 153.699C66.6367 154.723 65.6055 155.234 64.1992 155.234C63.0977 155.234 62.2148 154.738 61.5508 153.746L61.4453 155H58.3867V137H61.7031V143.352C62.3281 142.508 63.1523 142.086 64.1758 142.086C65.582 142.086 66.6133 142.598 67.2695 143.621C67.9258 144.637 68.2617 146.129 68.2773 148.098V149.07ZM64.9609 148.238C64.9609 146.902 64.832 146.008 64.5742 145.555C64.3164 145.094 63.8672 144.863 63.2266 144.863C62.5312 144.863 62.0234 145.18 61.7031 145.812V151.59C62 152.184 62.5156 152.48 63.25 152.48C63.8828 152.48 64.3203 152.273 64.5625 151.859C64.8125 151.445 64.9453 150.641 64.9609 149.445V148.238ZM77.0039 153.84C76.3164 154.77 75.3945 155.234 74.2383 155.234C73.0742 155.234 72.1914 154.836 71.5898 154.039C70.9883 153.234 70.6875 152.066 70.6875 150.535V142.32H74.0039V150.617C74.0195 151.852 74.4297 152.469 75.2344 152.469C75.9922 152.469 76.5391 152.141 76.875 151.484V142.32H80.2148V155H77.0977L77.0039 153.84ZM87.1484 149.48L88.8359 142.32H92.375L88.2031 156.898C87.5781 159.047 86.4023 160.121 84.6758 160.121C84.2773 160.121 83.8242 160.047 83.3164 159.898V157.309L83.7031 157.32C84.2188 157.32 84.6055 157.219 84.8633 157.016C85.1289 156.82 85.3281 156.477 85.4609 155.984L85.7188 155.129L82.0625 142.32H85.625L87.1484 149.48ZM100.527 153.84C99.8398 154.77 98.918 155.234 97.7617 155.234C96.5977 155.234 95.7148 154.836 95.1133 154.039C94.5117 153.234 94.2109 152.066 94.2109 150.535V142.32H97.5273V150.617C97.543 151.852 97.9531 152.469 98.7578 152.469C99.5156 152.469 100.062 152.141 100.398 151.484V142.32H103.738V155H100.621L100.527 153.84ZM112.863 145.52L111.762 145.426C110.855 145.426 110.242 145.824 109.922 146.621V155H106.594V142.32H109.723L109.816 143.691C110.34 142.621 111.062 142.086 111.984 142.086C112.359 142.086 112.664 142.137 112.898 142.238L112.863 145.52ZM119.516 139.203V142.32H121.215V144.816H119.516V151.109C119.516 151.609 119.582 151.953 119.715 152.141C119.855 152.328 120.121 152.422 120.512 152.422C120.832 152.422 121.094 152.395 121.297 152.34L121.273 154.918C120.711 155.129 120.102 155.234 119.445 155.234C117.305 155.234 116.223 154.008 116.199 151.555V144.816H114.734V142.32H116.199V139.203H119.516ZM126.66 142.32L126.754 143.492C127.496 142.555 128.477 142.086 129.695 142.086C130.961 142.086 131.855 142.656 132.379 143.797C133.105 142.656 134.141 142.086 135.484 142.086C137.703 142.086 138.84 143.621 138.895 146.691V155H135.578V146.902C135.578 146.168 135.477 145.645 135.273 145.332C135.07 145.02 134.727 144.863 134.242 144.863C133.625 144.863 133.164 145.242 132.859 146L132.883 146.398V155H129.566V146.926C129.566 146.199 129.469 145.676 129.273 145.355C129.078 145.027 128.73 144.863 128.23 144.863C127.66 144.863 127.207 145.172 126.871 145.789V155H123.555V142.32H126.66ZM147.879 155C147.785 154.805 147.691 154.477 147.598 154.016C147.004 154.828 146.199 155.234 145.184 155.234C144.121 155.234 143.238 154.883 142.535 154.18C141.84 153.477 141.492 152.566 141.492 151.449C141.492 150.121 141.914 149.094 142.758 148.367C143.609 147.641 144.832 147.27 146.426 147.254H147.434V146.234C147.434 145.664 147.336 145.262 147.141 145.027C146.945 144.793 146.66 144.676 146.285 144.676C145.457 144.676 145.043 145.16 145.043 146.129H141.727C141.727 144.957 142.164 143.992 143.039 143.234C143.922 142.469 145.035 142.086 146.379 142.086C147.77 142.086 148.844 142.449 149.602 143.176C150.367 143.895 150.75 144.926 150.75 146.27V152.234C150.766 153.328 150.922 154.184 151.219 154.801V155H147.879ZM145.922 152.633C146.289 152.633 146.602 152.559 146.859 152.41C147.117 152.262 147.309 152.086 147.434 151.883V149.246H146.637C146.074 149.246 145.629 149.426 145.301 149.785C144.98 150.145 144.82 150.625 144.82 151.227C144.82 152.164 145.188 152.633 145.922 152.633ZM159.238 148.25C159.238 146.172 159.586 144.625 160.281 143.609C160.977 142.594 162.008 142.086 163.375 142.086C164.484 142.086 165.367 142.586 166.023 143.586L166.234 142.32H169.129V159.875H165.801V154.016C165.184 154.828 164.371 155.234 163.363 155.234C162.027 155.234 161.008 154.719 160.305 153.688C159.609 152.648 159.254 151.156 159.238 149.211V148.25ZM162.566 149.082C162.566 150.309 162.699 151.184 162.965 151.707C163.23 152.223 163.684 152.48 164.324 152.48C164.996 152.48 165.488 152.219 165.801 151.695V145.66C165.488 145.113 165 144.84 164.336 144.84C163.703 144.84 163.25 145.094 162.977 145.602C162.711 146.109 162.574 146.957 162.566 148.145V149.082ZM175.594 155H172.266V142.32H175.594V155ZM172.113 139.039C172.113 138.523 172.277 138.102 172.605 137.773C172.934 137.445 173.371 137.281 173.918 137.281C174.465 137.281 174.902 137.445 175.23 137.773C175.559 138.102 175.723 138.523 175.723 139.039C175.723 139.547 175.559 139.969 175.23 140.305C174.91 140.641 174.473 140.809 173.918 140.809C173.363 140.809 172.922 140.641 172.594 140.305C172.273 139.969 172.113 139.547 172.113 139.039ZM182.141 155H178.812V137H182.141V155ZM188.688 155H185.359V142.32H188.688V155ZM185.207 139.039C185.207 138.523 185.371 138.102 185.699 137.773C186.027 137.445 186.465 137.281 187.012 137.281C187.559 137.281 187.996 137.445 188.324 137.773C188.652 138.102 188.816 138.523 188.816 139.039C188.816 139.547 188.652 139.969 188.324 140.305C188.004 140.641 187.566 140.809 187.012 140.809C186.457 140.809 186.016 140.641 185.688 140.305C185.367 139.969 185.207 139.547 185.207 139.039ZM197.367 151.602C197.367 151.32 197.23 151.062 196.957 150.828C196.691 150.586 196.094 150.262 195.164 149.855C193.797 149.301 192.855 148.727 192.34 148.133C191.832 147.539 191.578 146.801 191.578 145.918C191.578 144.809 191.977 143.895 192.773 143.176C193.578 142.449 194.641 142.086 195.961 142.086C197.352 142.086 198.465 142.445 199.301 143.164C200.137 143.883 200.555 144.848 200.555 146.059H197.238C197.238 145.027 196.809 144.512 195.949 144.512C195.598 144.512 195.309 144.621 195.082 144.84C194.855 145.059 194.742 145.363 194.742 145.754C194.742 146.035 194.867 146.285 195.117 146.504C195.367 146.715 195.957 147.02 196.887 147.418C198.238 147.918 199.191 148.477 199.746 149.094C200.309 149.703 200.59 150.496 200.59 151.473C200.59 152.605 200.164 153.516 199.312 154.203C198.461 154.891 197.344 155.234 195.961 155.234C195.031 155.234 194.211 155.055 193.5 154.695C192.789 154.328 192.23 153.82 191.824 153.172C191.426 152.523 191.227 151.824 191.227 151.074H194.379C194.395 151.652 194.527 152.086 194.777 152.375C195.035 152.664 195.453 152.809 196.031 152.809C196.922 152.809 197.367 152.406 197.367 151.602ZM206.387 143.434C207.105 142.535 207.988 142.086 209.035 142.086C210.191 142.086 211.07 142.492 211.672 143.305C212.273 144.117 212.578 145.328 212.586 146.938V155H209.258V146.973C209.258 146.23 209.141 145.695 208.906 145.367C208.68 145.031 208.309 144.863 207.793 144.863C207.191 144.863 206.723 145.141 206.387 145.695V155H203.07V137H206.387V143.434Z" fill="black"/>
<path d="M7.60156 187.031H2.83594L1.76562 190H0.21875L4.5625 178.625H5.875L10.2266 190H8.6875L7.60156 187.031ZM3.28906 185.797H7.15625L5.21875 180.477L3.28906 185.797ZM14.3906 186.086L13.4844 187.031V190H12.0391V178H13.4844V185.258L14.2578 184.328L16.8906 181.547H18.6484L15.3594 185.078L19.0312 190H17.3359L14.3906 186.086ZM25.8594 190C25.776 189.833 25.7083 189.536 25.6562 189.109C24.9844 189.807 24.1823 190.156 23.25 190.156C22.4167 190.156 21.7318 189.922 21.1953 189.453C20.6641 188.979 20.3984 188.38 20.3984 187.656C20.3984 186.776 20.7318 186.094 21.3984 185.609C22.0703 185.12 23.013 184.875 24.2266 184.875H25.6328V184.211C25.6328 183.706 25.4818 183.305 25.1797 183.008C24.8776 182.706 24.4323 182.555 23.8438 182.555C23.3281 182.555 22.8958 182.685 22.5469 182.945C22.1979 183.206 22.0234 183.521 22.0234 183.891H20.5703C20.5703 183.469 20.7188 183.062 21.0156 182.672C21.3177 182.276 21.724 181.964 22.2344 181.734C22.75 181.505 23.3151 181.391 23.9297 181.391C24.9036 181.391 25.6667 181.635 26.2188 182.125C26.7708 182.609 27.0573 183.279 27.0781 184.133V188.023C27.0781 188.799 27.1771 189.417 27.375 189.875V190H25.8594ZM23.4609 188.898C23.9141 188.898 24.3438 188.781 24.75 188.547C25.1562 188.312 25.4505 188.008 25.6328 187.633V185.898H24.5C22.7292 185.898 21.8438 186.417 21.8438 187.453C21.8438 187.906 21.9948 188.26 22.2969 188.516C22.599 188.771 22.987 188.898 23.4609 188.898ZM29.4922 185.703C29.4922 184.406 29.7995 183.365 30.4141 182.578C31.0286 181.786 31.8333 181.391 32.8281 181.391C33.8177 181.391 34.6016 181.729 35.1797 182.406V178H36.625V190H35.2969L35.2266 189.094C34.6484 189.802 33.8438 190.156 32.8125 190.156C31.8333 190.156 31.0339 189.755 30.4141 188.953C29.7995 188.151 29.4922 187.104 29.4922 185.812V185.703ZM30.9375 185.867C30.9375 186.826 31.1354 187.576 31.5312 188.117C31.9271 188.659 32.474 188.93 33.1719 188.93C34.0885 188.93 34.7578 188.518 35.1797 187.695V183.812C34.7474 183.016 34.0833 182.617 33.1875 182.617C32.4792 182.617 31.9271 182.891 31.5312 183.438C31.1354 183.984 30.9375 184.794 30.9375 185.867ZM42.8828 190.156C41.737 190.156 40.8047 189.781 40.0859 189.031C39.3672 188.276 39.0078 187.268 39.0078 186.008V185.742C39.0078 184.904 39.1667 184.156 39.4844 183.5C39.8073 182.839 40.2552 182.323 40.8281 181.953C41.4062 181.578 42.0312 181.391 42.7031 181.391C43.8021 181.391 44.6562 181.753 45.2656 182.477C45.875 183.201 46.1797 184.237 46.1797 185.586V186.188H40.4531C40.474 187.021 40.7161 187.695 41.1797 188.211C41.6484 188.721 42.2422 188.977 42.9609 188.977C43.4714 188.977 43.9036 188.872 44.2578 188.664C44.612 188.456 44.9219 188.18 45.1875 187.836L46.0703 188.523C45.362 189.612 44.2995 190.156 42.8828 190.156ZM42.7031 182.578C42.1198 182.578 41.6302 182.792 41.2344 183.219C40.8385 183.641 40.5938 184.234 40.5 185H44.7344V184.891C44.6927 184.156 44.4948 183.589 44.1406 183.188C43.7865 182.781 43.3073 182.578 42.7031 182.578ZM49.7188 181.547L49.7578 182.484C50.3776 181.755 51.2135 181.391 52.2656 181.391C53.4479 181.391 54.2526 181.844 54.6797 182.75C54.9609 182.344 55.3255 182.016 55.7734 181.766C56.2266 181.516 56.7604 181.391 57.375 181.391C59.2292 181.391 60.1719 182.372 60.2031 184.336V190H58.7578V184.422C58.7578 183.818 58.6198 183.367 58.3438 183.07C58.0677 182.768 57.6042 182.617 56.9531 182.617C56.4167 182.617 55.9714 182.779 55.6172 183.102C55.263 183.419 55.0573 183.849 55 184.391V190H53.5469V184.461C53.5469 183.232 52.9453 182.617 51.7422 182.617C50.7943 182.617 50.1458 183.021 49.7969 183.828V190H48.3516V181.547H49.7188ZM64.2578 181.547L64.3047 182.609C64.9505 181.797 65.7943 181.391 66.8359 181.391C68.6224 181.391 69.5234 182.398 69.5391 184.414V190H68.0938V184.406C68.0885 183.797 67.9479 183.346 67.6719 183.055C67.401 182.763 66.9766 182.617 66.3984 182.617C65.9297 182.617 65.5182 182.742 65.1641 182.992C64.8099 183.242 64.5339 183.57 64.3359 183.977V190H62.8906V181.547H64.2578ZM77.4375 190C77.3542 189.833 77.2865 189.536 77.2344 189.109C76.5625 189.807 75.7604 190.156 74.8281 190.156C73.9948 190.156 73.3099 189.922 72.7734 189.453C72.2422 188.979 71.9766 188.38 71.9766 187.656C71.9766 186.776 72.3099 186.094 72.9766 185.609C73.6484 185.12 74.5911 184.875 75.8047 184.875H77.2109V184.211C77.2109 183.706 77.0599 183.305 76.7578 183.008C76.4557 182.706 76.0104 182.555 75.4219 182.555C74.9062 182.555 74.474 182.685 74.125 182.945C73.776 183.206 73.6016 183.521 73.6016 183.891H72.1484C72.1484 183.469 72.2969 183.062 72.5938 182.672C72.8958 182.276 73.3021 181.964 73.8125 181.734C74.3281 181.505 74.8932 181.391 75.5078 181.391C76.4818 181.391 77.2448 181.635 77.7969 182.125C78.349 182.609 78.6354 183.279 78.6562 184.133V188.023C78.6562 188.799 78.7552 189.417 78.9531 189.875V190H77.4375ZM75.0391 188.898C75.4922 188.898 75.9219 188.781 76.3281 188.547C76.7344 188.312 77.0286 188.008 77.2109 187.633V185.898H76.0781C74.3073 185.898 73.4219 186.417 73.4219 187.453C73.4219 187.906 73.5729 188.26 73.875 188.516C74.1771 188.771 74.5651 188.898 75.0391 188.898ZM86.3438 187.758C86.3438 187.367 86.1953 187.065 85.8984 186.852C85.6068 186.633 85.0938 186.445 84.3594 186.289C83.6302 186.133 83.0495 185.945 82.6172 185.727C82.1901 185.508 81.8724 185.247 81.6641 184.945C81.4609 184.643 81.3594 184.284 81.3594 183.867C81.3594 183.174 81.651 182.589 82.2344 182.109C82.8229 181.63 83.5729 181.391 84.4844 181.391C85.4427 181.391 86.2188 181.638 86.8125 182.133C87.4115 182.628 87.7109 183.26 87.7109 184.031H86.2578C86.2578 183.635 86.0885 183.294 85.75 183.008C85.4167 182.721 84.9948 182.578 84.4844 182.578C83.9583 182.578 83.5469 182.693 83.25 182.922C82.9531 183.151 82.8047 183.451 82.8047 183.82C82.8047 184.169 82.9427 184.432 83.2188 184.609C83.4948 184.786 83.9922 184.956 84.7109 185.117C85.4349 185.279 86.0208 185.471 86.4688 185.695C86.9167 185.919 87.2474 186.19 87.4609 186.508C87.6797 186.82 87.7891 187.203 87.7891 187.656C87.7891 188.411 87.487 189.018 86.8828 189.477C86.2786 189.93 85.4948 190.156 84.5312 190.156C83.8542 190.156 83.2552 190.036 82.7344 189.797C82.2135 189.557 81.8047 189.224 81.5078 188.797C81.2161 188.365 81.0703 187.898 81.0703 187.398H82.5156C82.5417 187.883 82.7344 188.268 83.0938 188.555C83.4583 188.836 83.9375 188.977 84.5312 188.977C85.0781 188.977 85.5156 188.867 85.8438 188.648C86.1771 188.424 86.3438 188.128 86.3438 187.758ZM91.6172 182.57C92.2578 181.784 93.0911 181.391 94.1172 181.391C95.9036 181.391 96.8047 182.398 96.8203 184.414V190H95.375V184.406C95.3698 183.797 95.2292 183.346 94.9531 183.055C94.6823 182.763 94.2578 182.617 93.6797 182.617C93.2109 182.617 92.7995 182.742 92.4453 182.992C92.0911 183.242 91.8151 183.57 91.6172 183.977V190H90.1719V178H91.6172V182.57ZM103.57 182.844C103.352 182.807 103.115 182.789 102.859 182.789C101.911 182.789 101.268 183.193 100.93 184V190H99.4844V181.547H100.891L100.914 182.523C101.388 181.768 102.06 181.391 102.93 181.391C103.211 181.391 103.424 181.427 103.57 181.5V182.844ZM104.469 189.242C104.469 188.992 104.542 188.784 104.688 188.617C104.839 188.451 105.062 188.367 105.359 188.367C105.656 188.367 105.88 188.451 106.031 188.617C106.188 188.784 106.266 188.992 106.266 189.242C106.266 189.482 106.188 189.682 106.031 189.844C105.88 190.005 105.656 190.086 105.359 190.086C105.062 190.086 104.839 190.005 104.688 189.844C104.542 189.682 104.469 189.482 104.469 189.242ZM114.375 189.164C113.812 189.826 112.987 190.156 111.898 190.156C110.997 190.156 110.31 189.896 109.836 189.375C109.367 188.849 109.13 188.073 109.125 187.047V181.547H110.57V187.008C110.57 188.289 111.091 188.93 112.133 188.93C113.237 188.93 113.971 188.518 114.336 187.695V181.547H115.781V190H114.406L114.375 189.164ZM119.844 188.82H124.789V190H118.078V188.938L122.742 182.742H118.148V181.547H124.555V182.57L119.844 188.82ZM136.312 187.758C136.312 187.367 136.164 187.065 135.867 186.852C135.576 186.633 135.062 186.445 134.328 186.289C133.599 186.133 133.018 185.945 132.586 185.727C132.159 185.508 131.841 185.247 131.633 184.945C131.43 184.643 131.328 184.284 131.328 183.867C131.328 183.174 131.62 182.589 132.203 182.109C132.792 181.63 133.542 181.391 134.453 181.391C135.411 181.391 136.188 181.638 136.781 182.133C137.38 182.628 137.68 183.26 137.68 184.031H136.227C136.227 183.635 136.057 183.294 135.719 183.008C135.385 182.721 134.964 182.578 134.453 182.578C133.927 182.578 133.516 182.693 133.219 182.922C132.922 183.151 132.773 183.451 132.773 183.82C132.773 184.169 132.911 184.432 133.188 184.609C133.464 184.786 133.961 184.956 134.68 185.117C135.404 185.279 135.99 185.471 136.438 185.695C136.885 185.919 137.216 186.19 137.43 186.508C137.648 186.82 137.758 187.203 137.758 187.656C137.758 188.411 137.456 189.018 136.852 189.477C136.247 189.93 135.464 190.156 134.5 190.156C133.823 190.156 133.224 190.036 132.703 189.797C132.182 189.557 131.773 189.224 131.477 188.797C131.185 188.365 131.039 187.898 131.039 187.398H132.484C132.51 187.883 132.703 188.268 133.062 188.555C133.427 188.836 133.906 188.977 134.5 188.977C135.047 188.977 135.484 188.867 135.812 188.648C136.146 188.424 136.312 188.128 136.312 187.758ZM145.359 190C145.276 189.833 145.208 189.536 145.156 189.109C144.484 189.807 143.682 190.156 142.75 190.156C141.917 190.156 141.232 189.922 140.695 189.453C140.164 188.979 139.898 188.38 139.898 187.656C139.898 186.776 140.232 186.094 140.898 185.609C141.57 185.12 142.513 184.875 143.727 184.875H145.133V184.211C145.133 183.706 144.982 183.305 144.68 183.008C144.378 182.706 143.932 182.555 143.344 182.555C142.828 182.555 142.396 182.685 142.047 182.945C141.698 183.206 141.523 183.521 141.523 183.891H140.07C140.07 183.469 140.219 183.062 140.516 182.672C140.818 182.276 141.224 181.964 141.734 181.734C142.25 181.505 142.815 181.391 143.43 181.391C144.404 181.391 145.167 181.635 145.719 182.125C146.271 182.609 146.557 183.279 146.578 184.133V188.023C146.578 188.799 146.677 189.417 146.875 189.875V190H145.359ZM142.961 188.898C143.414 188.898 143.844 188.781 144.25 188.547C144.656 188.312 144.951 188.008 145.133 187.633V185.898H144C142.229 185.898 141.344 186.417 141.344 187.453C141.344 187.906 141.495 188.26 141.797 188.516C142.099 188.771 142.487 188.898 142.961 188.898ZM151.984 187.883L153.953 181.547H155.5L152.102 191.305C151.576 192.711 150.74 193.414 149.594 193.414L149.32 193.391L148.781 193.289V192.117L149.172 192.148C149.661 192.148 150.042 192.049 150.312 191.852C150.589 191.654 150.815 191.292 150.992 190.766L151.312 189.906L148.297 181.547H149.875L151.984 187.883ZM159.258 179.5V181.547H160.836V182.664H159.258V187.906C159.258 188.245 159.328 188.5 159.469 188.672C159.609 188.839 159.849 188.922 160.188 188.922C160.354 188.922 160.583 188.891 160.875 188.828V190C160.495 190.104 160.125 190.156 159.766 190.156C159.12 190.156 158.633 189.961 158.305 189.57C157.977 189.18 157.812 188.625 157.812 187.906V182.664H156.273V181.547H157.812V179.5H159.258ZM164.602 190H163.156V181.547H164.602V190ZM163.039 179.305C163.039 179.07 163.109 178.872 163.25 178.711C163.396 178.549 163.609 178.469 163.891 178.469C164.172 178.469 164.385 178.549 164.531 178.711C164.677 178.872 164.75 179.07 164.75 179.305C164.75 179.539 164.677 179.734 164.531 179.891C164.385 180.047 164.172 180.125 163.891 180.125C163.609 180.125 163.396 180.047 163.25 179.891C163.109 179.734 163.039 179.539 163.039 179.305ZM167.07 185.703C167.07 184.406 167.378 183.365 167.992 182.578C168.607 181.786 169.411 181.391 170.406 181.391C171.396 181.391 172.18 181.729 172.758 182.406V178H174.203V190H172.875L172.805 189.094C172.227 189.802 171.422 190.156 170.391 190.156C169.411 190.156 168.612 189.755 167.992 188.953C167.378 188.151 167.07 187.104 167.07 185.812V185.703ZM168.516 185.867C168.516 186.826 168.714 187.576 169.109 188.117C169.505 188.659 170.052 188.93 170.75 188.93C171.667 188.93 172.336 188.518 172.758 187.695V183.812C172.326 183.016 171.661 182.617 170.766 182.617C170.057 182.617 169.505 182.891 169.109 183.438C168.714 183.984 168.516 184.794 168.516 185.867ZM182.172 190C182.089 189.833 182.021 189.536 181.969 189.109C181.297 189.807 180.495 190.156 179.562 190.156C178.729 190.156 178.044 189.922 177.508 189.453C176.977 188.979 176.711 188.38 176.711 187.656C176.711 186.776 177.044 186.094 177.711 185.609C178.383 185.12 179.326 184.875 180.539 184.875H181.945V184.211C181.945 183.706 181.794 183.305 181.492 183.008C181.19 182.706 180.745 182.555 180.156 182.555C179.641 182.555 179.208 182.685 178.859 182.945C178.51 183.206 178.336 183.521 178.336 183.891H176.883C176.883 183.469 177.031 183.062 177.328 182.672C177.63 182.276 178.036 181.964 178.547 181.734C179.062 181.505 179.628 181.391 180.242 181.391C181.216 181.391 181.979 181.635 182.531 182.125C183.083 182.609 183.37 183.279 183.391 184.133V188.023C183.391 188.799 183.49 189.417 183.688 189.875V190H182.172ZM179.773 188.898C180.227 188.898 180.656 188.781 181.062 188.547C181.469 188.312 181.763 188.008 181.945 187.633V185.898H180.812C179.042 185.898 178.156 186.417 178.156 187.453C178.156 187.906 178.307 188.26 178.609 188.516C178.911 188.771 179.299 188.898 179.773 188.898ZM187.523 181.547L187.57 182.609C188.216 181.797 189.06 181.391 190.102 181.391C191.888 181.391 192.789 182.398 192.805 184.414V190H191.359V184.406C191.354 183.797 191.214 183.346 190.938 183.055C190.667 182.763 190.242 182.617 189.664 182.617C189.195 182.617 188.784 182.742 188.43 182.992C188.076 183.242 187.799 183.57 187.602 183.977V190H186.156V181.547H187.523ZM199.57 185.695C199.57 184.867 199.732 184.122 200.055 183.461C200.383 182.799 200.836 182.289 201.414 181.93C201.997 181.57 202.661 181.391 203.406 181.391C204.557 181.391 205.487 181.789 206.195 182.586C206.909 183.383 207.266 184.443 207.266 185.766V185.867C207.266 186.69 207.107 187.43 206.789 188.086C206.477 188.737 206.026 189.245 205.438 189.609C204.854 189.974 204.182 190.156 203.422 190.156C202.276 190.156 201.346 189.758 200.633 188.961C199.924 188.164 199.57 187.109 199.57 185.797V185.695ZM201.023 185.867C201.023 186.805 201.24 187.557 201.672 188.125C202.109 188.693 202.693 188.977 203.422 188.977C204.156 188.977 204.74 188.69 205.172 188.117C205.604 187.539 205.82 186.732 205.82 185.695C205.82 184.768 205.599 184.018 205.156 183.445C204.719 182.867 204.135 182.578 203.406 182.578C202.693 182.578 202.117 182.862 201.68 183.43C201.242 183.997 201.023 184.81 201.023 185.867ZM209.055 181.828L208.234 181.266C208.719 180.589 208.969 179.875 208.984 179.125V178H210.414V179.016C210.409 179.536 210.279 180.057 210.023 180.578C209.773 181.094 209.451 181.51 209.055 181.828ZM214.016 188.82H218.961V190H212.25V188.938L216.914 182.742H212.32V181.547H218.727V182.57L214.016 188.82ZM222.664 190H221.219V181.547H222.664V190ZM221.102 179.305C221.102 179.07 221.172 178.872 221.312 178.711C221.458 178.549 221.672 178.469 221.953 178.469C222.234 178.469 222.448 178.549 222.594 178.711C222.74 178.872 222.812 179.07 222.812 179.305C222.812 179.539 222.74 179.734 222.594 179.891C222.448 180.047 222.234 180.125 221.953 180.125C221.672 180.125 221.458 180.047 221.312 179.891C221.172 179.734 221.102 179.539 221.102 179.305ZM226.852 181.547L226.898 182.609C227.544 181.797 228.388 181.391 229.43 181.391C231.216 181.391 232.117 182.398 232.133 184.414V190H230.688V184.406C230.682 183.797 230.542 183.346 230.266 183.055C229.995 182.763 229.57 182.617 228.992 182.617C228.523 182.617 228.112 182.742 227.758 182.992C227.404 183.242 227.128 183.57 226.93 183.977V190H225.484V181.547H226.852ZM234.469 185.703C234.469 184.385 234.773 183.339 235.383 182.562C235.992 181.781 236.799 181.391 237.805 181.391C238.836 181.391 239.641 181.755 240.219 182.484L240.289 181.547H241.609V189.797C241.609 190.891 241.284 191.753 240.633 192.383C239.987 193.013 239.117 193.328 238.023 193.328C237.414 193.328 236.818 193.198 236.234 192.938C235.651 192.677 235.206 192.32 234.898 191.867L235.648 191C236.268 191.766 237.026 192.148 237.922 192.148C238.625 192.148 239.172 191.951 239.562 191.555C239.958 191.159 240.156 190.602 240.156 189.883V189.156C239.578 189.823 238.789 190.156 237.789 190.156C236.799 190.156 235.997 189.758 235.383 188.961C234.773 188.164 234.469 187.078 234.469 185.703ZM235.922 185.867C235.922 186.82 236.117 187.57 236.508 188.117C236.898 188.659 237.445 188.93 238.148 188.93C239.06 188.93 239.729 188.516 240.156 187.688V183.828C239.714 183.021 239.049 182.617 238.164 182.617C237.461 182.617 236.911 182.891 236.516 183.438C236.12 183.984 235.922 184.794 235.922 185.867ZM245.867 190H244.422V181.547H245.867V190ZM244.305 179.305C244.305 179.07 244.375 178.872 244.516 178.711C244.661 178.549 244.875 178.469 245.156 178.469C245.438 178.469 245.651 178.549 245.797 178.711C245.943 178.872 246.016 179.07 246.016 179.305C246.016 179.539 245.943 179.734 245.797 179.891C245.651 180.047 245.438 180.125 245.156 180.125C244.875 180.125 244.661 180.047 244.516 179.891C244.375 179.734 244.305 179.539 244.305 179.305ZM250.047 188.82H254.992V190H248.281V188.938L252.945 182.742H248.352V181.547H254.758V182.57L250.047 188.82ZM256.656 185.703C256.656 184.385 256.961 183.339 257.57 182.562C258.18 181.781 258.987 181.391 259.992 181.391C261.023 181.391 261.828 181.755 262.406 182.484L262.477 181.547H263.797V189.797C263.797 190.891 263.471 191.753 262.82 192.383C262.174 193.013 261.305 193.328 260.211 193.328C259.602 193.328 259.005 193.198 258.422 192.938C257.839 192.677 257.393 192.32 257.086 191.867L257.836 191C258.456 191.766 259.214 192.148 260.109 192.148C260.812 192.148 261.359 191.951 261.75 191.555C262.146 191.159 262.344 190.602 262.344 189.883V189.156C261.766 189.823 260.977 190.156 259.977 190.156C258.987 190.156 258.185 189.758 257.57 188.961C256.961 188.164 256.656 187.078 256.656 185.703ZM258.109 185.867C258.109 186.82 258.305 187.57 258.695 188.117C259.086 188.659 259.633 188.93 260.336 188.93C261.247 188.93 261.917 188.516 262.344 187.688V183.828C261.901 183.021 261.237 182.617 260.352 182.617C259.648 182.617 259.099 182.891 258.703 183.438C258.307 183.984 258.109 184.794 258.109 185.867ZM271.703 190C271.62 189.833 271.552 189.536 271.5 189.109C270.828 189.807 270.026 190.156 269.094 190.156C268.26 190.156 267.576 189.922 267.039 189.453C266.508 188.979 266.242 188.38 266.242 187.656C266.242 186.776 266.576 186.094 267.242 185.609C267.914 185.12 268.857 184.875 270.07 184.875H271.477V184.211C271.477 183.706 271.326 183.305 271.023 183.008C270.721 182.706 270.276 182.555 269.688 182.555C269.172 182.555 268.74 182.685 268.391 182.945C268.042 183.206 267.867 183.521 267.867 183.891H266.414C266.414 183.469 266.562 183.062 266.859 182.672C267.161 182.276 267.568 181.964 268.078 181.734C268.594 181.505 269.159 181.391 269.773 181.391C270.747 181.391 271.51 181.635 272.062 182.125C272.615 182.609 272.901 183.279 272.922 184.133V188.023C272.922 188.799 273.021 189.417 273.219 189.875V190H271.703ZM269.305 188.898C269.758 188.898 270.188 188.781 270.594 188.547C271 188.312 271.294 188.008 271.477 187.633V185.898H270.344C268.573 185.898 267.688 186.417 267.688 187.453C267.688 187.906 267.839 188.26 268.141 188.516C268.443 188.771 268.831 188.898 269.305 188.898ZM3.85938 211.883L5.82812 205.547H7.375L3.97656 215.305C3.45052 216.711 2.61458 217.414 1.46875 217.414L1.19531 217.391L0.65625 217.289V216.117L1.04688 216.148C1.53646 216.148 1.91667 216.049 2.1875 215.852C2.46354 215.654 2.6901 215.292 2.86719 214.766L3.1875 213.906L0.171875 205.547H1.75L3.85938 211.883ZM8.66406 209.695C8.66406 208.867 8.82552 208.122 9.14844 207.461C9.47656 206.799 9.92969 206.289 10.5078 205.93C11.0911 205.57 11.7552 205.391 12.5 205.391C13.651 205.391 14.5807 205.789 15.2891 206.586C16.0026 207.383 16.3594 208.443 16.3594 209.766V209.867C16.3594 210.69 16.2005 211.43 15.8828 212.086C15.5703 212.737 15.1198 213.245 14.5312 213.609C13.9479 213.974 13.276 214.156 12.5156 214.156C11.3698 214.156 10.4401 213.758 9.72656 212.961C9.01823 212.164 8.66406 211.109 8.66406 209.797V209.695ZM10.1172 209.867C10.1172 210.805 10.3333 211.557 10.7656 212.125C11.2031 212.693 11.7865 212.977 12.5156 212.977C13.25 212.977 13.8333 212.69 14.2656 212.117C14.6979 211.539 14.9141 210.732 14.9141 209.695C14.9141 208.768 14.6927 208.018 14.25 207.445C13.8125 206.867 13.2292 206.578 12.5 206.578C11.7865 206.578 11.2109 206.862 10.7734 207.43C10.3359 207.997 10.1172 208.81 10.1172 209.867ZM18.3203 209.703C18.3203 208.375 18.625 207.326 19.2344 206.555C19.8438 205.779 20.6615 205.391 21.6875 205.391C22.6875 205.391 23.4766 205.727 24.0547 206.398L24.1172 205.547H25.4453V217.25H24V213.219C23.4167 213.844 22.6406 214.156 21.6719 214.156C20.651 214.156 19.8359 213.76 19.2266 212.969C18.6224 212.172 18.3203 211.117 18.3203 209.805V209.703ZM19.7656 209.867C19.7656 210.836 19.9688 211.596 20.375 212.148C20.7865 212.701 21.3385 212.977 22.0312 212.977C22.8906 212.977 23.5469 212.596 24 211.836V207.695C23.5417 206.951 22.8906 206.578 22.0469 206.578C21.349 206.578 20.7943 206.857 20.3828 207.414C19.9714 207.966 19.7656 208.784 19.7656 209.867ZM27.9141 209.703C27.9141 208.375 28.2188 207.326 28.8281 206.555C29.4375 205.779 30.2552 205.391 31.2812 205.391C32.2812 205.391 33.0703 205.727 33.6484 206.398L33.7109 205.547H35.0391V217.25H33.5938V213.219C33.0104 213.844 32.2344 214.156 31.2656 214.156C30.2448 214.156 29.4297 213.76 28.8203 212.969C28.2161 212.172 27.9141 211.117 27.9141 209.805V209.703ZM29.3594 209.867C29.3594 210.836 29.5625 211.596 29.9688 212.148C30.3802 212.701 30.9323 212.977 31.625 212.977C32.4844 212.977 33.1406 212.596 33.5938 211.836V207.695C33.1354 206.951 32.4844 206.578 31.6406 206.578C30.9427 206.578 30.388 206.857 29.9766 207.414C29.5651 207.966 29.3594 208.784 29.3594 209.867ZM43.0781 214C42.9948 213.833 42.9271 213.536 42.875 213.109C42.2031 213.807 41.401 214.156 40.4688 214.156C39.6354 214.156 38.9505 213.922 38.4141 213.453C37.8828 212.979 37.6172 212.38 37.6172 211.656C37.6172 210.776 37.9505 210.094 38.6172 209.609C39.2891 209.12 40.2318 208.875 41.4453 208.875H42.8516V208.211C42.8516 207.706 42.7005 207.305 42.3984 207.008C42.0964 206.706 41.651 206.555 41.0625 206.555C40.5469 206.555 40.1146 206.685 39.7656 206.945C39.4167 207.206 39.2422 207.521 39.2422 207.891H37.7891C37.7891 207.469 37.9375 207.062 38.2344 206.672C38.5365 206.276 38.9427 205.964 39.4531 205.734C39.9688 205.505 40.5339 205.391 41.1484 205.391C42.1224 205.391 42.8854 205.635 43.4375 206.125C43.9896 206.609 44.276 207.279 44.2969 208.133V212.023C44.2969 212.799 44.3958 213.417 44.5938 213.875V214H43.0781ZM40.6797 212.898C41.1328 212.898 41.5625 212.781 41.9688 212.547C42.375 212.312 42.6693 212.008 42.8516 211.633V209.898H41.7188C39.9479 209.898 39.0625 210.417 39.0625 211.453C39.0625 211.906 39.2135 212.26 39.5156 212.516C39.8177 212.771 40.2057 212.898 40.6797 212.898ZM48.4297 205.547L48.4766 206.609C49.1224 205.797 49.9661 205.391 51.0078 205.391C52.7943 205.391 53.6953 206.398 53.7109 208.414V214H52.2656V208.406C52.2604 207.797 52.1198 207.346 51.8438 207.055C51.5729 206.763 51.1484 206.617 50.5703 206.617C50.1016 206.617 49.6901 206.742 49.3359 206.992C48.9818 207.242 48.7057 207.57 48.5078 207.977V214H47.0625V205.547H48.4297ZM63.2188 210.086L62.3125 211.031V214H60.8672V202H62.3125V209.258L63.0859 208.328L65.7188 205.547H67.4766L64.1875 209.078L67.8594 214H66.1641L63.2188 210.086ZM71.0391 214H69.5938V205.547H71.0391V214ZM69.4766 203.305C69.4766 203.07 69.5469 202.872 69.6875 202.711C69.8333 202.549 70.0469 202.469 70.3281 202.469C70.6094 202.469 70.8229 202.549 70.9688 202.711C71.1146 202.872 71.1875 203.07 71.1875 203.305C71.1875 203.539 71.1146 203.734 70.9688 203.891C70.8229 204.047 70.6094 204.125 70.3281 204.125C70.0469 204.125 69.8333 204.047 69.6875 203.891C69.5469 203.734 69.4766 203.539 69.4766 203.305ZM75.8203 203.5V205.547H77.3984V206.664H75.8203V211.906C75.8203 212.245 75.8906 212.5 76.0312 212.672C76.1719 212.839 76.4115 212.922 76.75 212.922C76.9167 212.922 77.1458 212.891 77.4375 212.828V214C77.0573 214.104 76.6875 214.156 76.3281 214.156C75.6823 214.156 75.1953 213.961 74.8672 213.57C74.5391 213.18 74.375 212.625 74.375 211.906V206.664H72.8359V205.547H74.375V203.5H75.8203ZM79.0547 209.695C79.0547 208.867 79.2161 208.122 79.5391 207.461C79.8672 206.799 80.3203 206.289 80.8984 205.93C81.4818 205.57 82.1458 205.391 82.8906 205.391C84.0417 205.391 84.9714 205.789 85.6797 206.586C86.3932 207.383 86.75 208.443 86.75 209.766V209.867C86.75 210.69 86.5911 211.43 86.2734 212.086C85.9609 212.737 85.5104 213.245 84.9219 213.609C84.3385 213.974 83.6667 214.156 82.9062 214.156C81.7604 214.156 80.8307 213.758 80.1172 212.961C79.4089 212.164 79.0547 211.109 79.0547 209.797V209.695ZM80.5078 209.867C80.5078 210.805 80.724 211.557 81.1562 212.125C81.5938 212.693 82.1771 212.977 82.9062 212.977C83.6406 212.977 84.224 212.69 84.6562 212.117C85.0885 211.539 85.3047 210.732 85.3047 209.695C85.3047 208.768 85.0833 208.018 84.6406 207.445C84.2031 206.867 83.6198 206.578 82.8906 206.578C82.1771 206.578 81.6016 206.862 81.1641 207.43C80.7266 207.997 80.5078 208.81 80.5078 209.867ZM96.2188 209.867C96.2188 211.159 95.9219 212.198 95.3281 212.984C94.7344 213.766 93.9375 214.156 92.9375 214.156C91.8698 214.156 91.0443 213.779 90.4609 213.023L90.3906 214H89.0625V202H90.5078V206.477C91.0911 205.753 91.8958 205.391 92.9219 205.391C93.9479 205.391 94.7526 205.779 95.3359 206.555C95.9245 207.331 96.2188 208.393 96.2188 209.742V209.867ZM94.7734 209.703C94.7734 208.719 94.5833 207.958 94.2031 207.422C93.8229 206.885 93.276 206.617 92.5625 206.617C91.6094 206.617 90.9245 207.06 90.5078 207.945V211.602C90.9505 212.487 91.6406 212.93 92.5781 212.93C93.2708 212.93 93.8099 212.661 94.1953 212.125C94.5807 211.589 94.7734 210.781 94.7734 209.703ZM99.9141 205.547L99.9609 206.609C100.607 205.797 101.451 205.391 102.492 205.391C104.279 205.391 105.18 206.398 105.195 208.414V214H103.75V208.406C103.745 207.797 103.604 207.346 103.328 207.055C103.057 206.763 102.633 206.617 102.055 206.617C101.586 206.617 101.174 206.742 100.82 206.992C100.466 207.242 100.19 207.57 99.9922 207.977V214H98.5469V205.547H99.9141ZM109.445 214H108V205.547H109.445V214ZM107.883 203.305C107.883 203.07 107.953 202.872 108.094 202.711C108.24 202.549 108.453 202.469 108.734 202.469C109.016 202.469 109.229 202.549 109.375 202.711C109.521 202.872 109.594 203.07 109.594 203.305C109.594 203.539 109.521 203.734 109.375 203.891C109.229 204.047 109.016 204.125 108.734 204.125C108.453 204.125 108.24 204.047 108.094 203.891C107.953 203.734 107.883 203.539 107.883 203.305ZM121.656 211.758C121.656 211.367 121.508 211.065 121.211 210.852C120.919 210.633 120.406 210.445 119.672 210.289C118.943 210.133 118.362 209.945 117.93 209.727C117.503 209.508 117.185 209.247 116.977 208.945C116.773 208.643 116.672 208.284 116.672 207.867C116.672 207.174 116.964 206.589 117.547 206.109C118.135 205.63 118.885 205.391 119.797 205.391C120.755 205.391 121.531 205.638 122.125 206.133C122.724 206.628 123.023 207.26 123.023 208.031H121.57C121.57 207.635 121.401 207.294 121.062 207.008C120.729 206.721 120.307 206.578 119.797 206.578C119.271 206.578 118.859 206.693 118.562 206.922C118.266 207.151 118.117 207.451 118.117 207.82C118.117 208.169 118.255 208.432 118.531 208.609C118.807 208.786 119.305 208.956 120.023 209.117C120.747 209.279 121.333 209.471 121.781 209.695C122.229 209.919 122.56 210.19 122.773 210.508C122.992 210.82 123.102 211.203 123.102 211.656C123.102 212.411 122.799 213.018 122.195 213.477C121.591 213.93 120.807 214.156 119.844 214.156C119.167 214.156 118.568 214.036 118.047 213.797C117.526 213.557 117.117 213.224 116.82 212.797C116.529 212.365 116.383 211.898 116.383 211.398H117.828C117.854 211.883 118.047 212.268 118.406 212.555C118.771 212.836 119.25 212.977 119.844 212.977C120.391 212.977 120.828 212.867 121.156 212.648C121.49 212.424 121.656 212.128 121.656 211.758ZM125.102 209.695C125.102 208.867 125.263 208.122 125.586 207.461C125.914 206.799 126.367 206.289 126.945 205.93C127.529 205.57 128.193 205.391 128.938 205.391C130.089 205.391 131.018 205.789 131.727 206.586C132.44 207.383 132.797 208.443 132.797 209.766V209.867C132.797 210.69 132.638 211.43 132.32 212.086C132.008 212.737 131.557 213.245 130.969 213.609C130.385 213.974 129.714 214.156 128.953 214.156C127.807 214.156 126.878 213.758 126.164 212.961C125.456 212.164 125.102 211.109 125.102 209.797V209.695ZM126.555 209.867C126.555 210.805 126.771 211.557 127.203 212.125C127.641 212.693 128.224 212.977 128.953 212.977C129.688 212.977 130.271 212.69 130.703 212.117C131.135 211.539 131.352 210.732 131.352 209.695C131.352 208.768 131.13 208.018 130.688 207.445C130.25 206.867 129.667 206.578 128.938 206.578C128.224 206.578 127.648 206.862 127.211 207.43C126.773 207.997 126.555 208.81 126.555 209.867ZM134.758 209.703C134.758 208.406 135.065 207.365 135.68 206.578C136.294 205.786 137.099 205.391 138.094 205.391C139.083 205.391 139.867 205.729 140.445 206.406V202H141.891V214H140.562L140.492 213.094C139.914 213.802 139.109 214.156 138.078 214.156C137.099 214.156 136.299 213.755 135.68 212.953C135.065 212.151 134.758 211.104 134.758 209.812V209.703ZM136.203 209.867C136.203 210.826 136.401 211.576 136.797 212.117C137.193 212.659 137.74 212.93 138.438 212.93C139.354 212.93 140.023 212.518 140.445 211.695V207.812C140.013 207.016 139.349 206.617 138.453 206.617C137.745 206.617 137.193 206.891 136.797 207.438C136.401 207.984 136.203 208.794 136.203 209.867ZM144.289 209.703C144.289 208.406 144.596 207.365 145.211 206.578C145.826 205.786 146.63 205.391 147.625 205.391C148.615 205.391 149.398 205.729 149.977 206.406V202H151.422V214H150.094L150.023 213.094C149.445 213.802 148.641 214.156 147.609 214.156C146.63 214.156 145.831 213.755 145.211 212.953C144.596 212.151 144.289 211.104 144.289 209.812V209.703ZM145.734 209.867C145.734 210.826 145.932 211.576 146.328 212.117C146.724 212.659 147.271 212.93 147.969 212.93C148.885 212.93 149.555 212.518 149.977 211.695V207.812C149.544 207.016 148.88 206.617 147.984 206.617C147.276 206.617 146.724 206.891 146.328 207.438C145.932 207.984 145.734 208.794 145.734 209.867ZM159.391 214C159.307 213.833 159.24 213.536 159.188 213.109C158.516 213.807 157.714 214.156 156.781 214.156C155.948 214.156 155.263 213.922 154.727 213.453C154.195 212.979 153.93 212.38 153.93 211.656C153.93 210.776 154.263 210.094 154.93 209.609C155.602 209.12 156.544 208.875 157.758 208.875H159.164V208.211C159.164 207.706 159.013 207.305 158.711 207.008C158.409 206.706 157.964 206.555 157.375 206.555C156.859 206.555 156.427 206.685 156.078 206.945C155.729 207.206 155.555 207.521 155.555 207.891H154.102C154.102 207.469 154.25 207.062 154.547 206.672C154.849 206.276 155.255 205.964 155.766 205.734C156.281 205.505 156.846 205.391 157.461 205.391C158.435 205.391 159.198 205.635 159.75 206.125C160.302 206.609 160.589 207.279 160.609 208.133V212.023C160.609 212.799 160.708 213.417 160.906 213.875V214H159.391ZM156.992 212.898C157.445 212.898 157.875 212.781 158.281 212.547C158.688 212.312 158.982 212.008 159.164 211.633V209.898H158.031C156.26 209.898 155.375 210.417 155.375 211.453C155.375 211.906 155.526 212.26 155.828 212.516C156.13 212.771 156.518 212.898 156.992 212.898ZM173.062 213.164C172.5 213.826 171.674 214.156 170.586 214.156C169.685 214.156 168.997 213.896 168.523 213.375C168.055 212.849 167.818 212.073 167.812 211.047V205.547H169.258V211.008C169.258 212.289 169.779 212.93 170.82 212.93C171.924 212.93 172.659 212.518 173.023 211.695V205.547H174.469V214H173.094L173.062 213.164ZM182.094 211.758C182.094 211.367 181.945 211.065 181.648 210.852C181.357 210.633 180.844 210.445 180.109 210.289C179.38 210.133 178.799 209.945 178.367 209.727C177.94 209.508 177.622 209.247 177.414 208.945C177.211 208.643 177.109 208.284 177.109 207.867C177.109 207.174 177.401 206.589 177.984 206.109C178.573 205.63 179.323 205.391 180.234 205.391C181.193 205.391 181.969 205.638 182.562 206.133C183.161 206.628 183.461 207.26 183.461 208.031H182.008C182.008 207.635 181.839 207.294 181.5 207.008C181.167 206.721 180.745 206.578 180.234 206.578C179.708 206.578 179.297 206.693 179 206.922C178.703 207.151 178.555 207.451 178.555 207.82C178.555 208.169 178.693 208.432 178.969 208.609C179.245 208.786 179.742 208.956 180.461 209.117C181.185 209.279 181.771 209.471 182.219 209.695C182.667 209.919 182.997 210.19 183.211 210.508C183.43 210.82 183.539 211.203 183.539 211.656C183.539 212.411 183.237 213.018 182.633 213.477C182.029 213.93 181.245 214.156 180.281 214.156C179.604 214.156 179.005 214.036 178.484 213.797C177.964 213.557 177.555 213.224 177.258 212.797C176.966 212.365 176.82 211.898 176.82 211.398H178.266C178.292 211.883 178.484 212.268 178.844 212.555C179.208 212.836 179.688 212.977 180.281 212.977C180.828 212.977 181.266 212.867 181.594 212.648C181.927 212.424 182.094 212.128 182.094 211.758ZM191.141 213.164C190.578 213.826 189.753 214.156 188.664 214.156C187.763 214.156 187.076 213.896 186.602 213.375C186.133 212.849 185.896 212.073 185.891 211.047V205.547H187.336V211.008C187.336 212.289 187.857 212.93 188.898 212.93C190.003 212.93 190.737 212.518 191.102 211.695V205.547H192.547V214H191.172L191.141 213.164ZM196.82 214H195.375V202H196.82V214ZM199.289 209.703C199.289 208.406 199.596 207.365 200.211 206.578C200.826 205.786 201.63 205.391 202.625 205.391C203.615 205.391 204.398 205.729 204.977 206.406V202H206.422V214H205.094L205.023 213.094C204.445 213.802 203.641 214.156 202.609 214.156C201.63 214.156 200.831 213.755 200.211 212.953C199.596 212.151 199.289 211.104 199.289 209.812V209.703ZM200.734 209.867C200.734 210.826 200.932 211.576 201.328 212.117C201.724 212.659 202.271 212.93 202.969 212.93C203.885 212.93 204.555 212.518 204.977 211.695V207.812C204.544 207.016 203.88 206.617 202.984 206.617C202.276 206.617 201.724 206.891 201.328 207.438C200.932 207.984 200.734 208.794 200.734 209.867ZM214.391 214C214.307 213.833 214.24 213.536 214.188 213.109C213.516 213.807 212.714 214.156 211.781 214.156C210.948 214.156 210.263 213.922 209.727 213.453C209.195 212.979 208.93 212.38 208.93 211.656C208.93 210.776 209.263 210.094 209.93 209.609C210.602 209.12 211.544 208.875 212.758 208.875H214.164V208.211C214.164 207.706 214.013 207.305 213.711 207.008C213.409 206.706 212.964 206.555 212.375 206.555C211.859 206.555 211.427 206.685 211.078 206.945C210.729 207.206 210.555 207.521 210.555 207.891H209.102C209.102 207.469 209.25 207.062 209.547 206.672C209.849 206.276 210.255 205.964 210.766 205.734C211.281 205.505 211.846 205.391 212.461 205.391C213.435 205.391 214.198 205.635 214.75 206.125C215.302 206.609 215.589 207.279 215.609 208.133V212.023C215.609 212.799 215.708 213.417 215.906 213.875V214H214.391ZM211.992 212.898C212.445 212.898 212.875 212.781 213.281 212.547C213.688 212.312 213.982 212.008 214.164 211.633V209.898H213.031C211.26 209.898 210.375 210.417 210.375 211.453C210.375 211.906 210.526 212.26 210.828 212.516C211.13 212.771 211.518 212.898 211.992 212.898ZM230 209.867C230 211.159 229.703 212.198 229.109 212.984C228.516 213.766 227.719 214.156 226.719 214.156C225.651 214.156 224.826 213.779 224.242 213.023L224.172 214H222.844V202H224.289V206.477C224.872 205.753 225.677 205.391 226.703 205.391C227.729 205.391 228.534 205.779 229.117 206.555C229.706 207.331 230 208.393 230 209.742V209.867ZM228.555 209.703C228.555 208.719 228.365 207.958 227.984 207.422C227.604 206.885 227.057 206.617 226.344 206.617C225.391 206.617 224.706 207.06 224.289 207.945V211.602C224.732 212.487 225.422 212.93 226.359 212.93C227.052 212.93 227.591 212.661 227.977 212.125C228.362 211.589 228.555 210.781 228.555 209.703ZM237.547 213.164C236.984 213.826 236.159 214.156 235.07 214.156C234.169 214.156 233.482 213.896 233.008 213.375C232.539 212.849 232.302 212.073 232.297 211.047V205.547H233.742V211.008C233.742 212.289 234.263 212.93 235.305 212.93C236.409 212.93 237.143 212.518 237.508 211.695V205.547H238.953V214H237.578L237.547 213.164ZM244.422 211.883L246.391 205.547H247.938L244.539 215.305C244.013 216.711 243.177 217.414 242.031 217.414L241.758 217.391L241.219 217.289V216.117L241.609 216.148C242.099 216.148 242.479 216.049 242.75 215.852C243.026 215.654 243.253 215.292 243.43 214.766L243.75 213.906L240.734 205.547H242.312L244.422 211.883ZM254.953 213.164C254.391 213.826 253.565 214.156 252.477 214.156C251.576 214.156 250.888 213.896 250.414 213.375C249.945 212.849 249.708 212.073 249.703 211.047V205.547H251.148V211.008C251.148 212.289 251.669 212.93 252.711 212.93C253.815 212.93 254.549 212.518 254.914 211.695V205.547H256.359V214H254.984L254.953 213.164ZM263.148 206.844C262.93 206.807 262.693 206.789 262.438 206.789C261.49 206.789 260.846 207.193 260.508 208V214H259.062V205.547H260.469L260.492 206.523C260.966 205.768 261.638 205.391 262.508 205.391C262.789 205.391 263.003 205.427 263.148 205.5V206.844ZM267.336 203.5V205.547H268.914V206.664H267.336V211.906C267.336 212.245 267.406 212.5 267.547 212.672C267.688 212.839 267.927 212.922 268.266 212.922C268.432 212.922 268.661 212.891 268.953 212.828V214C268.573 214.104 268.203 214.156 267.844 214.156C267.198 214.156 266.711 213.961 266.383 213.57C266.055 213.18 265.891 212.625 265.891 211.906V206.664H264.352V205.547H265.891V203.5H267.336ZM272.469 205.547L272.508 206.484C273.128 205.755 273.964 205.391 275.016 205.391C276.198 205.391 277.003 205.844 277.43 206.75C277.711 206.344 278.076 206.016 278.523 205.766C278.977 205.516 279.51 205.391 280.125 205.391C281.979 205.391 282.922 206.372 282.953 208.336V214H281.508V208.422C281.508 207.818 281.37 207.367 281.094 207.07C280.818 206.768 280.354 206.617 279.703 206.617C279.167 206.617 278.721 206.779 278.367 207.102C278.013 207.419 277.807 207.849 277.75 208.391V214H276.297V208.461C276.297 207.232 275.695 206.617 274.492 206.617C273.544 206.617 272.896 207.021 272.547 207.828V214H271.102V205.547H272.469ZM290.859 214C290.776 213.833 290.708 213.536 290.656 213.109C289.984 213.807 289.182 214.156 288.25 214.156C287.417 214.156 286.732 213.922 286.195 213.453C285.664 212.979 285.398 212.38 285.398 211.656C285.398 210.776 285.732 210.094 286.398 209.609C287.07 209.12 288.013 208.875 289.227 208.875H290.633V208.211C290.633 207.706 290.482 207.305 290.18 207.008C289.878 206.706 289.432 206.555 288.844 206.555C288.328 206.555 287.896 206.685 287.547 206.945C287.198 207.206 287.023 207.521 287.023 207.891H285.57C285.57 207.469 285.719 207.062 286.016 206.672C286.318 206.276 286.724 205.964 287.234 205.734C287.75 205.505 288.315 205.391 288.93 205.391C289.904 205.391 290.667 205.635 291.219 206.125C291.771 206.609 292.057 207.279 292.078 208.133V212.023C292.078 212.799 292.177 213.417 292.375 213.875V214H290.859ZM288.461 212.898C288.914 212.898 289.344 212.781 289.75 212.547C290.156 212.312 290.451 212.008 290.633 211.633V209.898H289.5C287.729 209.898 286.844 210.417 286.844 211.453C286.844 211.906 286.995 212.26 287.297 212.516C287.599 212.771 287.987 212.898 288.461 212.898ZM0.742188 233.703C0.742188 232.375 1.04688 231.326 1.65625 230.555C2.26562 229.779 3.08333 229.391 4.10938 229.391C5.10938 229.391 5.89844 229.727 6.47656 230.398L6.53906 229.547H7.86719V241.25H6.42188V237.219C5.83854 237.844 5.0625 238.156 4.09375 238.156C3.07292 238.156 2.25781 237.76 1.64844 236.969C1.04427 236.172 0.742188 235.117 0.742188 233.805V233.703ZM2.1875 233.867C2.1875 234.836 2.39062 235.596 2.79688 236.148C3.20833 236.701 3.76042 236.977 4.45312 236.977C5.3125 236.977 5.96875 236.596 6.42188 235.836V231.695C5.96354 230.951 5.3125 230.578 4.46875 230.578C3.77083 230.578 3.21615 230.857 2.80469 231.414C2.39323 231.966 2.1875 232.784 2.1875 233.867ZM12.2578 238H10.8125V229.547H12.2578V238ZM10.6953 227.305C10.6953 227.07 10.7656 226.872 10.9062 226.711C11.0521 226.549 11.2656 226.469 11.5469 226.469C11.8281 226.469 12.0417 226.549 12.1875 226.711C12.3333 226.872 12.4062 227.07 12.4062 227.305C12.4062 227.539 12.3333 227.734 12.1875 227.891C12.0417 228.047 11.8281 228.125 11.5469 228.125C11.2656 228.125 11.0521 228.047 10.9062 227.891C10.7656 227.734 10.6953 227.539 10.6953 227.305ZM16.6484 238H15.2031V226H16.6484V238ZM24.6875 238C24.6042 237.833 24.5365 237.536 24.4844 237.109C23.8125 237.807 23.0104 238.156 22.0781 238.156C21.2448 238.156 20.5599 237.922 20.0234 237.453C19.4922 236.979 19.2266 236.38 19.2266 235.656C19.2266 234.776 19.5599 234.094 20.2266 233.609C20.8984 233.12 21.8411 232.875 23.0547 232.875H24.4609V232.211C24.4609 231.706 24.3099 231.305 24.0078 231.008C23.7057 230.706 23.2604 230.555 22.6719 230.555C22.1562 230.555 21.724 230.685 21.375 230.945C21.026 231.206 20.8516 231.521 20.8516 231.891H19.3984C19.3984 231.469 19.5469 231.062 19.8438 230.672C20.1458 230.276 20.5521 229.964 21.0625 229.734C21.5781 229.505 22.1432 229.391 22.7578 229.391C23.7318 229.391 24.4948 229.635 25.0469 230.125C25.599 230.609 25.8854 231.279 25.9062 232.133V236.023C25.9062 236.799 26.0052 237.417 26.2031 237.875V238H24.6875ZM22.2891 236.898C22.7422 236.898 23.1719 236.781 23.5781 236.547C23.9844 236.312 24.2786 236.008 24.4609 235.633V233.898H23.3281C21.5573 233.898 20.6719 234.417 20.6719 235.453C20.6719 235.906 20.8229 236.26 21.125 236.516C21.4271 236.771 21.8151 236.898 22.2891 236.898ZM32.7578 233.695C32.7578 232.867 32.9193 232.122 33.2422 231.461C33.5703 230.799 34.0234 230.289 34.6016 229.93C35.1849 229.57 35.849 229.391 36.5938 229.391C37.7448 229.391 38.6745 229.789 39.3828 230.586C40.0964 231.383 40.4531 232.443 40.4531 233.766V233.867C40.4531 234.69 40.2943 235.43 39.9766 236.086C39.6641 236.737 39.2135 237.245 38.625 237.609C38.0417 237.974 37.3698 238.156 36.6094 238.156C35.4635 238.156 34.5339 237.758 33.8203 236.961C33.112 236.164 32.7578 235.109 32.7578 233.797V233.695ZM34.2109 233.867C34.2109 234.805 34.4271 235.557 34.8594 236.125C35.2969 236.693 35.8802 236.977 36.6094 236.977C37.3438 236.977 37.9271 236.69 38.3594 236.117C38.7917 235.539 39.0078 234.732 39.0078 233.695C39.0078 232.768 38.7865 232.018 38.3438 231.445C37.9062 230.867 37.3229 230.578 36.5938 230.578C35.8802 230.578 35.3047 230.862 34.8672 231.43C34.4297 231.997 34.2109 232.81 34.2109 233.867ZM44.3359 238H42.8906V226H44.3359V238ZM52.375 238C52.2917 237.833 52.224 237.536 52.1719 237.109C51.5 237.807 50.6979 238.156 49.7656 238.156C48.9323 238.156 48.2474 237.922 47.7109 237.453C47.1797 236.979 46.9141 236.38 46.9141 235.656C46.9141 234.776 47.2474 234.094 47.9141 233.609C48.5859 233.12 49.5286 232.875 50.7422 232.875H52.1484V232.211C52.1484 231.706 51.9974 231.305 51.6953 231.008C51.3932 230.706 50.9479 230.555 50.3594 230.555C49.8438 230.555 49.4115 230.685 49.0625 230.945C48.7135 231.206 48.5391 231.521 48.5391 231.891H47.0859C47.0859 231.469 47.2344 231.062 47.5312 230.672C47.8333 230.276 48.2396 229.964 48.75 229.734C49.2656 229.505 49.8307 229.391 50.4453 229.391C51.4193 229.391 52.1823 229.635 52.7344 230.125C53.2865 230.609 53.5729 231.279 53.5938 232.133V236.023C53.5938 236.799 53.6927 237.417 53.8906 237.875V238H52.375ZM49.9766 236.898C50.4297 236.898 50.8594 236.781 51.2656 236.547C51.6719 236.312 51.9661 236.008 52.1484 235.633V233.898H51.0156C49.2448 233.898 48.3594 234.417 48.3594 235.453C48.3594 235.906 48.5104 236.26 48.8125 236.516C49.1146 236.771 49.5026 236.898 49.9766 236.898ZM61.2812 235.758C61.2812 235.367 61.1328 235.065 60.8359 234.852C60.5443 234.633 60.0312 234.445 59.2969 234.289C58.5677 234.133 57.987 233.945 57.5547 233.727C57.1276 233.508 56.8099 233.247 56.6016 232.945C56.3984 232.643 56.2969 232.284 56.2969 231.867C56.2969 231.174 56.5885 230.589 57.1719 230.109C57.7604 229.63 58.5104 229.391 59.4219 229.391C60.3802 229.391 61.1562 229.638 61.75 230.133C62.349 230.628 62.6484 231.26 62.6484 232.031H61.1953C61.1953 231.635 61.026 231.294 60.6875 231.008C60.3542 230.721 59.9323 230.578 59.4219 230.578C58.8958 230.578 58.4844 230.693 58.1875 230.922C57.8906 231.151 57.7422 231.451 57.7422 231.82C57.7422 232.169 57.8802 232.432 58.1562 232.609C58.4323 232.786 58.9297 232.956 59.6484 233.117C60.3724 233.279 60.9583 233.471 61.4062 233.695C61.8542 233.919 62.1849 234.19 62.3984 234.508C62.6172 234.82 62.7266 235.203 62.7266 235.656C62.7266 236.411 62.4245 237.018 61.8203 237.477C61.2161 237.93 60.4323 238.156 59.4688 238.156C58.7917 238.156 58.1927 238.036 57.6719 237.797C57.151 237.557 56.7422 237.224 56.4453 236.797C56.1536 236.365 56.0078 235.898 56.0078 235.398H57.4531C57.4792 235.883 57.6719 236.268 58.0312 236.555C58.3958 236.836 58.875 236.977 59.4688 236.977C60.0156 236.977 60.4531 236.867 60.7812 236.648C61.1146 236.424 61.2812 236.128 61.2812 235.758ZM66.6797 238H65.2344V229.547H66.6797V238ZM65.1172 227.305C65.1172 227.07 65.1875 226.872 65.3281 226.711C65.474 226.549 65.6875 226.469 65.9688 226.469C66.25 226.469 66.4635 226.549 66.6094 226.711C66.7552 226.872 66.8281 227.07 66.8281 227.305C66.8281 227.539 66.7552 227.734 66.6094 227.891C66.4635 228.047 66.25 228.125 65.9688 228.125C65.6875 228.125 65.474 228.047 65.3281 227.891C65.1875 227.734 65.1172 227.539 65.1172 227.305ZM70.8594 236.82H75.8047V238H69.0938V236.938L73.7578 230.742H69.1641V229.547H75.5703V230.57L70.8594 236.82ZM77.9688 237.242C77.9688 236.992 78.0417 236.784 78.1875 236.617C78.3385 236.451 78.5625 236.367 78.8594 236.367C79.1562 236.367 79.3802 236.451 79.5312 236.617C79.6875 236.784 79.7656 236.992 79.7656 237.242C79.7656 237.482 79.6875 237.682 79.5312 237.844C79.3802 238.005 79.1562 238.086 78.8594 238.086C78.5625 238.086 78.3385 238.005 78.1875 237.844C78.0417 237.682 77.9688 237.482 77.9688 237.242Z" fill="black"/>
</svg>
